spectral-xbold-italic.ufo
<glyph name="exclam" format="1">
  <advance width="268"/>
  <unicode hex="0021"/>
  <outline>
    <contour>
      <point x="108" y="230" type="line"/>
      <point x="143" y="230" type="line"/>
      <point x="283" y="660" type="line"/>
      <point x="118" y="660" type="line"/>
    </contour>
    <contour>
      <point x="92" y="-5" type="curve" smooth="yes"/>
      <point x="139" y="-5"/>
      <point x="170" y="31"/>
      <point x="170" y="79" type="curve" smooth="yes"/>
      <point x="170" y="116"/>
      <point x="151" y="143"/>
      <point x="108" y="143" type="curve" smooth="yes"/>
      <point x="62" y="143"/>
      <point x="30" y="102"/>
      <point x="30" y="59" type="curve" smooth="yes"/>
      <point x="30" y="22"/>
      <point x="49" y="-5"/>
    </contour>
  </outline>
</glyph>
<glyph name="numbersign" format="2">
  <advance width="600"/>
  <unicode hex="0023"/>
  <outline>
    <contour>
      <point x="60" y="0" type="line"/>
      <point x="109" y="0" type="line"/>
      <point x="378" y="660" type="line"/>
      <point x="329" y="660" type="line"/>
    </contour>
    <contour>
      <point x="271" y="0" type="line"/>
      <point x="540" y="660" type="line"/>
      <point x="491" y="660" type="line"/>
      <point x="222" y="0" type="line"/>
    </contour>
    <contour>
      <point x="133" y="407" type="line"/>
      <point x="526" y="407" type="line"/>
      <point x="533" y="451" type="line"/>
      <point x="140" y="451" type="line"/>
    </contour>
    <contour>
      <point x="459" y="207" type="line"/>
      <point x="466" y="251" type="line"/>
      <point x="73" y="251" type="line"/>
      <point x="66" y="207" type="line"/>
    </contour>
  </outline>
</glyph>
<glyph name="dollar" format="2">
  <advance width="600"/>
  <unicode hex="0024"/>
  <outline>
    <contour>
      <point x="170" y="-80" type="line"/>
      <point x="211" y="-80" type="line"/>
      <point x="355" y="740" type="line"/>
      <point x="314" y="740" type="line"/>
    </contour>
    <contour>
      <point x="267" y="-80" type="line"/>
      <point x="308" y="-80" type="line"/>
      <point x="452" y="740" type="line"/>
      <point x="411" y="740" type="line"/>
    </contour>
    <contour>
      <point x="495" y="564" type="curve"/>
      <point x="472" y="613" type="line"/>
      <point x="450" y="496" type="line"/>
      <point x="510" y="496" type="line" smooth="yes"/>
      <point x="542" y="496"/>
      <point x="558" y="515"/>
      <point x="558" y="548" type="curve" smooth="yes"/>
      <point x="558" y="606"/>
      <point x="494" y="670"/>
      <point x="365" y="670" type="curve" smooth="yes"/>
      <point x="224" y="670"/>
      <point x="107" y="573"/>
      <point x="107" y="453" type="curve" smooth="yes"/>
      <point x="107" y="379"/>
      <point x="144" y="337"/>
      <point x="201" y="301" type="curve" smooth="yes"/>
      <point x="341" y="212"/>
      <point x="392" y="206"/>
      <point x="392" y="139" type="curve" smooth="yes"/>
      <point x="392" y="75"/>
      <point x="327" y="44"/>
      <point x="261" y="44" type="curve" smooth="yes"/>
      <point x="213" y="44"/>
      <point x="167" y="59"/>
      <point x="139" y="94" type="curve"/>
      <point x="150" y="62" type="line"/>
      <point x="170" y="178" type="line"/>
      <point x="111" y="178" type="line" smooth="yes"/>
      <point x="82" y="178"/>
      <point x="61" y="157"/>
      <point x="61" y="123" type="curve" smooth="yes"/>
      <point x="61" y="56"/>
      <point x="139" y="-10"/>
      <point x="259" y="-10" type="curve" smooth="yes"/>
      <point x="416" y="-10"/>
      <point x="530" y="82"/>
      <point x="530" y="209" type="curve" smooth="yes"/>
      <point x="530" y="290"/>
      <point x="492" y="340"/>
      <point x="392" y="394" type="curve" smooth="yes"/>
      <point x="281" y="455"/>
      <point x="235" y="476"/>
      <point x="235" y="525" type="curve" smooth="yes"/>
      <point x="235" y="590"/>
      <point x="300" y="616"/>
      <point x="355" y="616" type="curve" smooth="yes"/>
      <point x="427" y="616"/>
      <point x="466" y="596"/>
    </contour>
  </outline>
</glyph>
<glyph name="ampersand" format="2">
  <advance width="829"/>
  <unicode hex="0026"/>
  <outline>
    <contour>
      <point x="592" y="-10" type="curve" smooth="yes"/>
      <point x="660" y="-10"/>
      <point x="731" y="24"/>
      <point x="770" y="85" type="curve"/>
      <point x="758" y="99" type="line"/>
      <point x="755" y="99" type="line"/>
      <point x="736" y="86"/>
      <point x="716" y="81"/>
      <point x="691" y="81" type="curve" smooth="yes"/>
      <point x="636" y="81"/>
      <point x="580" y="114"/>
      <point x="502" y="219" type="curve"/>
      <point x="379" y="383" type="line" smooth="yes"/>
      <point x="316" y="467"/>
      <point x="300" y="509"/>
      <point x="300" y="543" type="curve" smooth="yes"/>
      <point x="300" y="584"/>
      <point x="318" y="629"/>
      <point x="363" y="629" type="curve" smooth="yes"/>
      <point x="405" y="629"/>
      <point x="420" y="596"/>
      <point x="420" y="556" type="curve" smooth="yes"/>
      <point x="420" y="497"/>
      <point x="383" y="437"/>
      <point x="345" y="411" type="curve"/>
      <point x="359" y="388" type="line"/>
      <point x="508" y="416"/>
      <point x="566" y="473"/>
      <point x="566" y="541" type="curve" smooth="yes"/>
      <point x="566" y="622"/>
      <point x="491" y="670"/>
      <point x="373" y="670" type="curve" smooth="yes"/>
      <point x="231" y="670"/>
      <point x="153" y="597"/>
      <point x="153" y="478" type="curve" smooth="yes"/>
      <point x="153" y="427"/>
      <point x="173" y="383"/>
      <point x="235" y="301" type="curve" smooth="yes"/>
      <point x="365" y="131" type="line"/>
      <point x="446" y="26"/>
      <point x="502" y="-10"/>
    </contour>
    <contour>
      <point x="245" y="-10" type="curve" smooth="yes"/>
      <point x="441" y="-10"/>
      <point x="562" y="128"/>
      <point x="700" y="350" type="curve"/>
      <point x="667" y="325" type="line"/>
      <point x="779" y="372" type="line"/>
      <point x="782" y="388" type="line"/>
      <point x="543" y="388" type="line"/>
      <point x="540" y="372" type="line"/>
      <point x="626" y="333" type="line"/>
      <point x="534" y="155"/>
      <point x="422" y="47"/>
      <point x="309" y="47" type="curve" smooth="yes"/>
      <point x="217.0" y="47.0"/>
      <point x="176.0" y="107.08759124087591"/>
      <point x="176" y="194" type="curve" smooth="yes"/>
      <point x="176.0" y="264.86486486486484"/>
      <point x="208.95411695216816" y="316.9791440691673"/>
      <point x="242" y="332" type="curve"/>
      <point x="228" y="350" type="line"/>
      <point x="115.97060599420087" y="322.9929139450306"/>
      <point x="29.0" y="261.55882352941177"/>
      <point x="29" y="156" type="curve" smooth="yes"/>
      <point x="29.0" y="47.46153846153847"/>
      <point x="116.0" y="-10.0"/>
    </contour>
  </outline>
</glyph>
<glyph name="quotesingle" format="1">
  <advance width="250"/>
  <unicode hex="0027"/>
  <outline>
    <contour>
      <point x="114" y="490" type="line"/>
      <point x="174" y="490" type="line"/>
      <point x="218" y="740" type="line"/>
      <point x="158" y="740" type="line"/>
    </contour>
  </outline>
</glyph>
<glyph name="parenleft" format="1">
  <advance width="285"/>
  <unicode hex="0028"/>
  <outline>
    <contour>
      <point x="190" y="-150" type="curve"/>
      <point x="210" y="-150" type="line"/>
      <point x="210" y="-147" type="line"/>
      <point x="168" y="-46"/>
      <point x="154" y="56"/>
      <point x="154" y="180" type="curve" smooth="yes"/>
      <point x="154" y="387"/>
      <point x="234" y="576"/>
      <point x="358" y="737" type="curve"/>
      <point x="358" y="740" type="line"/>
      <point x="338" y="740" type="line"/>
      <point x="186" y="609"/>
      <point x="85" y="418"/>
      <point x="85" y="215" type="curve" smooth="yes"/>
      <point x="85" y="82"/>
      <point x="115" y="-40"/>
    </contour>
  </outline>
</glyph>
<glyph name="parenright" format="1">
  <advance width="285"/>
  <unicode hex="0029"/>
  <outline>
    <contour>
      <point x="-75" y="-150" type="line"/>
      <point x="-55" y="-150" type="line"/>
      <point x="97" y="-19"/>
      <point x="198" y="172"/>
      <point x="198" y="375" type="curve" smooth="yes"/>
      <point x="198" y="508"/>
      <point x="168" y="630"/>
      <point x="93" y="740" type="curve"/>
      <point x="73" y="740" type="line"/>
      <point x="73" y="737" type="line"/>
      <point x="115" y="636"/>
      <point x="129" y="534"/>
      <point x="129" y="410" type="curve" smooth="yes"/>
      <point x="129" y="203"/>
      <point x="49" y="14"/>
      <point x="-75" y="-147" type="curve"/>
    </contour>
  </outline>
</glyph>
<glyph name="asterisk" format="1">
  <advance width="350"/>
  <unicode hex="002A"/>
  <outline>
    <contour>
      <point x="45" y="478" type="line"/>
      <point x="108" y="425" type="line"/>
      <point x="190" y="553" type="line"/>
      <point x="226" y="427" type="line"/>
      <point x="307" y="474" type="line"/>
      <point x="215" y="573" type="line"/>
      <point x="361" y="587" type="line"/>
      <point x="345" y="669" type="line"/>
      <point x="211" y="601" type="line"/>
      <point x="268" y="740" type="line"/>
      <point x="178" y="740" type="line"/>
      <point x="185" y="601" type="line"/>
      <point x="73" y="669" type="line"/>
      <point x="35" y="587" type="line"/>
      <point x="171" y="573" type="line"/>
    </contour>
  </outline>
</glyph>
<glyph name="plus" format="2">
  <advance width="600"/>
  <unicode hex="002B"/>
  <outline>
    <contour>
      <point x="500" y="244" type="line"/>
      <point x="510" y="300" type="line"/>
      <point x="90" y="300" type="line"/>
      <point x="80" y="244" type="line"/>
    </contour>
    <contour>
      <point x="301" y="482" type="line"/>
      <point x="227" y="62" type="line"/>
      <point x="289" y="62" type="line"/>
      <point x="363" y="482" type="line"/>
    </contour>
  </outline>
</glyph>
<glyph name="comma" format="2">
  <advance width="258"/>
  <unicode hex="002C"/>
  <outline>
    <contour>
      <point x="-67" y="-189" type="line"/>
      <point x="-38" y="-189" type="line"/>
      <point x="192" y="103" type="line"/>
      <point x="192" y="131" type="line"/>
      <point x="50" y="131" type="line"/>
    </contour>
  </outline>
</glyph>
<glyph name="hyphen" format="2">
  <advance width="357"/>
  <unicode hex="002D"/>
  <outline>
    <contour>
      <point x="35" y="222" type="line"/>
      <point x="310" y="222" type="line"/>
      <point x="322" y="292" type="line"/>
      <point x="47" y="292" type="line"/>
    </contour>
  </outline>
</glyph>
<glyph name="period" format="1">
  <advance width="258"/>
  <unicode hex="002E"/>
  <outline>
    <contour>
      <point x="92" y="-5" type="curve" smooth="yes"/>
      <point x="139" y="-5"/>
      <point x="170" y="36"/>
      <point x="170" y="79" type="curve" smooth="yes"/>
      <point x="170" y="116"/>
      <point x="151" y="143"/>
      <point x="108" y="143" type="curve" smooth="yes"/>
      <point x="62" y="143"/>
      <point x="30" y="102"/>
      <point x="30" y="59" type="curve" smooth="yes"/>
      <point x="30" y="22"/>
      <point x="49" y="-5"/>
    </contour>
  </outline>
</glyph>
<glyph name="zero" format="2">
  <advance width="600"/>
  <unicode hex="0030"/>
  <outline>
    <contour>
      <point x="241" y="-10" type="curve" smooth="yes"/>
      <point x="415" y="-10"/>
      <point x="544" y="205"/>
      <point x="544" y="421" type="curve" smooth="yes"/>
      <point x="544" y="577"/>
      <point x="477" y="670"/>
      <point x="359" y="670" type="curve" smooth="yes"/>
      <point x="185" y="670"/>
      <point x="57" y="455"/>
      <point x="57" y="239" type="curve" smooth="yes"/>
      <point x="57" y="83"/>
      <point x="124" y="-10"/>
    </contour>
    <contour>
      <point x="267" y="40" type="curve" smooth="yes"/>
      <point x="237" y="40"/>
      <point x="233" y="98"/>
      <point x="233" y="180" type="curve" smooth="yes"/>
      <point x="233" y="334"/>
      <point x="266" y="620"/>
      <point x="335" y="620" type="curve" smooth="yes"/>
      <point x="366" y="620"/>
      <point x="370" y="563"/>
      <point x="370" y="483" type="curve" smooth="yes"/>
      <point x="370" y="329"/>
      <point x="335" y="40"/>
    </contour>
  </outline>
</glyph>
<glyph name="one" format="2">
  <advance width="600"/>
  <unicode hex="0031"/>
  <outline>
    <contour>
      <point x="96" y="0" type="line"/>
      <point x="442" y="0" type="line"/>
      <point x="445" y="16" type="line"/>
      <point x="361" y="58" type="line"/>
      <point x="465" y="660" type="line"/>
      <point x="366" y="660" type="line"/>
      <point x="125" y="510" type="line"/>
      <point x="117" y="464" type="line"/>
      <point x="279" y="536" type="line"/>
      <point x="195" y="58" type="line"/>
      <point x="99" y="16" type="line"/>
    </contour>
  </outline>
</glyph>
<glyph name="two" format="2">
  <advance width="600"/>
  <unicode hex="0032"/>
  <outline>
    <contour>
      <point x="23" y="0" type="line"/>
      <point x="473" y="0" type="line"/>
      <point x="519" y="233" type="line"/>
      <point x="503" y="233" type="line"/>
      <point x="422" y="132" type="line"/>
      <point x="129" y="132" type="line"/>
      <point x="86" y="56" type="line"/>
      <point x="454" y="332"/>
      <point x="544" y="411"/>
      <point x="544" y="524" type="curve" smooth="yes"/>
      <point x="544" y="616"/>
      <point x="458" y="670"/>
      <point x="357" y="670" type="curve" smooth="yes"/>
      <point x="194" y="670"/>
      <point x="88" y="536"/>
      <point x="88" y="468" type="curve" smooth="yes"/>
      <point x="88" y="445"/>
      <point x="99" y="441"/>
      <point x="119" y="441" type="curve" smooth="yes"/>
      <point x="202" y="441" type="line"/>
      <point x="226" y="618" type="line"/>
      <point x="174" y="559" type="line"/>
      <point x="213" y="594"/>
      <point x="256" y="607"/>
      <point x="294" y="607" type="curve" smooth="yes"/>
      <point x="342" y="607"/>
      <point x="370" y="583"/>
      <point x="370" y="537" type="curve" smooth="yes"/>
      <point x="370" y="427"/>
      <point x="322" y="337"/>
      <point x="32" y="45" type="curve"/>
    </contour>
  </outline>
</glyph>
<glyph name="three" format="2">
  <advance width="600"/>
  <unicode hex="0033"/>
  <outline>
    <contour>
      <point x="208" y="592" type="line"/>
      <point x="234" y="606"/>
      <point x="261" y="614"/>
      <point x="292" y="614" type="curve" smooth="yes"/>
      <point x="329" y="614"/>
      <point x="356" y="597"/>
      <point x="356" y="545" type="curve" smooth="yes"/>
      <point x="356" y="439"/>
      <point x="286" y="366"/>
      <point x="195" y="366" type="curve" smooth="yes"/>
      <point x="166" y="366" type="line"/>
      <point x="158" y="316" type="line"/>
      <point x="216" y="316" type="line" smooth="yes"/>
      <point x="301" y="316"/>
      <point x="333" y="278"/>
      <point x="333" y="215" type="curve" smooth="yes"/>
      <point x="333" y="96"/>
      <point x="289" y="47"/>
      <point x="206" y="47" type="curve" smooth="yes"/>
      <point x="173" y="47"/>
      <point x="144" y="52"/>
      <point x="118" y="67" type="curve"/>
      <point x="132" y="33" type="line"/>
      <point x="159" y="172" type="line"/>
      <point x="76" y="172" type="line" smooth="yes"/>
      <point x="48" y="172"/>
      <point x="32" y="160"/>
      <point x="32" y="116" type="curve" smooth="yes"/>
      <point x="32" y="54"/>
      <point x="86" y="-10"/>
      <point x="213" y="-10" type="curve" smooth="yes"/>
      <point x="371" y="-10"/>
      <point x="511" y="79"/>
      <point x="511" y="210" type="curve" smooth="yes"/>
      <point x="511" y="305"/>
      <point x="427" y="363"/>
      <point x="247" y="363" type="curve"/>
      <point x="248" y="356" type="line"/>
      <point x="251" y="356"/>
      <point x="253" y="356"/>
      <point x="256" y="356" type="curve" smooth="yes"/>
      <point x="407" y="356"/>
      <point x="532" y="416"/>
      <point x="532" y="536" type="curve" smooth="yes"/>
      <point x="532" y="614"/>
      <point x="457" y="670"/>
      <point x="338" y="670" type="curve" smooth="yes"/>
      <point x="206" y="670"/>
      <point x="102" y="569"/>
      <point x="102" y="498" type="curve" smooth="yes"/>
      <point x="102" y="478"/>
      <point x="110" y="471"/>
      <point x="133" y="471" type="curve" smooth="yes"/>
      <point x="215" y="471" type="line"/>
      <point x="237" y="623" type="line"/>
    </contour>
  </outline>
</glyph>
<glyph name="four" format="1">
  <advance width="600"/>
  <unicode hex="0034"/>
  <outline>
    <contour>
      <point x="231" y="0" type="line"/>
      <point x="399" y="0" type="line"/>
      <point x="513" y="660" type="line"/>
      <point x="424" y="660" type="line"/>
      <point x="22" y="202" type="line"/>
      <point x="14" y="163" type="line"/>
      <point x="535" y="163" type="line"/>
      <point x="549" y="250" type="line"/>
      <point x="63" y="250" type="line"/>
      <point x="84" y="206" type="line"/>
      <point x="403" y="576" type="line"/>
      <point x="325" y="536" type="line"/>
    </contour>
  </outline>
</glyph>
<glyph name="five" format="2">
  <advance width="600"/>
  <unicode hex="0035"/>
  <outline>
    <contour>
      <point x="202" y="-10" type="curve" smooth="yes"/>
      <point x="362" y="-10"/>
      <point x="502" y="101"/>
      <point x="502" y="239" type="curve" smooth="yes"/>
      <point x="502" y="342"/>
      <point x="427" y="419"/>
      <point x="318" y="419" type="curve" smooth="yes"/>
      <point x="262" y="419"/>
      <point x="202" y="403"/>
      <point x="142" y="377" type="curve"/>
      <point x="156" y="342" type="line"/>
      <point x="197" y="557" type="line"/>
      <point x="179" y="543" type="line"/>
      <point x="495" y="543" type="line"/>
      <point x="518" y="660" type="line"/>
      <point x="160" y="660" type="line"/>
      <point x="95" y="318" type="line"/>
      <point x="124" y="323"/>
      <point x="153" y="327"/>
      <point x="184" y="327" type="curve" smooth="yes"/>
      <point x="278" y="327"/>
      <point x="334" y="283"/>
      <point x="334" y="196" type="curve" smooth="yes"/>
      <point x="334" y="97"/>
      <point x="272.68209640914847" y="35.0"/>
      <point x="199" y="35" type="curve" smooth="yes"/>
      <point x="181" y="35"/>
      <point x="163" y="38"/>
      <point x="145" y="44" type="curve"/>
      <point x="193" y="12" type="line"/>
      <point x="118" y="156" type="line"/>
      <point x="41" y="103" type="line" smooth="yes"/>
      <point x="27" y="94"/>
      <point x="17" y="83"/>
      <point x="17" y="74" type="curve" smooth="yes"/>
      <point x="17" y="35"/>
      <point x="94" y="-10"/>
    </contour>
  </outline>
</glyph>
<glyph name="six" format="1">
  <advance width="600"/>
  <unicode hex="0036"/>
  <outline>
    <contour>
      <point x="258" y="-10" type="curve" smooth="yes"/>
      <point x="416" y="-10"/>
      <point x="514" y="81"/>
      <point x="514" y="230" type="curve" smooth="yes"/>
      <point x="514" y="327"/>
      <point x="467" y="398"/>
      <point x="364" y="398" type="curve" smooth="yes"/>
      <point x="286" y="398"/>
      <point x="225" y="345"/>
      <point x="188" y="249" type="curve"/>
      <point x="190" y="216" type="line"/>
      <point x="218" y="287"/>
      <point x="251" y="319"/>
      <point x="291" y="319" type="curve" smooth="yes"/>
      <point x="326" y="319"/>
      <point x="344" y="289"/>
      <point x="344" y="231" type="curve" smooth="yes"/>
      <point x="344" y="115"/>
      <point x="313" y="40"/>
      <point x="260" y="40" type="curve" smooth="yes"/>
      <point x="225" y="40"/>
      <point x="207" y="74"/>
      <point x="207" y="141" type="curve" smooth="yes"/>
      <point x="207" y="319"/>
      <point x="284" y="552"/>
      <point x="522" y="631" type="curve"/>
      <point x="529" y="670" type="line"/>
      <point x="229" y="623"/>
      <point x="37" y="437"/>
      <point x="37" y="204" type="curve" smooth="yes"/>
      <point x="37" y="67"/>
      <point x="123" y="-10"/>
    </contour>
  </outline>
</glyph>
<glyph name="seven" format="1">
  <advance width="600"/>
  <unicode hex="0037"/>
  <outline>
    <contour>
      <point x="89" y="0" type="curve"/>
      <point x="232" y="0" type="line"/>
      <point x="306" y="204"/>
      <point x="437" y="423"/>
      <point x="558" y="610" type="curve"/>
      <point x="567" y="660" type="line"/>
      <point x="144" y="660" type="line"/>
      <point x="117" y="500" type="line"/>
      <point x="464" y="500" type="line"/>
      <point x="530" y="626" type="line"/>
      <point x="332" y="364"/>
      <point x="170" y="143"/>
    </contour>
  </outline>
</glyph>
<glyph name="eight" format="1">
  <advance width="600"/>
  <unicode hex="0038"/>
  <outline>
    <contour>
      <point x="243" y="-10" type="curve" smooth="yes"/>
      <point x="391.126436782" y="-10.0"/>
      <point x="506.0" y="70.0"/>
      <point x="506" y="205" type="curve" smooth="yes"/>
      <point x="506" y="275"/>
      <point x="471.757369027" y="333.328160091"/>
      <point x="371" y="393" type="curve" smooth="yes"/>
      <point x="279.187943461" y="447.446684692"/>
      <point x="267.0" y="489.055555556"/>
      <point x="267" y="526" type="curve" smooth="yes"/>
      <point x="267.0" y="577.333333333"/>
      <point x="294.0" y="624.0"/>
      <point x="352" y="624" type="curve" smooth="yes"/>
      <point x="394.0" y="624.0"/>
      <point x="425.0" y="595.0"/>
      <point x="425" y="541" type="curve" smooth="yes"/>
      <point x="425.0" y="479.0"/>
      <point x="413.42774446" y="450.17841328"/>
      <point x="351" y="398" type="curve"/>
      <point x="374" y="368" type="line"/>
      <point x="469" y="396"/>
      <point x="539" y="443"/>
      <point x="539" y="521" type="curve" smooth="yes"/>
      <point x="539" y="609"/>
      <point x="466" y="670"/>
      <point x="346" y="670" type="curve" smooth="yes"/>
      <point x="208" y="670"/>
      <point x="108.0" y="577.869346734"/>
      <point x="108" y="464" type="curve" smooth="yes"/>
      <point x="108.0" y="397.698324022"/>
      <point x="135.254625092" y="345.54112494"/>
      <point x="218" y="292" type="curve" smooth="yes"/>
      <point x="326.540793113" y="224.162004304"/>
      <point x="346.0" y="194.079268293"/>
      <point x="346" y="133" type="curve" smooth="yes"/>
      <point x="346.0" y="72.902173913"/>
      <point x="304.723404255" y="36.0"/>
      <point x="249" y="36" type="curve" smooth="yes"/>
      <point x="193.0" y="36.0"/>
      <point x="154.0" y="74.972972973"/>
      <point x="154" y="139" type="curve" smooth="yes"/>
      <point x="154.0" y="217.846153846"/>
      <point x="173.873534747" y="249.202636352"/>
      <point x="234" y="303" type="curve"/>
      <point x="230" y="340" type="line"/>
      <point x="113.062764736" y="290.450324041"/>
      <point x="31.0" y="236.682242991"/>
      <point x="31" y="139" type="curve" smooth="yes"/>
      <point x="31.0" y="46.9705882353"/>
      <point x="109.261682243" y="-10.0"/>
    </contour>
  </outline>
</glyph>
<glyph name="nine" format="1">
  <advance width="600"/>
  <unicode hex="0039"/>
  <outline>
    <contour>
      <point x="44" y="-10" type="line"/>
      <point x="340" y="39"/>
      <point x="536" y="223"/>
      <point x="536" y="456" type="curve" smooth="yes"/>
      <point x="536" y="593"/>
      <point x="450" y="670"/>
      <point x="315" y="670" type="curve" smooth="yes"/>
      <point x="157" y="670"/>
      <point x="59" y="579"/>
      <point x="59" y="430" type="curve" smooth="yes"/>
      <point x="59" y="333"/>
      <point x="106" y="262"/>
      <point x="209" y="262" type="curve" smooth="yes"/>
      <point x="287" y="262"/>
      <point x="348" y="315"/>
      <point x="385" y="411" type="curve"/>
      <point x="383" y="444" type="line"/>
      <point x="355" y="373"/>
      <point x="322" y="341"/>
      <point x="282" y="341" type="curve" smooth="yes"/>
      <point x="247" y="341"/>
      <point x="229" y="371"/>
      <point x="229" y="429" type="curve" smooth="yes"/>
      <point x="229" y="545"/>
      <point x="260" y="620"/>
      <point x="313" y="620" type="curve" smooth="yes"/>
      <point x="348" y="620"/>
      <point x="366" y="586"/>
      <point x="366" y="519" type="curve" smooth="yes"/>
      <point x="366" y="341"/>
      <point x="289" y="108"/>
      <point x="51" y="29" type="curve"/>
    </contour>
  </outline>
</glyph>
<glyph name="less" format="1">
  <advance width="600"/>
  <unicode hex="003C"/>
  <outline>
    <contour>
      <point x="451" y="62" type="line"/>
      <point x="462" y="122" type="line"/>
      <point x="104" y="294" type="line"/>
      <point x="94" y="244" type="line"/>
      <point x="514" y="416" type="line"/>
      <point x="525" y="482" type="line"/>
      <point x="73" y="297" type="line"/>
      <point x="65" y="247" type="line"/>
    </contour>
  </outline>
</glyph>
<glyph name="equal" format="1">
  <advance width="600"/>
  <unicode hex="003D"/>
  <outline>
    <contour>
      <point x="482" y="142" type="line"/>
      <point x="492" y="198" type="line"/>
      <point x="72" y="198" type="line"/>
      <point x="62" y="142" type="line"/>
    </contour>
    <contour>
      <point x="518" y="346" type="line"/>
      <point x="528" y="402" type="line"/>
      <point x="108" y="402" type="line"/>
      <point x="98" y="346" type="line"/>
    </contour>
  </outline>
</glyph>
<glyph name="greater" format="1">
  <advance width="600"/>
  <unicode hex="003E"/>
  <outline>
    <contour>
      <point x="139" y="482" type="line"/>
      <point x="128" y="422" type="line"/>
      <point x="486" y="250" type="line"/>
      <point x="496" y="300" type="line"/>
      <point x="76" y="128" type="line"/>
      <point x="65" y="62" type="line"/>
      <point x="517" y="247" type="line"/>
      <point x="525" y="297" type="line"/>
    </contour>
  </outline>
</glyph>
<glyph name="question" format="2">
  <advance width="393"/>
  <unicode hex="003F"/>
  <outline>
    <contour>
      <point x="138" y="230" type="curve"/>
      <point x="173" y="230" type="line"/>
      <point x="168" y="240"/>
      <point x="164" y="250"/>
      <point x="164" y="265" type="curve" smooth="yes"/>
      <point x="164" y="300"/>
      <point x="180" y="320"/>
      <point x="265" y="350" type="curve" smooth="yes"/>
      <point x="350" y="380"/>
      <point x="378" y="422"/>
      <point x="378" y="486" type="curve" smooth="yes"/>
      <point x="378" y="576"/>
      <point x="276" y="670"/>
      <point x="143" y="670" type="curve" smooth="yes"/>
      <point x="94" y="670"/>
      <point x="62" y="650"/>
      <point x="62" y="623" type="curve" smooth="yes"/>
      <point x="62" y="619"/>
      <point x="63" y="610"/>
      <point x="67" y="596" type="curve" smooth="yes"/>
      <point x="85" y="538" type="line"/>
      <point x="290" y="584" type="line"/>
      <point x="259" y="595" type="line"/>
      <point x="290" y="576"/>
      <point x="308" y="551"/>
      <point x="308" y="524" type="curve" smooth="yes"/>
      <point x="308" y="499"/>
      <point x="287" y="482"/>
      <point x="207" y="455" type="curve" smooth="yes"/>
      <point x="127" y="428"/>
      <point x="97" y="381"/>
      <point x="97" y="325" type="curve" smooth="yes"/>
      <point x="97" y="295"/>
      <point x="108" y="268"/>
    </contour>
    <contour>
      <point x="132" y="-5" type="curve" smooth="yes"/>
      <point x="179" y="-5"/>
      <point x="210" y="36"/>
      <point x="210" y="79" type="curve" smooth="yes"/>
      <point x="210" y="116"/>
      <point x="191" y="143"/>
      <point x="148" y="143" type="curve" smooth="yes"/>
      <point x="102" y="143"/>
      <point x="70" y="102"/>
      <point x="70" y="59" type="curve" smooth="yes"/>
      <point x="70" y="22"/>
      <point x="89" y="-5"/>
    </contour>
  </outline>
</glyph>
<glyph name="at" format="2">
  <advance width="804"/>
  <unicode hex="0040"/>
  <outline>
    <contour>
      <point x="366" y="-118" type="curve" smooth="yes"/>
      <point x="473" y="-118"/>
      <point x="543" y="-94"/>
      <point x="613" y="-50" type="curve"/>
      <point x="601" y="-27" type="line"/>
      <point x="545" y="-63"/>
      <point x="480" y="-82"/>
      <point x="393" y="-82" type="curve" smooth="yes"/>
      <point x="240" y="-82"/>
      <point x="136" y="26"/>
      <point x="136" y="195" type="curve" smooth="yes"/>
      <point x="136" y="385"/>
      <point x="234" y="529"/>
      <point x="445" y="529" type="curve" smooth="yes"/>
      <point x="615" y="529"/>
      <point x="709" y="402"/>
      <point x="709" y="259" type="curve" smooth="yes"/>
      <point x="709" y="151"/>
      <point x="658" y="78"/>
      <point x="604" y="78" type="curve" smooth="yes"/>
      <point x="569" y="78"/>
      <point x="557" y="98"/>
      <point x="565" y="141" type="curve" smooth="yes"/>
      <point x="615" y="420" type="line"/>
      <point x="601" y="420" type="line"/>
      <point x="523" y="398" type="line"/>
      <point x="553" y="400" type="line"/>
      <point x="536" y="419"/>
      <point x="509" y="429"/>
      <point x="473" y="429" type="curve" smooth="yes"/>
      <point x="351" y="429"/>
      <point x="203" y="305"/>
      <point x="203" y="127" type="curve" smooth="yes"/>
      <point x="203" y="60"/>
      <point x="237" y="21"/>
      <point x="284" y="21" type="curve" smooth="yes"/>
      <point x="341" y="21"/>
      <point x="375" y="46"/>
      <point x="434" y="124" type="curve"/>
      <point x="439" y="165" type="line"/>
      <point x="415" y="134"/>
      <point x="397" y="113"/>
      <point x="374" y="113" type="curve" smooth="yes"/>
      <point x="355" y="113"/>
      <point x="347" y="133"/>
      <point x="347" y="181" type="curve" smooth="yes"/>
      <point x="347" y="290"/>
      <point x="386" y="386"/>
      <point x="439" y="386" type="curve" smooth="yes"/>
      <point x="455" y="386"/>
      <point x="468" y="381"/>
      <point x="477" y="371" type="curve"/>
      <point x="470" y="381" type="line"/>
      <point x="432" y="157" type="line" smooth="yes"/>
      <point x="419" y="79"/>
      <point x="469" y="20"/>
      <point x="553" y="20" type="curve" smooth="yes"/>
      <point x="659" y="20"/>
      <point x="743" y="117"/>
      <point x="743" y="255" type="curve" smooth="yes"/>
      <point x="743" y="422"/>
      <point x="634" y="562"/>
      <point x="436" y="562" type="curve" smooth="yes"/>
      <point x="212" y="562"/>
      <point x="52" y="391"/>
      <point x="52" y="178" type="curve" smooth="yes"/>
      <point x="52" y="5"/>
      <point x="178" y="-118"/>
    </contour>
  </outline>
</glyph>
<glyph name="A" format="1">
  <advance width="719.0"/>
  <unicode hex="0041"/>
  <outline>
    <contour>
      <point x="-45" y="0" type="line"/>
      <point x="149" y="0" type="line"/>
      <point x="153" y="16" type="line"/>
      <point x="70" y="56" type="line"/>
      <point x="70" y="28" type="line"/>
      <point x="355" y="539" type="line"/>
      <point x="315" y="539" type="line"/>
      <point x="416" y="28" type="line"/>
      <point x="433" y="62" type="line"/>
      <point x="327" y="16" type="line"/>
      <point x="324" y="0" type="line"/>
      <point x="648" y="0" type="line"/>
      <point x="651" y="16" type="line"/>
      <point x="574" y="62" type="line"/>
      <point x="599" y="28" type="line"/>
      <point x="467" y="665" type="line"/>
      <point x="364" y="665" type="line"/>
      <point x="4" y="28" type="line"/>
      <point x="37" y="59" type="line"/>
      <point x="-42" y="16" type="line"/>
    </contour>
    <contour>
      <point x="139" y="207" type="line"/>
      <point x="490" y="207" type="line"/>
      <point x="501" y="262" type="line"/>
      <point x="150" y="262" type="line"/>
    </contour>
    <contour>
      <point x="421.0" y="710.0" type="move" name="top"/>
    </contour>
    <contour>
      <point x="516.0" y="0.0" type="move" name="right"/>
    </contour>
    <contour>
      <point x="252" y="0" type="move" name="bottom"/>
    </contour>
  </outline>
</glyph>
<glyph name="B" format="1">
  <advance width="678"/>
  <unicode hex="0042"/>
  <outline>
    <contour>
      <point x="-30" y="0" type="line"/>
      <point x="221" y="0" type="line"/>
      <point x="337" y="660" type="line"/>
      <point x="86" y="660" type="line"/>
      <point x="83" y="644" type="line"/>
      <point x="156" y="602" type="line"/>
      <point x="60" y="58" type="line"/>
      <point x="-27" y="16" type="line"/>
    </contour>
    <contour>
      <point x="329" y="0" type="line" smooth="yes"/>
      <point x="523" y="0"/>
      <point x="623" y="102"/>
      <point x="623" y="207" type="curve" smooth="yes"/>
      <point x="623" y="304"/>
      <point x="540" y="363"/>
      <point x="378" y="363" type="curve"/>
      <point x="367" y="348" type="line"/>
      <point x="521" y="348"/>
      <point x="623" y="434"/>
      <point x="623" y="523" type="curve" smooth="yes"/>
      <point x="623" y="615"/>
      <point x="530" y="660"/>
      <point x="401" y="660" type="curve" smooth="yes"/>
      <point x="263" y="660" type="line"/>
      <point x="252" y="605" type="line"/>
      <point x="342" y="605" type="line" smooth="yes"/>
      <point x="421" y="605"/>
      <point x="447" y="567"/>
      <point x="447" y="498" type="curve" smooth="yes"/>
      <point x="447" y="423"/>
      <point x="395" y="363"/>
      <point x="307" y="363" type="curve" smooth="yes"/>
      <point x="212" y="363" type="line"/>
      <point x="202" y="318" type="line"/>
      <point x="322" y="318" type="line" smooth="yes"/>
      <point x="406" y="318"/>
      <point x="440" y="280"/>
      <point x="440" y="205" type="curve" smooth="yes"/>
      <point x="440" y="130"/>
      <point x="396" y="55"/>
      <point x="293" y="55" type="curve" smooth="yes"/>
      <point x="157" y="55" type="line"/>
      <point x="147" y="0" type="line"/>
    </contour>
  </outline>
</glyph>
<glyph name="C" format="1">
  <advance width="662.0"/>
  <unicode hex="0043"/>
  <outline>
    <contour>
      <point x="329" y="-10" type="curve" smooth="yes"/>
      <point x="408" y="-10"/>
      <point x="495" y="10"/>
      <point x="546" y="44" type="curve"/>
      <point x="588" y="219" type="line"/>
      <point x="570" y="219" type="line"/>
      <point x="442" y="64" type="line"/>
      <point x="411" y="48"/>
      <point x="381" y="43"/>
      <point x="352" y="43" type="curve" smooth="yes"/>
      <point x="266" y="43"/>
      <point x="217" y="119"/>
      <point x="217" y="234" type="curve" smooth="yes"/>
      <point x="217" y="451"/>
      <point x="314" y="622"/>
      <point x="437" y="622" type="curve" smooth="yes"/>
      <point x="468" y="622"/>
      <point x="486" y="618"/>
      <point x="503" y="607" type="curve"/>
      <point x="583" y="428" type="line"/>
      <point x="601" y="428" type="line"/>
      <point x="618" y="622" type="line"/>
      <point x="574" y="649"/>
      <point x="533" y="670"/>
      <point x="452" y="670" type="curve" smooth="yes"/>
      <point x="220" y="670"/>
      <point x="40" y="473"/>
      <point x="40" y="260" type="curve" smooth="yes"/>
      <point x="40" y="104"/>
      <point x="152" y="-10"/>
    </contour>
    <contour>
      <point x="434" y="710" type="move" name="top"/>
    </contour>
    <contour>
      <point x="330" y="0" type="move" name="bottom"/>
    </contour>
  </outline>
</glyph>
<glyph name="D" format="1">
  <advance width="757"/>
  <unicode hex="0044"/>
  <outline>
    <contour>
      <point x="-30" y="0" type="line"/>
      <point x="217" y="0" type="line"/>
      <point x="334" y="660" type="line"/>
      <point x="86" y="660" type="line"/>
      <point x="83" y="644" type="line"/>
      <point x="152" y="604" type="line"/>
      <point x="56" y="56" type="line"/>
      <point x="-27" y="16" type="line"/>
    </contour>
    <contour>
      <point x="285" y="0" type="line" smooth="yes"/>
      <point x="523" y="0"/>
      <point x="717" y="160"/>
      <point x="717" y="375" type="curve" smooth="yes"/>
      <point x="717.0" y="547.0"/>
      <point x="594.709090909" y="660"/>
      <point x="375" y="660" type="curve" smooth="yes"/>
      <point x="292" y="660" type="line"/>
      <point x="283" y="607" type="line"/>
      <point x="348" y="607" type="line" smooth="yes"/>
      <point x="467" y="607"/>
      <point x="541.0" y="523.0"/>
      <point x="541" y="387" type="curve" smooth="yes"/>
      <point x="541" y="186"/>
      <point x="431" y="48"/>
      <point x="298" y="48" type="curve" smooth="yes"/>
      <point x="172" y="48" type="line"/>
      <point x="159" y="0" type="line"/>
    </contour>
    <contour>
      <point x="403" y="710" type="move" name="top"/>
    </contour>
    <contour>
      <point x="313" y="0" type="move" name="bottom"/>
    </contour>
  </outline>
</glyph>
<glyph name="E" format="2">
  <advance width="624"/>
  <unicode hex="0045"/>
  <anchor x="385.0" y="710.0" name="top"/>
  <anchor x="436.0" y="0.0" name="right"/>
  <anchor x="289.0" y="0.0" name="bottom"/>
  <outline>
    <contour>
      <point x="-30" y="0" type="line"/>
      <point x="221" y="0" type="line"/>
      <point x="337" y="660" type="line"/>
      <point x="86" y="660" type="line"/>
      <point x="83" y="644" type="line"/>
      <point x="156" y="602" type="line"/>
      <point x="60" y="58" type="line"/>
      <point x="-27" y="16" type="line"/>
    </contour>
    <contour>
      <point x="564" y="486" type="line"/>
      <point x="579" y="486" type="line"/>
      <point x="609" y="660" type="line"/>
      <point x="245" y="660" type="line"/>
      <point x="235" y="605" type="line"/>
      <point x="511" y="605" type="line"/>
    </contour>
    <contour>
      <point x="444" y="232" type="line"/>
      <point x="460" y="232" type="line"/>
      <point x="499" y="451" type="line"/>
      <point x="483" y="451" type="line"/>
      <point x="405" y="363" type="line"/>
      <point x="210" y="363" type="line"/>
      <point x="202" y="318" type="line"/>
      <point x="397" y="318" type="line"/>
    </contour>
    <contour>
      <point x="519" y="0" type="line"/>
      <point x="558" y="219" type="line"/>
      <point x="542" y="219" type="line"/>
      <point x="431" y="55" type="line"/>
      <point x="161" y="55" type="line"/>
      <point x="154" y="0" type="line"/>
    </contour>
  </outline>
</glyph>
<glyph name="F" format="1">
  <advance width="600.0"/>
  <unicode hex="0046"/>
  <outline>
    <contour>
      <point x="-30" y="0" type="line"/>
      <point x="330" y="0" type="line"/>
      <point x="333" y="16" type="line"/>
      <point x="231" y="58" type="line"/>
      <point x="337" y="660" type="line"/>
      <point x="86" y="660" type="line"/>
      <point x="83" y="644" type="line"/>
      <point x="156" y="602" type="line"/>
      <point x="60" y="58" type="line"/>
      <point x="-27" y="16" type="line"/>
    </contour>
    <contour>
      <point x="559" y="486" type="line"/>
      <point x="575" y="486" type="line"/>
      <point x="605" y="660" type="line"/>
      <point x="245" y="660" type="line"/>
      <point x="235" y="605" type="line"/>
      <point x="507" y="605" type="line"/>
    </contour>
    <contour>
      <point x="440" y="232" type="line"/>
      <point x="456" y="232" type="line"/>
      <point x="495" y="451" type="line"/>
      <point x="479" y="451" type="line"/>
      <point x="401" y="363" type="line"/>
      <point x="206" y="363" type="line"/>
      <point x="198" y="318" type="line"/>
      <point x="393" y="318" type="line"/>
    </contour>
  </outline>
</glyph>
<glyph name="G" format="2">
  <advance width="690"/>
  <unicode hex="0047"/>
  <anchor x="447" y="710" name="top"/>
  <anchor x="315" y="0" name="bottom"/>
  <outline>
    <contour>
      <point x="305" y="-10" type="curve" smooth="yes"/>
      <point x="382" y="-10"/>
      <point x="493" y="23"/>
      <point x="557" y="74" type="curve"/>
      <point x="586" y="239" type="line"/>
      <point x="666" y="291" type="line"/>
      <point x="669" y="307" type="line"/>
      <point x="347" y="307" type="line"/>
      <point x="344" y="291" type="line"/>
      <point x="415" y="239" type="line"/>
      <point x="377" y="22" type="line"/>
      <point x="489" y="83" type="line"/>
      <point x="444" y="59"/>
      <point x="380" y="49"/>
      <point x="342" y="49" type="curve" smooth="yes"/>
      <point x="267" y="49"/>
      <point x="216" y="118"/>
      <point x="216" y="231" type="curve" smooth="yes"/>
      <point x="216" y="428"/>
      <point x="327" y="622"/>
      <point x="457" y="622" type="curve" smooth="yes"/>
      <point x="491" y="622"/>
      <point x="509" y="618"/>
      <point x="533" y="606" type="curve"/>
      <point x="612" y="439" type="line"/>
      <point x="628" y="439" type="line"/>
      <point x="647" y="622" type="line"/>
      <point x="600" y="650"/>
      <point x="556" y="670"/>
      <point x="458" y="670" type="curve" smooth="yes"/>
      <point x="251" y="670"/>
      <point x="40" y="482"/>
      <point x="40" y="258" type="curve" smooth="yes"/>
      <point x="40" y="103"/>
      <point x="151" y="-10"/>
    </contour>
  </outline>
</glyph>
<glyph name="I" format="1">
  <advance width="387"/>
  <unicode hex="0049"/>
  <outline>
    <contour>
      <point x="-30" y="0" type="line"/>
      <point x="301" y="0" type="line"/>
      <point x="304" y="16" type="line"/>
      <point x="231" y="58" type="line"/>
      <point x="327" y="602" type="line"/>
      <point x="414" y="644" type="line"/>
      <point x="417" y="660" type="line"/>
      <point x="86" y="660" type="line"/>
      <point x="83" y="644" type="line"/>
      <point x="156" y="602" type="line"/>
      <point x="60" y="58" type="line"/>
      <point x="-27" y="16" type="line"/>
    </contour>
    <contour>
      <point x="260" y="710" type="move" name="top"/>
    </contour>
    <contour>
      <point x="152" y="0" type="move" name="right"/>
    </contour>
    <contour>
      <point x="135" y="0" type="move" name="bottom"/>
    </contour>
  </outline>
</glyph>
<glyph name="J" format="2">
  <advance width="397"/>
  <unicode hex="004A"/>
  <anchor x="279" y="710" name="top"/>
  <outline>
    <contour>
      <point x="-38" y="-173" type="curve" smooth="yes"/>
      <point x="-7" y="-173"/>
      <point x="17" y="-167"/>
      <point x="116" y="-66" type="curve" smooth="yes"/>
      <point x="215" y="35"/>
      <point x="261" y="128"/>
      <point x="280" y="229" type="curve" smooth="yes"/>
      <point x="349" y="602" type="line"/>
      <point x="427" y="644" type="line"/>
      <point x="429" y="660" type="line"/>
      <point x="97" y="660" type="line"/>
      <point x="95" y="644" type="line"/>
      <point x="178" y="602" type="line"/>
      <point x="87" y="87" type="line" smooth="yes"/>
      <point x="63" y="-47"/>
      <point x="39" y="-80"/>
      <point x="-8" y="-97" type="curve"/>
      <point x="64" y="-81" type="line"/>
      <point x="-64" y="-55" type="line"/>
      <point x="-83" y="-122" type="line" smooth="yes"/>
      <point x="-85" y="-128"/>
      <point x="-86" y="-134"/>
      <point x="-86" y="-139" type="curve" smooth="yes"/>
      <point x="-86" y="-161"/>
      <point x="-70" y="-173"/>
    </contour>
  </outline>
</glyph>
<glyph name="K" format="1">
  <advance width="734"/>
  <unicode hex="004B"/>
  <outline>
    <contour>
      <point x="-30" y="0" type="line"/>
      <point x="301" y="0" type="line"/>
      <point x="305" y="16" type="line"/>
      <point x="231" y="58" type="line"/>
      <point x="327" y="602" type="line"/>
      <point x="414" y="644" type="line"/>
      <point x="418" y="660" type="line"/>
      <point x="86" y="660" type="line"/>
      <point x="83" y="644" type="line"/>
      <point x="156" y="602" type="line"/>
      <point x="60" y="58" type="line"/>
      <point x="-27" y="16" type="line"/>
    </contour>
    <contour>
      <point x="460" y="0" type="line"/>
      <point x="683" y="0" type="line"/>
      <point x="686" y="16" type="line"/>
      <point x="630" y="52" type="line"/>
      <point x="416" y="416" type="line"/>
      <point x="368" y="338" type="line"/>
      <point x="682" y="632" type="line"/>
      <point x="610" y="597" type="line"/>
      <point x="730" y="644" type="line"/>
      <point x="734" y="660" type="line"/>
      <point x="508" y="660" type="line"/>
      <point x="505" y="644" type="line"/>
      <point x="591" y="597" type="line"/>
      <point x="594" y="632" type="line"/>
      <point x="282" y="331" type="line"/>
    </contour>
    <contour>
      <point x="454" y="710" type="move" name="top"/>
    </contour>
    <contour>
      <point x="340" y="0" type="move" name="bottom"/>
    </contour>
  </outline>
</glyph>
<glyph name="L" format="1">
  <advance width="570.0"/>
  <unicode hex="004C"/>
  <outline>
    <contour>
      <point x="-30" y="0" type="line"/>
      <point x="489" y="0" type="line"/>
      <point x="535" y="245" type="line"/>
      <point x="519" y="245" type="line"/>
      <point x="395" y="55" type="line"/>
      <point x="230" y="55" type="line"/>
      <point x="327" y="602" type="line"/>
      <point x="424" y="644" type="line"/>
      <point x="427" y="660" type="line"/>
      <point x="86" y="660" type="line"/>
      <point x="83" y="644" type="line"/>
      <point x="156" y="602" type="line"/>
      <point x="60" y="58" type="line"/>
      <point x="-27" y="16" type="line"/>
    </contour>
    <contour>
      <point x="260" y="710" type="move" name="top"/>
    </contour>
    <contour>
      <point x="530" y="660" type="move" name="right"/>
    </contour>
    <contour>
      <point x="484" y="355" type="move" name="mid"/>
    </contour>
    <contour>
      <point x="263" y="0" type="move" name="bottom"/>
    </contour>
  </outline>
</glyph>
<glyph name="M" format="1">
  <advance width="941"/>
  <unicode hex="004D"/>
  <outline>
    <contour>
      <point x="-30" y="0" type="line"/>
      <point x="199" y="0" type="line"/>
      <point x="203" y="16" type="line"/>
      <point x="126" y="57" type="line"/>
      <point x="245" y="642" type="line"/>
      <point x="183" y="642" type="line"/>
      <point x="60" y="58" type="line"/>
      <point x="-27" y="16" type="line"/>
    </contour>
    <contour>
      <point x="340" y="-5" type="line"/>
      <point x="397" y="-5" type="line"/>
      <point x="725" y="593" type="line"/>
      <point x="835" y="593" type="line"/>
      <point x="938" y="644" type="line"/>
      <point x="941" y="660" type="line"/>
      <point x="690" y="660" type="line"/>
      <point x="436" y="189" type="line"/>
      <point x="473" y="189" type="line"/>
      <point x="365" y="660" type="line"/>
      <point x="99" y="660" type="line"/>
      <point x="96" y="644" type="line"/>
      <point x="194" y="593" type="line"/>
      <point x="204" y="593" type="line"/>
    </contour>
    <contour>
      <point x="538" y="0" type="line"/>
      <point x="855" y="0" type="line"/>
      <point x="858" y="16" type="line"/>
      <point x="792" y="58" type="line"/>
      <point x="858" y="642" type="line"/>
      <point x="689" y="642" type="line"/>
      <point x="622" y="57" type="line"/>
      <point x="541" y="16" type="line"/>
    </contour>
    <contour>
      <point x="368" y="0" type="move" name="bottom"/>
    </contour>
  </outline>
</glyph>
<glyph name="N" format="1">
  <advance width="751"/>
  <unicode hex="004E"/>
  <outline>
    <contour>
      <point x="-25" y="0" type="line"/>
      <point x="238" y="0" type="line"/>
      <point x="241" y="16" type="line"/>
      <point x="137" y="58" type="line"/>
      <point x="214" y="495" type="line"/>
      <point x="186" y="495" type="line"/>
      <point x="508" y="-5" type="line"/>
      <point x="586" y="-5" type="line"/>
      <point x="693" y="602" type="line"/>
      <point x="778" y="644" type="line"/>
      <point x="781" y="660" type="line"/>
      <point x="520" y="660" type="line"/>
      <point x="517" y="644" type="line"/>
      <point x="621" y="602" type="line"/>
      <point x="546" y="176" type="line"/>
      <point x="592" y="176" type="line"/>
      <point x="286" y="660" type="line"/>
      <point x="91" y="660" type="line"/>
      <point x="88" y="644" type="line"/>
      <point x="161" y="602" type="line"/>
      <point x="65" y="58" type="line"/>
      <point x="-22" y="16" type="line"/>
    </contour>
    <contour>
      <point x="447" y="710" type="move" name="top"/>
    </contour>
    <contour>
      <point x="331" y="0" type="move" name="bottom"/>
    </contour>
  </outline>
</glyph>
<glyph name="P" format="1">
  <advance width="646.0"/>
  <unicode hex="0050"/>
  <outline>
    <contour>
      <point x="-30" y="0" type="line"/>
      <point x="322" y="0" type="line"/>
      <point x="325" y="16" type="line"/>
      <point x="231" y="58" type="line"/>
      <point x="326" y="605" type="line"/>
      <point x="342" y="605" type="line" smooth="yes"/>
      <point x="419" y="605"/>
      <point x="461" y="566"/>
      <point x="461" y="499" type="curve" smooth="yes"/>
      <point x="461" y="412"/>
      <point x="417" y="341"/>
      <point x="316" y="341" type="curve" smooth="yes"/>
      <point x="173" y="341" type="line"/>
      <point x="163" y="296" type="line"/>
      <point x="303" y="296" type="line" smooth="yes"/>
      <point x="536" y="296"/>
      <point x="641" y="389"/>
      <point x="641" y="504" type="curve" smooth="yes"/>
      <point x="641" y="606"/>
      <point x="562" y="660"/>
      <point x="383" y="660" type="curve" smooth="yes"/>
      <point x="86" y="660" type="line"/>
      <point x="83" y="644" type="line"/>
      <point x="156" y="602" type="line"/>
      <point x="60" y="58" type="line"/>
      <point x="-27" y="16" type="line"/>
    </contour>
  </outline>
</glyph>
<glyph name="Q" format="1">
  <advance width="779"/>
  <unicode hex="0051"/>
  <outline>
    <contour>
      <point x="339" y="-10" type="curve" smooth="yes"/>
      <point x="575" y="-10"/>
      <point x="739" y="166"/>
      <point x="739" y="390" type="curve" smooth="yes"/>
      <point x="739" y="555"/>
      <point x="632" y="670"/>
      <point x="439" y="670" type="curve" smooth="yes"/>
      <point x="215" y="670"/>
      <point x="40" y="494"/>
      <point x="40" y="271" type="curve" smooth="yes"/>
      <point x="40" y="105"/>
      <point x="145" y="-10"/>
    </contour>
    <contour>
      <point x="349" y="42" type="curve" smooth="yes"/>
      <point x="263" y="42"/>
      <point x="221" y="125"/>
      <point x="221" y="245" type="curve" smooth="yes"/>
      <point x="221" y="445"/>
      <point x="313" y="617"/>
      <point x="431" y="617" type="curve" smooth="yes"/>
      <point x="526" y="617"/>
      <point x="558" y="535"/>
      <point x="558" y="416" type="curve" smooth="yes"/>
      <point x="558" y="214"/>
      <point x="475" y="42"/>
    </contour>
    <contour>
      <point x="612" y="-149" type="curve" smooth="yes"/>
      <point x="663" y="-149"/>
      <point x="705" y="-138"/>
      <point x="735" y="-122" type="curve"/>
      <point x="744" y="-93" type="line"/>
      <point x="730" y="-98"/>
      <point x="706" y="-103"/>
      <point x="682" y="-103" type="curve" smooth="yes"/>
      <point x="618" y="-103"/>
      <point x="568" y="-85"/>
      <point x="442" y="16" type="curve"/>
      <point x="244" y="16" type="line"/>
      <point x="376" y="-115"/>
      <point x="533" y="-149"/>
    </contour>
  </outline>
</glyph>
<glyph name="R" format="2">
  <advance width="725"/>
  <unicode hex="0052"/>
  <anchor x="369.0" y="710.0" name="top"/>
  <anchor x="300.0" y="0.0" name="bottom"/>
  <outline>
    <contour>
      <point x="-30" y="0" type="line"/>
      <point x="300" y="0" type="line"/>
      <point x="303" y="16" type="line"/>
      <point x="230" y="58" type="line"/>
      <point x="335" y="660" type="line"/>
      <point x="85" y="660" type="line"/>
      <point x="82" y="644" type="line"/>
      <point x="155" y="602" type="line"/>
      <point x="59" y="58" type="line"/>
      <point x="-28" y="16" type="line"/>
    </contour>
    <contour>
      <point x="621.0" y="511.0" type="curve" smooth="yes"/>
      <point x="621.0" y="608.0"/>
      <point x="535.0" y="660.0"/>
      <point x="384.0" y="660.0" type="curve" smooth="yes"/>
      <point x="288.0" y="660.0" type="line"/>
      <point x="278.0" y="605.0" type="line"/>
      <point x="347.0" y="605.0" type="line" smooth="yes"/>
      <point x="417.0" y="605.0"/>
      <point x="450.0" y="571.0"/>
      <point x="450.0" y="499.0" type="curve" smooth="yes"/>
      <point x="450.0" y="419.0"/>
      <point x="400.0" y="353.0"/>
      <point x="314.0" y="353.0" type="curve" smooth="yes"/>
      <point x="246.0" y="353.0" type="line"/>
      <point x="238.0" y="308.0" type="line"/>
      <point x="372.0" y="308.0" type="line"/>
      <point x="372" y="319" type="line"/>
      <point x="523" y="346"/>
      <point x="621.0" y="410.0"/>
    </contour>
    <contour>
      <point x="437" y="0" type="line"/>
      <point x="656" y="0" type="line"/>
      <point x="658" y="16" type="line"/>
      <point x="596" y="59" type="line"/>
      <point x="467" y="351" type="line"/>
      <point x="299" y="351" type="line"/>
    </contour>
  </outline>
</glyph>
<glyph name="S" format="2">
  <advance width="573"/>
  <unicode hex="0053"/>
  <anchor x="380" y="710" name="top"/>
  <anchor x="233" y="0" name="bottom"/>
  <outline>
    <contour>
      <point x="225" y="-10" type="curve" smooth="yes"/>
      <point x="390" y="-10"/>
      <point x="504" y="95"/>
      <point x="504" y="215" type="curve" smooth="yes"/>
      <point x="504" y="302"/>
      <point x="457" y="338"/>
      <point x="365" y="395" type="curve" smooth="yes"/>
      <point x="280" y="448"/>
      <point x="261" y="475"/>
      <point x="261" y="521" type="curve" smooth="yes"/>
      <point x="261" y="573"/>
      <point x="306" y="616"/>
      <point x="366" y="616" type="curve" smooth="yes"/>
      <point x="404" y="616"/>
      <point x="425" y="603"/>
      <point x="444" y="585" type="curve"/>
      <point x="504" y="462" type="line"/>
      <point x="522" y="462" type="line"/>
      <point x="538" y="622" type="line"/>
      <point x="496" y="652"/>
      <point x="435" y="670"/>
      <point x="371" y="670" type="curve" smooth="yes"/>
      <point x="218" y="670"/>
      <point x="104" y="573"/>
      <point x="104" y="453" type="curve" smooth="yes"/>
      <point x="104" y="376"/>
      <point x="135" y="340"/>
      <point x="210" y="292" type="curve" smooth="yes"/>
      <point x="318" y="224"/>
      <point x="350" y="203"/>
      <point x="350" y="144" type="curve" smooth="yes"/>
      <point x="350" y="82"/>
      <point x="291" y="43"/>
      <point x="221" y="43" type="curve" smooth="yes"/>
      <point x="176" y="43"/>
      <point x="146" y="61"/>
      <point x="127" y="76" type="curve"/>
      <point x="66" y="217" type="line"/>
      <point x="48" y="217" type="line"/>
      <point x="30" y="44" type="line"/>
      <point x="82" y="11"/>
      <point x="142" y="-10"/>
    </contour>
  </outline>
</glyph>
<glyph name="T" format="1">
  <advance width="636.0"/>
  <unicode hex="0054"/>
  <outline>
    <contour>
      <point x="79" y="0" type="line"/>
      <point x="448" y="0" type="line"/>
      <point x="451" y="16" type="line"/>
      <point x="358" y="58" type="line"/>
      <point x="456" y="605" type="line"/>
      <point x="573" y="605" type="line"/>
      <point x="621" y="429" type="line"/>
      <point x="637" y="429" type="line"/>
      <point x="676" y="660" type="line"/>
      <point x="84" y="660" type="line"/>
      <point x="45" y="429" type="line"/>
      <point x="61" y="429" type="line"/>
      <point x="168" y="605" type="line"/>
      <point x="285" y="605" type="line"/>
      <point x="187" y="58" type="line"/>
      <point x="82" y="16" type="line"/>
    </contour>
    <contour>
      <point x="387" y="710" type="move" name="top"/>
    </contour>
    <contour>
      <point x="262" y="0" type="move" name="bottom"/>
    </contour>
  </outline>
</glyph>
<glyph name="U" format="2">
  <advance width="747"/>
  <unicode hex="0055"/>
  <anchor x="500" y="710" name="top"/>
  <anchor x="357" y="0" name="right"/>
  <anchor x="335" y="0" name="bottom"/>
  <outline>
    <contour>
      <point x="349" y="-10" type="curve" smooth="yes"/>
      <point x="506" y="-10"/>
      <point x="614" y="67"/>
      <point x="655" y="302" type="curve" smooth="yes"/>
      <point x="707" y="603" type="line"/>
      <point x="795" y="644" type="line"/>
      <point x="798" y="660" type="line"/>
      <point x="574" y="660" type="line"/>
      <point x="571" y="644" type="line"/>
      <point x="645" y="604" type="line"/>
      <point x="585" y="255" type="line" smooth="yes"/>
      <point x="563" y="125"/>
      <point x="483" y="77"/>
      <point x="404" y="77" type="curve" smooth="yes"/>
      <point x="324" y="77"/>
      <point x="263" y="114"/>
      <point x="263" y="223" type="curve" smooth="yes"/>
      <point x="263" y="243"/>
      <point x="265" y="265"/>
      <point x="269" y="290" type="curve" smooth="yes"/>
      <point x="323" y="602" type="line"/>
      <point x="411" y="644" type="line"/>
      <point x="414" y="660" type="line"/>
      <point x="81" y="660" type="line"/>
      <point x="78" y="644" type="line"/>
      <point x="152" y="602" type="line"/>
      <point x="100" y="302" type="line" smooth="yes"/>
      <point x="94" y="268"/>
      <point x="91" y="238"/>
      <point x="91" y="211" type="curve" smooth="yes"/>
      <point x="91" y="47"/>
      <point x="193" y="-10"/>
    </contour>
  </outline>
</glyph>
<glyph name="V" format="1">
  <advance width="684.0"/>
  <unicode hex="0056"/>
  <outline>
    <contour>
      <point x="256" y="-5" type="line"/>
      <point x="345" y="-5" type="line"/>
      <point x="697" y="632" type="line"/>
      <point x="628" y="579" type="line"/>
      <point x="742" y="644" type="line"/>
      <point x="746" y="660" type="line"/>
      <point x="551" y="660" type="line"/>
      <point x="548" y="644" type="line"/>
      <point x="622" y="606" type="line"/>
      <point x="631" y="632" type="line"/>
      <point x="355" y="121" type="line"/>
      <point x="421" y="194" type="line"/>
      <point x="362" y="194" type="line"/>
      <point x="403" y="121" type="line"/>
      <point x="287" y="632" type="line"/>
      <point x="270" y="599" type="line"/>
      <point x="368" y="644" type="line"/>
      <point x="372" y="660" type="line"/>
      <point x="62" y="660" type="line"/>
      <point x="58" y="644" type="line"/>
      <point x="149" y="587" type="line"/>
      <point x="110" y="632" type="line"/>
    </contour>
  </outline>
</glyph>
<glyph name="W" format="1">
  <advance width="954.0"/>
  <unicode hex="0057"/>
  <outline>
    <contour>
      <point x="192" y="-5" type="line"/>
      <point x="281" y="-5" type="line"/>
      <point x="539" y="505" type="line"/>
      <point x="479" y="437" type="line"/>
      <point x="537" y="437" type="line"/>
      <point x="498" y="505" type="line"/>
      <point x="591" y="-5" type="line"/>
      <point x="680" y="-5" type="line"/>
      <point x="957" y="632" type="line"/>
      <point x="901" y="587" type="line"/>
      <point x="1013" y="644" type="line"/>
      <point x="1016" y="660" type="line"/>
      <point x="812" y="660" type="line"/>
      <point x="809" y="644" type="line"/>
      <point x="901" y="600" type="line"/>
      <point x="891" y="632" type="line"/>
      <point x="684" y="141" type="line"/>
      <point x="747" y="238" type="line"/>
      <point x="699" y="238" type="line"/>
      <point x="736" y="141" type="line"/>
      <point x="644" y="665" type="line"/>
      <point x="556" y="665" type="line"/>
      <point x="291" y="141" type="line"/>
      <point x="362" y="235" type="line"/>
      <point x="311" y="235" type="line"/>
      <point x="342" y="141" type="line"/>
      <point x="289" y="632" type="line"/>
      <point x="259" y="593" type="line"/>
      <point x="374" y="644" type="line"/>
      <point x="377" y="660" type="line"/>
      <point x="61" y="660" type="line"/>
      <point x="58" y="644" type="line"/>
      <point x="149" y="593" type="line"/>
      <point x="118" y="632" type="line"/>
    </contour>
    <contour>
      <point x="606" y="710" type="move" name="top"/>
    </contour>
  </outline>
</glyph>
<glyph name="X" format="1">
  <advance width="721.0"/>
  <unicode hex="0058"/>
  <outline>
    <contour>
      <point x="335" y="0" type="line"/>
      <point x="664" y="0" type="line"/>
      <point x="667" y="16" type="line"/>
      <point x="573" y="77" type="line"/>
      <point x="624" y="22" type="line"/>
      <point x="318" y="603" type="line"/>
      <point x="318" y="608" type="line"/>
      <point x="398" y="644" type="line"/>
      <point x="401" y="660" type="line"/>
      <point x="76" y="660" type="line"/>
      <point x="73" y="644" type="line"/>
      <point x="168" y="585" type="line"/>
      <point x="116" y="632" type="line"/>
      <point x="411" y="56" type="line"/>
      <point x="411" y="52" type="line"/>
      <point x="338" y="16" type="line"/>
    </contour>
    <contour>
      <point x="-46" y="0" type="line"/>
      <point x="178" y="0" type="line"/>
      <point x="181" y="16" type="line"/>
      <point x="113" y="55" type="line"/>
      <point x="117" y="59" type="line"/>
      <point x="354" y="313" type="line"/>
      <point x="312" y="348" type="line"/>
      <point x="21" y="38" type="line"/>
      <point x="62" y="67" type="line"/>
      <point x="-43" y="16" type="line"/>
    </contour>
    <contour>
      <point x="747" y="644" type="line"/>
      <point x="750" y="660" type="line"/>
      <point x="531" y="660" type="line"/>
      <point x="528" y="644" type="line"/>
      <point x="597" y="607" type="line"/>
      <point x="596" y="603" type="line"/>
      <point x="383" y="373" type="line"/>
      <point x="416" y="333" type="line"/>
      <point x="699" y="630" type="line"/>
      <point x="626" y="581" type="line"/>
    </contour>
  </outline>
</glyph>
<glyph name="Y" format="1">
  <advance width="690"/>
  <unicode hex="0059"/>
  <outline>
    <contour>
      <point x="135" y="0" type="line"/>
      <point x="466" y="0" type="line"/>
      <point x="469" y="16" type="line"/>
      <point x="396" y="58" type="line"/>
      <point x="448" y="354" type="line"/>
      <point x="404" y="267" type="line"/>
      <point x="711" y="632" type="line"/>
      <point x="638" y="586" type="line"/>
      <point x="759" y="644" type="line"/>
      <point x="762" y="660" type="line"/>
      <point x="549" y="660" type="line"/>
      <point x="545" y="644" type="line"/>
      <point x="613" y="608" type="line"/>
      <point x="612" y="604" type="line"/>
      <point x="400" y="341" type="line"/>
      <point x="430" y="341" type="line"/>
      <point x="290" y="604" type="line"/>
      <point x="291" y="608" type="line"/>
      <point x="370" y="644" type="line"/>
      <point x="374" y="660" type="line"/>
      <point x="62" y="660" type="line"/>
      <point x="58" y="644" type="line"/>
      <point x="141" y="590" type="line"/>
      <point x="99" y="632" type="line"/>
      <point x="290" y="266" type="line"/>
      <point x="277" y="354" type="line"/>
      <point x="225" y="58" type="line"/>
      <point x="138" y="16" type="line"/>
    </contour>
    <contour>
      <point x="466" y="710" type="move" name="top"/>
    </contour>
    <contour>
      <point x="302" y="0" type="move" name="bottom"/>
    </contour>
  </outline>
</glyph>
<glyph name="Z" format="1">
  <advance width="606.0"/>
  <unicode hex="005A"/>
  <outline>
    <contour>
      <point x="-10" y="0" type="line"/>
      <point x="509" y="0" type="line"/>
      <point x="552" y="229" type="line"/>
      <point x="536" y="229" type="line"/>
      <point x="424" y="65" type="line"/>
      <point x="167" y="65" type="line"/>
      <point x="167" y="16" type="line"/>
      <point x="604" y="623" type="line"/>
      <point x="610" y="660" type="line"/>
      <point x="112" y="660" type="line"/>
      <point x="71" y="441" type="line"/>
      <point x="87" y="441" type="line"/>
      <point x="195" y="605" type="line"/>
      <point x="431" y="605" type="line"/>
      <point x="431" y="643" type="line"/>
      <point x="-4" y="37" type="line"/>
    </contour>
    <contour>
      <point x="373" y="710" type="move" name="top"/>
    </contour>
    <contour>
      <point x="263" y="0" type="move" name="bottom"/>
    </contour>
  </outline>
</glyph>
<glyph name="bracketleft" format="1">
  <advance width="285"/>
  <unicode hex="005B"/>
  <outline>
    <contour>
      <point x="25" y="-150" type="line"/>
      <point x="91" y="-150" type="line"/>
      <point x="247" y="740" type="line"/>
      <point x="181" y="740" type="line"/>
    </contour>
    <contour>
      <point x="183" y="740" type="line"/>
      <point x="179" y="717" type="line"/>
      <point x="347" y="717" type="line"/>
      <point x="351" y="740" type="line"/>
    </contour>
    <contour>
      <point x="27" y="-150" type="line"/>
      <point x="195" y="-150" type="line"/>
      <point x="199" y="-127" type="line"/>
      <point x="31" y="-127" type="line"/>
    </contour>
  </outline>
</glyph>
<glyph name="bracketright" format="1">
  <advance width="285"/>
  <unicode hex="005D"/>
  <outline>
    <contour>
      <point x="50" y="-150" type="line"/>
      <point x="116" y="-150" type="line"/>
      <point x="272" y="740" type="line"/>
      <point x="206" y="740" type="line"/>
    </contour>
    <contour>
      <point x="-54" y="-150" type="line"/>
      <point x="114" y="-150" type="line"/>
      <point x="118" y="-127" type="line"/>
      <point x="-50" y="-127" type="line"/>
    </contour>
    <contour>
      <point x="98" y="717" type="line"/>
      <point x="266" y="717" type="line"/>
      <point x="270" y="740" type="line"/>
      <point x="102" y="740" type="line"/>
    </contour>
  </outline>
</glyph>
<glyph name="asciicircum" format="1">
  <advance width="600"/>
  <unicode hex="005E"/>
  <outline>
    <contour>
      <point x="80" y="250" type="line"/>
      <point x="148" y="250" type="line"/>
      <point x="389" y="640" type="line"/>
      <point x="334" y="640" type="line"/>
      <point x="437" y="250" type="line"/>
      <point x="500" y="250" type="line"/>
      <point x="389" y="670" type="line"/>
      <point x="339" y="670" type="line"/>
    </contour>
  </outline>
</glyph>
<glyph name="a" format="1">
  <advance width="562.0"/>
  <unicode hex="0061"/>
  <outline>
    <contour>
      <point x="126" y="-10" type="curve" smooth="yes"/>
      <point x="189" y="-10"/>
      <point x="227" y="16"/>
      <point x="289" y="94" type="curve"/>
      <point x="308" y="94" type="line"/>
      <point x="308" y="160" type="line"/>
      <point x="280" y="123"/>
      <point x="258" y="99"/>
      <point x="231" y="99" type="curve" smooth="yes"/>
      <point x="209" y="99"/>
      <point x="200.0" y="122.0"/>
      <point x="200.0" y="178.0" type="curve" smooth="yes"/>
      <point x="200.0" y="307.0"/>
      <point x="245.0" y="420.0"/>
      <point x="308.0" y="420.0" type="curve" smooth="yes"/>
      <point x="327.0" y="420.0"/>
      <point x="342.0" y="413.0"/>
      <point x="352.0" y="402.0" type="curve"/>
      <point x="344.0" y="414.0" type="line"/>
      <point x="299" y="150" type="line" smooth="yes"/>
      <point x="281" y="43"/>
      <point x="321" y="-10"/>
      <point x="399" y="-10" type="curve" smooth="yes"/>
      <point x="474" y="-10"/>
      <point x="522" y="55"/>
      <point x="558" y="153" type="curve"/>
      <point x="536" y="160" type="line"/>
      <point x="512" y="106"/>
      <point x="493" y="89"/>
      <point x="475" y="89" type="curve" smooth="yes"/>
      <point x="459" y="89"/>
      <point x="453" y="107"/>
      <point x="457" y="131" type="curve" smooth="yes"/>
      <point x="514.0" y="460.0" type="line"/>
      <point x="498.0" y="460.0" type="line"/>
      <point x="406.0" y="433.0" type="line"/>
      <point x="442.0" y="436.0" type="line"/>
      <point x="422.0" y="458.0"/>
      <point x="390.0" y="470.0"/>
      <point x="348.0" y="470.0" type="curve" smooth="yes"/>
      <point x="204.0" y="470.0"/>
      <point x="30.0" y="324.0"/>
      <point x="30.0" y="115.0" type="curve" smooth="yes"/>
      <point x="30.0" y="36.0"/>
      <point x="70" y="-10"/>
    </contour>
    <contour>
      <point x="353" y="510" type="move" name="top"/>
    </contour>
    <contour>
      <point x="462" y="0" type="move" name="right"/>
    </contour>
    <contour>
      <point x="262" y="0" type="move" name="bottom"/>
    </contour>
  </outline>
</glyph>
<glyph name="b" format="1">
  <advance width="528.0"/>
  <unicode hex="0062"/>
  <outline>
    <contour>
      <point x="230" y="-10" type="curve" smooth="yes"/>
      <point x="374" y="-10"/>
      <point x="498" y="135"/>
      <point x="498" y="321" type="curve" smooth="yes"/>
      <point x="498" y="414"/>
      <point x="453" y="470"/>
      <point x="389" y="470" type="curve" smooth="yes"/>
      <point x="327" y="470"/>
      <point x="304" y="449"/>
      <point x="243" y="375" type="curve"/>
      <point x="219" y="375" type="line"/>
      <point x="219" y="307" type="line"/>
      <point x="241" y="336"/>
      <point x="267" y="361"/>
      <point x="296" y="361" type="curve" smooth="yes"/>
      <point x="323" y="361"/>
      <point x="333" y="330"/>
      <point x="333" y="291" type="curve" smooth="yes"/>
      <point x="333" y="146"/>
      <point x="281" y="34"/>
      <point x="224" y="34" type="curve" smooth="yes"/>
      <point x="199" y="34"/>
      <point x="186" y="53"/>
      <point x="182" y="83" type="curve"/>
      <point x="182" y="58" type="line"/>
      <point x="304" y="750" type="line"/>
      <point x="301" y="750" type="line"/>
      <point x="57" y="710" type="line"/>
      <point x="57" y="694" type="line"/>
      <point x="126" y="661" type="line"/>
      <point x="10" y="0" type="line"/>
      <point x="26" y="0" type="line"/>
      <point x="138" y="42" type="line"/>
      <point x="90" y="42" type="line"/>
      <point x="121" y="9"/>
      <point x="166" y="-10"/>
    </contour>
  </outline>
</glyph>
<glyph name="c" format="2">
  <advance width="449"/>
  <unicode hex="0063"/>
  <anchor x="306" y="510" name="top"/>
  <anchor x="195" y="0" name="bottom"/>
  <outline>
    <contour>
      <point x="319" y="421" type="curve"/>
      <point x="291" y="448" type="line"/>
      <point x="369" y="313" type="line"/>
      <point x="429" y="347" type="line" smooth="yes"/>
      <point x="440" y="353"/>
      <point x="444" y="364"/>
      <point x="444" y="375" type="curve" smooth="yes"/>
      <point x="444" y="412"/>
      <point x="401" y="470"/>
      <point x="313" y="470" type="curve" smooth="yes"/>
      <point x="161" y="470"/>
      <point x="25" y="329"/>
      <point x="25" y="170" type="curve" smooth="yes"/>
      <point x="25" y="57"/>
      <point x="76" y="-10"/>
      <point x="196" y="-10" type="curve" smooth="yes"/>
      <point x="299" y="-10"/>
      <point x="375" y="73"/>
      <point x="419" y="152" type="curve"/>
      <point x="401" y="170" type="line"/>
      <point x="398" y="170" type="line"/>
      <point x="353" y="137"/>
      <point x="323" y="121"/>
      <point x="283" y="121" type="curve" smooth="yes"/>
      <point x="233" y="121"/>
      <point x="188" y="158"/>
      <point x="188" y="233" type="curve" smooth="yes"/>
      <point x="188" y="356"/>
      <point x="245" y="425"/>
      <point x="297" y="425" type="curve" smooth="yes"/>
      <point x="305" y="425"/>
      <point x="312" y="424"/>
    </contour>
  </outline>
</glyph>
<glyph name="d" format="1">
  <advance width="565.0"/>
  <unicode hex="0064"/>
  <outline>
    <contour>
      <point x="126" y="-10" type="curve" smooth="yes"/>
      <point x="189" y="-10"/>
      <point x="227" y="16"/>
      <point x="289" y="94" type="curve"/>
      <point x="308" y="94" type="line"/>
      <point x="308" y="160" type="line"/>
      <point x="280" y="123"/>
      <point x="258" y="99"/>
      <point x="231" y="99" type="curve" smooth="yes"/>
      <point x="209" y="99"/>
      <point x="200" y="122"/>
      <point x="200" y="178" type="curve" smooth="yes"/>
      <point x="200" y="307"/>
      <point x="245" y="421"/>
      <point x="308" y="421" type="curve" smooth="yes"/>
      <point x="331" y="421"/>
      <point x="349" y="410"/>
      <point x="359" y="394" type="curve"/>
      <point x="344" y="414" type="line"/>
      <point x="299" y="150" type="line" smooth="yes"/>
      <point x="281" y="43"/>
      <point x="321" y="-10"/>
      <point x="399" y="-10" type="curve" smooth="yes"/>
      <point x="474" y="-10"/>
      <point x="522" y="55"/>
      <point x="558" y="153" type="curve"/>
      <point x="536" y="160" type="line"/>
      <point x="512" y="106"/>
      <point x="493" y="89"/>
      <point x="475" y="89" type="curve" smooth="yes"/>
      <point x="459" y="89"/>
      <point x="453" y="107"/>
      <point x="457" y="131" type="curve" smooth="yes"/>
      <point x="565" y="750" type="line"/>
      <point x="562" y="750" type="line"/>
      <point x="309" y="710" type="line"/>
      <point x="309" y="694" type="line"/>
      <point x="387" y="662" type="line"/>
      <point x="348" y="436" type="line"/>
      <point x="442" y="436" type="line"/>
      <point x="422" y="458"/>
      <point x="390" y="470"/>
      <point x="348" y="470" type="curve" smooth="yes"/>
      <point x="204" y="470"/>
      <point x="30" y="324"/>
      <point x="30" y="115" type="curve" smooth="yes"/>
      <point x="30" y="36"/>
      <point x="70" y="-10"/>
    </contour>
    <contour>
      <point x="683" y="740" type="move" name="right"/>
    </contour>
    <contour>
      <point x="255" y="0" type="move" name="bottom"/>
    </contour>
  </outline>
</glyph>
<glyph name="e" format="1">
  <advance width="437"/>
  <unicode hex="0065"/>
  <outline>
    <contour>
      <point x="190" y="-10" type="curve" smooth="yes"/>
      <point x="296" y="-10"/>
      <point x="375" y="72"/>
      <point x="419" y="152" type="curve"/>
      <point x="401" y="170" type="line"/>
      <point x="398" y="170" type="line"/>
      <point x="353" y="137"/>
      <point x="323" y="121"/>
      <point x="283" y="121" type="curve" smooth="yes"/>
      <point x="234" y="121"/>
      <point x="188" y="163"/>
      <point x="188" y="227" type="curve" smooth="yes"/>
      <point x="188" y="342"/>
      <point x="240" y="425"/>
      <point x="282" y="425" type="curve" smooth="yes"/>
      <point x="307" y="425"/>
      <point x="312" y="409"/>
      <point x="312" y="394" type="curve" smooth="yes"/>
      <point x="312" y="351"/>
      <point x="271" y="303"/>
      <point x="144" y="268" type="curve"/>
      <point x="156" y="236" type="line"/>
      <point x="373" y="290"/>
      <point x="427" y="332"/>
      <point x="427" y="388" type="curve" smooth="yes"/>
      <point x="427" y="434"/>
      <point x="389" y="470"/>
      <point x="319" y="470" type="curve" smooth="yes"/>
      <point x="145" y="470"/>
      <point x="25" y="315"/>
      <point x="25" y="171" type="curve" smooth="yes"/>
      <point x="25" y="60"/>
      <point x="76" y="-10"/>
    </contour>
    <contour>
      <point x="320" y="510" type="move" name="top"/>
    </contour>
    <contour>
      <point x="292" y="0" type="move" name="right"/>
    </contour>
    <contour>
      <point x="194" y="0" type="move" name="bottom"/>
    </contour>
  </outline>
</glyph>
<glyph name="f" format="1">
  <advance width="337.0"/>
  <unicode hex="0066"/>
  <outline>
    <contour>
      <point x="-56" y="-240" type="curve" smooth="yes"/>
      <point x="29" y="-240"/>
      <point x="183" y="-100"/>
      <point x="200" y="-2" type="curve" smooth="yes"/>
      <point x="295" y="560" type="line" smooth="yes"/>
      <point x="311" y="657"/>
      <point x="324" y="672"/>
      <point x="344" y="672" type="curve" smooth="yes"/>
      <point x="357" y="672"/>
      <point x="372" y="662"/>
      <point x="396" y="638" type="curve" smooth="yes"/>
      <point x="417" y="617" type="line"/>
      <point x="424" y="617" type="line"/>
      <point x="473" y="695" type="line" smooth="yes"/>
      <point x="477" y="701"/>
      <point x="479" y="708"/>
      <point x="479" y="713" type="curve" smooth="yes"/>
      <point x="479" y="725"/>
      <point x="472" y="734"/>
      <point x="454" y="741" type="curve" smooth="yes"/>
      <point x="439" y="747"/>
      <point x="422" y="750"/>
      <point x="398" y="750" type="curve" smooth="yes"/>
      <point x="310" y="750"/>
      <point x="137" y="596"/>
      <point x="120" y="490" type="curve" smooth="yes"/>
      <point x="28" y="-85" type="line" smooth="yes"/>
      <point x="15" y="-168"/>
      <point x="5" y="-183"/>
      <point x="-12" y="-183" type="curve" smooth="yes"/>
      <point x="-23" y="-183"/>
      <point x="-29" y="-178"/>
      <point x="-38" y="-169" type="curve" smooth="yes"/>
      <point x="-73" y="-135" type="line"/>
      <point x="-79" y="-135" type="line"/>
      <point x="-117" y="-196" type="line" smooth="yes"/>
      <point x="-121" y="-202"/>
      <point x="-123" y="-206"/>
      <point x="-123" y="-211" type="curve" smooth="yes"/>
      <point x="-123" y="-226"/>
      <point x="-94" y="-240"/>
    </contour>
    <contour>
      <point x="40" y="416" type="line"/>
      <point x="371" y="416" type="line"/>
      <point x="371" y="460" type="line"/>
      <point x="40" y="460" type="line"/>
    </contour>
  </outline>
</glyph>
<glyph name="g" format="1">
  <advance width="489.0"/>
  <unicode hex="0067"/>
  <outline>
    <contour>
      <point x="244" y="158" type="curve" smooth="yes"/>
      <point x="376" y="158"/>
      <point x="461" y="243"/>
      <point x="461" y="329" type="curve" smooth="yes"/>
      <point x="461" y="368"/>
      <point x="442" y="399"/>
      <point x="409" y="426" type="curve"/>
      <point x="383" y="450" type="line"/>
      <point x="355" y="463"/>
      <point x="320" y="470"/>
      <point x="279" y="470" type="curve" smooth="yes"/>
      <point x="162" y="470"/>
      <point x="73" y="387"/>
      <point x="73" y="297" type="curve" smooth="yes"/>
      <point x="73" y="224"/>
      <point x="126" y="158"/>
    </contour>
    <contour>
      <point x="254" y="200" type="curve" smooth="yes"/>
      <point x="219" y="200"/>
      <point x="210" y="230"/>
      <point x="210" y="280" type="curve" smooth="yes"/>
      <point x="210" y="361"/>
      <point x="238" y="431"/>
      <point x="276" y="431" type="curve" smooth="yes"/>
      <point x="312" y="431"/>
      <point x="320" y="404"/>
      <point x="320" y="350" type="curve" smooth="yes"/>
      <point x="320" y="271"/>
      <point x="292" y="200"/>
    </contour>
    <contour>
      <point x="527" y="416" type="line"/>
      <point x="527" y="460" type="line"/>
      <point x="339" y="460" type="line"/>
      <point x="339" y="401" type="line"/>
      <point x="413" y="401" type="line"/>
      <point x="434" y="416" type="line"/>
    </contour>
    <contour>
      <point x="153" y="-240" type="curve" smooth="yes"/>
      <point x="331" y="-240"/>
      <point x="429" y="-139"/>
      <point x="429" y="-49" type="curve" smooth="yes"/>
      <point x="429" y="138"/>
      <point x="127" y="52"/>
      <point x="127" y="147" type="curve" smooth="yes"/>
      <point x="127" y="168"/>
      <point x="149" y="187"/>
      <point x="186" y="197" type="curve"/>
      <point x="186" y="206" type="line"/>
      <point x="116" y="206" type="line"/>
      <point x="116" y="192" type="line"/>
      <point x="53" y="159" type="line"/>
      <point x="25" y="134"/>
      <point x="8" y="102"/>
      <point x="8" y="64" type="curve" smooth="yes"/>
      <point x="8" y="-102"/>
      <point x="280" y="1"/>
      <point x="280" y="-120" type="curve" smooth="yes"/>
      <point x="280" y="-163"/>
      <point x="239" y="-205"/>
      <point x="169" y="-205" type="curve" smooth="yes"/>
      <point x="105" y="-205"/>
      <point x="75" y="-167"/>
      <point x="75" y="-125" type="curve" smooth="yes"/>
      <point x="75" y="-83"/>
      <point x="87" y="-53"/>
      <point x="135" y="-32" type="curve"/>
      <point x="135" y="-18" type="line"/>
      <point x="73" y="-18" type="line"/>
      <point x="73" y="-32" type="line"/>
      <point x="16" y="-63" type="line"/>
      <point x="-13" y="-96"/>
      <point x="-21" y="-114"/>
      <point x="-21" y="-143" type="curve" smooth="yes"/>
      <point x="-21" y="-202"/>
      <point x="40" y="-240"/>
    </contour>
    <contour>
      <point x="301.0" y="510.0" type="move" name="top"/>
    </contour>
  </outline>
</glyph>
<glyph name="h" format="2">
  <advance width="574"/>
  <unicode hex="0068"/>
  <anchor x="370.0" y="765.0" name="top"/>
  <anchor x="237.0" y="0.0" name="bottom"/>
  <outline>
    <contour>
      <point x="183" y="0" type="line"/>
      <point x="313" y="750" type="line"/>
      <point x="310" y="750" type="line"/>
      <point x="66" y="710" type="line"/>
      <point x="66" y="694" type="line"/>
      <point x="135" y="661" type="line"/>
      <point x="20" y="0" type="line"/>
    </contour>
    <contour>
      <point x="411" y="-10" type="curve" smooth="yes"/>
      <point x="486" y="-10"/>
      <point x="534" y="55"/>
      <point x="570" y="153" type="curve"/>
      <point x="548" y="160" type="line"/>
      <point x="524" y="106"/>
      <point x="505" y="89"/>
      <point x="487" y="89" type="curve" smooth="yes"/>
      <point x="471" y="89"/>
      <point x="465" y="107"/>
      <point x="469" y="131" type="curve" smooth="yes"/>
      <point x="502" y="322" type="line" smooth="yes"/>
      <point x="518" y="413"/>
      <point x="475" y="470"/>
      <point x="403" y="470" type="curve" smooth="yes"/>
      <point x="343" y="470"/>
      <point x="314" y="446"/>
      <point x="255" y="381" type="curve"/>
      <point x="228" y="381" type="line"/>
      <point x="228" y="317" type="line"/>
      <point x="252" y="346"/>
      <point x="279" y="371"/>
      <point x="308" y="371" type="curve" smooth="yes"/>
      <point x="338" y="371"/>
      <point x="345" y="346"/>
      <point x="340" y="317" type="curve" smooth="yes"/>
      <point x="311" y="150" type="line" smooth="yes"/>
      <point x="292" y="43"/>
      <point x="333" y="-10"/>
    </contour>
  </outline>
</glyph>
<glyph name="i" format="1">
  <advance width="310.0"/>
  <unicode hex="0069"/>
  <outline>
    <contour>
      <point x="147" y="-10" type="curve" smooth="yes"/>
      <point x="222" y="-10"/>
      <point x="270" y="55"/>
      <point x="306" y="153" type="curve"/>
      <point x="284" y="160" type="line"/>
      <point x="260" y="106"/>
      <point x="241" y="89"/>
      <point x="223" y="89" type="curve" smooth="yes"/>
      <point x="207" y="89"/>
      <point x="201" y="107"/>
      <point x="205" y="131" type="curve" smooth="yes"/>
      <point x="265" y="470" type="line"/>
      <point x="262" y="470" type="line"/>
      <point x="30" y="430" type="line"/>
      <point x="30" y="414" type="line"/>
      <point x="88" y="381" type="line"/>
      <point x="47" y="150" type="line" smooth="yes"/>
      <point x="28" y="43"/>
      <point x="69" y="-10"/>
    </contour>
    <contour>
      <point x="211" y="557" type="curve" smooth="yes"/>
      <point x="256" y="557"/>
      <point x="289" y="589"/>
      <point x="289" y="635" type="curve" smooth="yes"/>
      <point x="289" y="681"/>
      <point x="256" y="714"/>
      <point x="211" y="714" type="curve" smooth="yes"/>
      <point x="166" y="714"/>
      <point x="132" y="681"/>
      <point x="132" y="635" type="curve" smooth="yes"/>
      <point x="132" y="589"/>
      <point x="166" y="557"/>
    </contour>
    <contour>
      <point x="193" y="510" type="move" name="top"/>
    </contour>
    <contour>
      <point x="166" y="0" type="move" name="right"/>
    </contour>
    <contour>
      <point x="137" y="0" type="move" name="bottom"/>
    </contour>
  </outline>
</glyph>
<glyph name="j" format="2">
  <advance width="295"/>
  <unicode hex="006A"/>
  <anchor x="190" y="510" name="top"/>
  <anchor x="53" y="-211" name="bottom"/>
  <outline>
    <contour>
      <point x="-77" y="-230" type="line"/>
      <point x="99" y="-167"/>
      <point x="178" y="-87"/>
      <point x="197" y="39" type="curve" smooth="yes"/>
      <point x="263" y="470" type="line"/>
      <point x="260" y="470" type="line"/>
      <point x="28" y="430" type="line"/>
      <point x="28" y="414" type="line"/>
      <point x="86" y="381" type="line"/>
      <point x="28" y="-10" type="line" smooth="yes"/>
      <point x="8" y="-143"/>
      <point x="-4" y="-160"/>
      <point x="-77" y="-210" type="curve"/>
    </contour>
    <contour>
      <point x="207" y="557" type="curve" smooth="yes"/>
      <point x="252" y="557"/>
      <point x="285" y="589"/>
      <point x="285" y="635" type="curve" smooth="yes"/>
      <point x="285" y="681"/>
      <point x="252" y="714"/>
      <point x="207" y="714" type="curve" smooth="yes"/>
      <point x="162" y="714"/>
      <point x="128" y="681"/>
      <point x="128" y="635" type="curve" smooth="yes"/>
      <point x="128" y="589"/>
      <point x="162" y="557"/>
    </contour>
  </outline>
</glyph>
<glyph name="k" format="1">
  <advance width="549.0"/>
  <unicode hex="006B"/>
  <outline>
    <contour>
      <point x="20" y="0" type="line"/>
      <point x="183" y="0" type="line"/>
      <point x="313" y="750" type="line"/>
      <point x="310" y="750" type="line"/>
      <point x="66" y="710" type="line"/>
      <point x="66" y="694" type="line"/>
      <point x="135" y="661" type="line"/>
    </contour>
    <contour>
      <point x="401" y="-10" type="curve" smooth="yes"/>
      <point x="468" y="-10"/>
      <point x="513" y="36"/>
      <point x="536" y="152" type="curve"/>
      <point x="514" y="157" type="line"/>
      <point x="502" y="105"/>
      <point x="487" y="89"/>
      <point x="469" y="89" type="curve" smooth="yes"/>
      <point x="450.513513514" y="89.0"/>
      <point x="442.122201047" y="108.924617546"/>
      <point x="431" y="135" type="curve" smooth="yes"/>
      <point x="341" y="346" type="line"/>
      <point x="267" y="280" type="line"/>
      <point x="354" y="345" type="line" smooth="yes"/>
      <point x="371.605489951" y="358.153526975"/>
      <point x="391.397260274" y="367.0"/>
      <point x="419" y="367" type="curve" smooth="yes"/>
      <point x="443.652173913" y="367.0"/>
      <point x="462.616353119" y="361.450134378"/>
      <point x="473" y="357" type="curve" smooth="yes"/>
      <point x="487" y="351" type="line"/>
      <point x="491" y="351" type="line"/>
      <point x="523" y="432" type="line" smooth="yes"/>
      <point x="528" y="444"/>
      <point x="522" y="454"/>
      <point x="513" y="461" type="curve" smooth="yes"/>
      <point x="506" y="466"/>
      <point x="495" y="470"/>
      <point x="479" y="470" type="curve" smooth="yes"/>
      <point x="437" y="470"/>
      <point x="367" y="417"/>
      <point x="224" y="267" type="curve"/>
      <point x="224" y="262" type="line"/>
      <point x="289" y="83" type="line" smooth="yes"/>
      <point x="308" y="31"/>
      <point x="335" y="-10"/>
    </contour>
    <contour>
      <point x="246" y="0" type="move" name="bottom"/>
    </contour>
  </outline>
</glyph>
<glyph name="l" format="1">
  <advance width="308"/>
  <unicode hex="006C"/>
  <outline>
    <contour>
      <point x="145" y="-10" type="curve" smooth="yes"/>
      <point x="220" y="-10"/>
      <point x="268" y="55"/>
      <point x="304" y="153" type="curve"/>
      <point x="282" y="160" type="line"/>
      <point x="258" y="106"/>
      <point x="239" y="89"/>
      <point x="221" y="89" type="curve" smooth="yes"/>
      <point x="205" y="89"/>
      <point x="199" y="107"/>
      <point x="203" y="131" type="curve" smooth="yes"/>
      <point x="313" y="750" type="line"/>
      <point x="310" y="750" type="line"/>
      <point x="66" y="710" type="line"/>
      <point x="66" y="694" type="line"/>
      <point x="135" y="661" type="line"/>
      <point x="45" y="150" type="line" smooth="yes"/>
      <point x="26" y="43"/>
      <point x="67" y="-10"/>
    </contour>
    <contour>
      <point x="236" y="765" type="move" name="top"/>
    </contour>
    <contour>
      <point x="431" y="740" type="move" name="right"/>
    </contour>
    <contour>
      <point x="358" y="300" type="move" name="mid"/>
    </contour>
    <contour>
      <point x="137" y="0" type="move" name="bottom"/>
    </contour>
  </outline>
</glyph>
<glyph name="m" format="1">
  <advance width="842.0"/>
  <unicode hex="006D"/>
  <outline>
    <contour>
      <point x="30" y="0" type="line"/>
      <point x="193" y="0" type="line"/>
      <point x="253" y="358" type="line"/>
      <point x="253" y="470" type="line"/>
      <point x="250" y="470" type="line"/>
      <point x="38" y="430" type="line"/>
      <point x="38" y="414" type="line"/>
      <point x="96" y="381" type="line"/>
    </contour>
    <contour>
      <point x="290" y="0" type="line"/>
      <point x="454" y="0" type="line"/>
      <point x="509" y="322" type="line" smooth="yes"/>
      <point x="525" y="413"/>
      <point x="483" y="470"/>
      <point x="410" y="470" type="curve" smooth="yes"/>
      <point x="348" y="470"/>
      <point x="322" y="445"/>
      <point x="260" y="376" type="curve"/>
      <point x="238" y="376" type="line"/>
      <point x="238" y="317" type="line"/>
      <point x="262" y="346"/>
      <point x="286" y="371"/>
      <point x="315" y="371" type="curve" smooth="yes"/>
      <point x="347" y="371"/>
      <point x="353" y="346"/>
      <point x="348" y="317" type="curve" smooth="yes"/>
    </contour>
    <contour>
      <point x="679" y="-10" type="curve" smooth="yes"/>
      <point x="754" y="-10"/>
      <point x="802" y="55"/>
      <point x="838" y="153" type="curve"/>
      <point x="816" y="160" type="line"/>
      <point x="792" y="106"/>
      <point x="773" y="89"/>
      <point x="755" y="89" type="curve" smooth="yes"/>
      <point x="739" y="89"/>
      <point x="733" y="107"/>
      <point x="737" y="131" type="curve" smooth="yes"/>
      <point x="770" y="322" type="line" smooth="yes"/>
      <point x="786" y="413"/>
      <point x="743" y="470"/>
      <point x="671" y="470" type="curve" smooth="yes"/>
      <point x="609" y="470"/>
      <point x="580" y="445"/>
      <point x="518" y="376" type="curve"/>
      <point x="496" y="376" type="line"/>
      <point x="496" y="317" type="line"/>
      <point x="520" y="346"/>
      <point x="547" y="371"/>
      <point x="576" y="371" type="curve" smooth="yes"/>
      <point x="606" y="371"/>
      <point x="613" y="346"/>
      <point x="608" y="317" type="curve" smooth="yes"/>
      <point x="579" y="150" type="line" smooth="yes"/>
      <point x="560" y="43"/>
      <point x="601" y="-10"/>
    </contour>
    <contour>
      <point x="372" y="0" type="move" name="bottom"/>
    </contour>
  </outline>
</glyph>
<glyph name="n" format="1">
  <advance width="584.0"/>
  <unicode hex="006E"/>
  <outline>
    <contour>
      <point x="30" y="0" type="line"/>
      <point x="193" y="0" type="line"/>
      <point x="253" y="358" type="line"/>
      <point x="253" y="470" type="line"/>
      <point x="250" y="470" type="line"/>
      <point x="38" y="430" type="line"/>
      <point x="38" y="414" type="line"/>
      <point x="96" y="381" type="line"/>
    </contour>
    <contour>
      <point x="421" y="-10" type="curve" smooth="yes"/>
      <point x="496" y="-10"/>
      <point x="544" y="55"/>
      <point x="580" y="153" type="curve"/>
      <point x="558" y="160" type="line"/>
      <point x="534" y="106"/>
      <point x="515" y="89"/>
      <point x="497" y="89" type="curve" smooth="yes"/>
      <point x="481" y="89"/>
      <point x="475" y="107"/>
      <point x="479" y="131" type="curve" smooth="yes"/>
      <point x="512" y="322" type="line" smooth="yes"/>
      <point x="528" y="413"/>
      <point x="485" y="470"/>
      <point x="413" y="470" type="curve" smooth="yes"/>
      <point x="351" y="470"/>
      <point x="322" y="445"/>
      <point x="260" y="376" type="curve"/>
      <point x="238" y="376" type="line"/>
      <point x="238" y="317" type="line"/>
      <point x="262" y="346"/>
      <point x="289" y="371"/>
      <point x="318" y="371" type="curve" smooth="yes"/>
      <point x="348" y="371"/>
      <point x="355" y="346"/>
      <point x="350" y="317" type="curve" smooth="yes"/>
      <point x="321" y="150" type="line" smooth="yes"/>
      <point x="302" y="43"/>
      <point x="343" y="-10"/>
    </contour>
    <contour>
      <point x="330" y="510" type="move" name="top"/>
    </contour>
    <contour>
      <point x="287" y="0" type="move" name="bottom"/>
    </contour>
  </outline>
</glyph>
<glyph name="p" format="1">
  <advance width="548"/>
  <unicode hex="0070"/>
  <outline>
    <contour>
      <point x="-64" y="-230" type="line"/>
      <point x="247" y="-230" type="line"/>
      <point x="247" y="-214" type="line"/>
      <point x="161" y="-181" type="line"/>
      <point x="198" y="27" type="line"/>
      <point x="110" y="41" type="line"/>
      <point x="141" y="8"/>
      <point x="186" y="-10"/>
      <point x="250" y="-10" type="curve" smooth="yes"/>
      <point x="394" y="-10"/>
      <point x="518" y="135"/>
      <point x="518" y="321" type="curve" smooth="yes"/>
      <point x="518" y="414"/>
      <point x="473" y="470"/>
      <point x="409" y="470" type="curve" smooth="yes"/>
      <point x="346" y="470"/>
      <point x="323" y="448"/>
      <point x="261" y="372" type="curve"/>
      <point x="239" y="372" type="line"/>
      <point x="239" y="307" type="line"/>
      <point x="261" y="336"/>
      <point x="287" y="361"/>
      <point x="316" y="361" type="curve" smooth="yes"/>
      <point x="343" y="361"/>
      <point x="353" y="330"/>
      <point x="353" y="291" type="curve" smooth="yes"/>
      <point x="353" y="140"/>
      <point x="302.065420561" y="34.0"/>
      <point x="244" y="34" type="curve" smooth="yes"/>
      <point x="219" y="34"/>
      <point x="205" y="53"/>
      <point x="201" y="83" type="curve"/>
      <point x="201" y="46" type="line"/>
      <point x="253" y="358" type="line"/>
      <point x="253" y="470" type="line"/>
      <point x="250" y="470" type="line"/>
      <point x="38" y="430" type="line"/>
      <point x="38" y="414" type="line"/>
      <point x="96" y="381" type="line"/>
      <point x="-3" y="-182" type="line"/>
      <point x="-64" y="-214" type="line"/>
    </contour>
  </outline>
</glyph>
<glyph name="q" format="1">
  <advance width="545.0"/>
  <unicode hex="0071"/>
  <outline>
    <contour>
      <point x="157" y="-230" type="line"/>
      <point x="468" y="-230" type="line"/>
      <point x="468" y="-214" type="line"/>
      <point x="403" y="-183" type="line"/>
      <point x="514" y="460" type="line"/>
      <point x="498" y="460" type="line"/>
      <point x="406" y="433" type="line"/>
      <point x="442" y="436" type="line"/>
      <point x="422" y="458"/>
      <point x="390" y="470"/>
      <point x="348" y="470" type="curve" smooth="yes"/>
      <point x="204" y="470"/>
      <point x="30" y="324"/>
      <point x="30" y="115" type="curve" smooth="yes"/>
      <point x="30" y="36"/>
      <point x="70" y="-10"/>
      <point x="126" y="-10" type="curve" smooth="yes"/>
      <point x="185" y="-10"/>
      <point x="222" y="13"/>
      <point x="277" y="80" type="curve"/>
      <point x="308" y="80" type="line"/>
      <point x="308" y="160" type="line"/>
      <point x="280" y="123"/>
      <point x="258" y="99"/>
      <point x="231" y="99" type="curve" smooth="yes"/>
      <point x="209" y="99"/>
      <point x="200" y="122"/>
      <point x="200" y="178" type="curve" smooth="yes"/>
      <point x="200.0" y="312.536480687"/>
      <point x="242.8" y="421.0"/>
      <point x="307" y="421" type="curve" smooth="yes"/>
      <point x="330" y="421"/>
      <point x="348" y="410"/>
      <point x="358" y="394" type="curve"/>
      <point x="350" y="447" type="line"/>
      <point x="239" y="-182" type="line"/>
      <point x="157" y="-214" type="line"/>
    </contour>
  </outline>
</glyph>
<glyph name="r" format="1">
  <advance width="406.0"/>
  <unicode hex="0072"/>
  <outline>
    <contour>
      <point x="30" y="0" type="line"/>
      <point x="193" y="0" type="line"/>
      <point x="253" y="352" type="line"/>
      <point x="253" y="470" type="line"/>
      <point x="250" y="470" type="line"/>
      <point x="38" y="430" type="line"/>
      <point x="38" y="414" type="line"/>
      <point x="96" y="381" type="line"/>
    </contour>
    <contour>
      <point x="315" y="358" type="curve" smooth="yes"/>
      <point x="343" y="358"/>
      <point x="355" y="349"/>
      <point x="372" y="336" type="curve" smooth="yes"/>
      <point x="384" y="327" type="line"/>
      <point x="390" y="327" type="line"/>
      <point x="432" y="412" type="line" smooth="yes"/>
      <point x="436" y="421"/>
      <point x="437" y="426"/>
      <point x="437" y="434" type="curve" smooth="yes"/>
      <point x="437" y="449"/>
      <point x="412" y="470"/>
      <point x="379" y="470" type="curve" smooth="yes"/>
      <point x="340" y="470"/>
      <point x="322" y="453"/>
      <point x="261" y="374" type="curve"/>
      <point x="240" y="374" type="line"/>
      <point x="240" y="318" type="line"/>
      <point x="264" y="346"/>
      <point x="287" y="358"/>
    </contour>
    <contour>
      <point x="290" y="510" type="move" name="top"/>
    </contour>
    <contour>
      <point x="113" y="0" type="move" name="bottom"/>
    </contour>
  </outline>
</glyph>
<glyph name="t" format="2">
  <advance width="364"/>
  <unicode hex="0074"/>
  <anchor x="245" y="610" name="top"/>
  <anchor x="430" y="740" name="right"/>
  <anchor x="146" y="0" name="bottom"/>
  <outline>
    <contour>
      <point x="161" y="-10" type="curve" smooth="yes"/>
      <point x="249" y="-10"/>
      <point x="313" y="69"/>
      <point x="350" y="188" type="curve"/>
      <point x="327" y="195" type="line"/>
      <point x="302" y="130"/>
      <point x="273" y="109"/>
      <point x="243" y="109" type="curve" smooth="yes"/>
      <point x="217" y="109"/>
      <point x="204" y="123"/>
      <point x="204" y="154" type="curve" smooth="yes"/>
      <point x="204" y="162"/>
      <point x="205" y="171"/>
      <point x="209" y="196" type="curve" smooth="yes"/>
      <point x="248" y="416" type="line"/>
      <point x="375" y="416" type="line"/>
      <point x="375" y="460" type="line"/>
      <point x="256" y="460" type="line"/>
      <point x="274" y="563" type="line"/>
      <point x="248" y="563" type="line"/>
      <point x="153" y="492" type="line"/>
      <point x="32" y="435" type="line"/>
      <point x="28" y="416" type="line"/>
      <point x="86" y="416" type="line"/>
      <point x="44" y="173" type="line" smooth="yes"/>
      <point x="41" y="154"/>
      <point x="39" y="136"/>
      <point x="39" y="120" type="curve" smooth="yes"/>
      <point x="39" y="34"/>
      <point x="84" y="-10"/>
    </contour>
  </outline>
</glyph>
<glyph name="u" format="2">
  <advance width="572"/>
  <unicode hex="0075"/>
  <anchor x="326" y="510" name="top"/>
  <anchor x="461" y="0" name="right"/>
  <anchor x="238" y="0" name="bottom"/>
  <outline>
    <contour>
      <point x="148" y="-10" type="curve" smooth="yes"/>
      <point x="209" y="-10"/>
      <point x="238" y="14"/>
      <point x="299" y="82" type="curve"/>
      <point x="323" y="82" type="line"/>
      <point x="323" y="143" type="line"/>
      <point x="299" y="114"/>
      <point x="272" y="89"/>
      <point x="243" y="89" type="curve" smooth="yes"/>
      <point x="219" y="89"/>
      <point x="210" y="105"/>
      <point x="210" y="127" type="curve" smooth="yes"/>
      <point x="210" y="138"/>
      <point x="211" y="145"/>
      <point x="214" y="161" type="curve" smooth="yes"/>
      <point x="269" y="470" type="line"/>
      <point x="266" y="470" type="line"/>
      <point x="33" y="430" type="line"/>
      <point x="33" y="414" type="line"/>
      <point x="91" y="381" type="line"/>
      <point x="49" y="138" type="line" smooth="yes"/>
      <point x="47" y="125"/>
      <point x="46" y="113"/>
      <point x="46" y="102" type="curve" smooth="yes"/>
      <point x="46" y="32"/>
      <point x="86" y="-10"/>
    </contour>
    <contour>
      <point x="409" y="-10" type="curve" smooth="yes"/>
      <point x="484" y="-10"/>
      <point x="532" y="55"/>
      <point x="568" y="153" type="curve"/>
      <point x="546" y="160" type="line"/>
      <point x="522" y="106"/>
      <point x="503" y="89"/>
      <point x="485" y="89" type="curve" smooth="yes"/>
      <point x="469" y="89"/>
      <point x="463" y="107"/>
      <point x="467" y="131" type="curve" smooth="yes"/>
      <point x="527" y="470" type="line"/>
      <point x="524" y="470" type="line"/>
      <point x="302" y="430" type="line"/>
      <point x="302" y="414" type="line"/>
      <point x="349" y="381" type="line"/>
      <point x="309" y="150" type="line" smooth="yes"/>
      <point x="290" y="43"/>
      <point x="331" y="-10"/>
    </contour>
  </outline>
</glyph>
<glyph name="v" format="2">
  <advance width="469"/>
  <unicode hex="0076"/>
  <outline>
    <contour>
      <point x="174" y="0" type="line"/>
      <point x="217" y="0" type="line"/>
      <point x="310" y="139" type="line"/>
      <point x="310" y="167" type="line"/>
      <point x="299" y="167" type="line"/>
      <point x="213" y="470" type="line"/>
      <point x="210" y="470" type="line"/>
      <point x="5" y="430" type="line"/>
      <point x="5" y="414" type="line"/>
      <point x="91" y="377" type="line"/>
      <point x="55" y="418" type="line"/>
    </contour>
    <contour>
      <point x="224" y="0" type="line"/>
      <point x="398" y="231" type="line" smooth="yes"/>
      <point x="451" y="301"/>
      <point x="467" y="336"/>
      <point x="467" y="382" type="curve" smooth="yes"/>
      <point x="467" y="425"/>
      <point x="431" y="470"/>
      <point x="396" y="470" type="curve" smooth="yes"/>
      <point x="379" y="470"/>
      <point x="371" y="466"/>
      <point x="355" y="442" type="curve" smooth="yes"/>
      <point x="316" y="383" type="line"/>
      <point x="402" y="309" type="line"/>
      <point x="385" y="364" type="line"/>
      <point x="382" y="311"/>
      <point x="362" y="250"/>
      <point x="323" y="192" type="curve" smooth="yes"/>
      <point x="211" y="23" type="line"/>
      <point x="211" y="0" type="line"/>
    </contour>
  </outline>
</glyph>
<glyph name="w" format="2">
  <advance width="686"/>
  <unicode hex="0077"/>
  <anchor x="427" y="510" name="top"/>
  <outline>
    <contour>
      <point x="154" y="0" type="line"/>
      <point x="196" y="0" type="line"/>
      <point x="285" y="155" type="line"/>
      <point x="285" y="207" type="line"/>
      <point x="272" y="207" type="line"/>
      <point x="213" y="470" type="line"/>
      <point x="210" y="470" type="line"/>
      <point x="5" y="430" type="line"/>
      <point x="5" y="414" type="line"/>
      <point x="93" y="375" type="line"/>
      <point x="57" y="410" type="line"/>
    </contour>
    <contour>
      <point x="402" y="460" type="line"/>
      <point x="188" y="23" type="line"/>
      <point x="188" y="0" type="line"/>
      <point x="204" y="0" type="line"/>
      <point x="366" y="282" type="line"/>
      <point x="333" y="282" type="line"/>
      <point x="420" y="0" type="line"/>
      <point x="459" y="0" type="line"/>
      <point x="547" y="151" type="line"/>
      <point x="452" y="460" type="line"/>
    </contour>
    <contour>
      <point x="470" y="0" type="line"/>
      <point x="615" y="231" type="line" smooth="yes"/>
      <point x="676" y="329"/>
      <point x="684" y="346"/>
      <point x="684" y="382" type="curve" smooth="yes"/>
      <point x="684" y="425"/>
      <point x="648" y="470"/>
      <point x="613" y="470" type="curve" smooth="yes"/>
      <point x="596" y="470"/>
      <point x="588" y="466"/>
      <point x="572" y="442" type="curve" smooth="yes"/>
      <point x="533" y="383" type="line"/>
      <point x="619" y="309" type="line"/>
      <point x="602" y="364" type="line"/>
      <point x="599" y="312"/>
      <point x="583" y="270"/>
      <point x="557" y="218" type="curve" smooth="yes"/>
      <point x="543" y="190" type="line"/>
      <point x="448" y="190" type="line"/>
      <point x="448" y="0" type="line"/>
    </contour>
  </outline>
</glyph>
<glyph name="x" format="1">
  <advance width="508.0"/>
  <unicode hex="0078"/>
  <outline>
    <contour>
      <point x="265" y="-10" type="line"/>
      <point x="268" y="-10" type="line"/>
      <point x="473" y="30" type="line"/>
      <point x="473" y="46" type="line"/>
      <point x="384" y="85" type="line"/>
      <point x="414" y="62" type="line"/>
      <point x="254" y="470" type="line"/>
      <point x="251" y="470" type="line"/>
      <point x="46" y="430" type="line"/>
      <point x="46" y="414" type="line"/>
      <point x="135" y="375" type="line"/>
      <point x="101" y="402" type="line"/>
    </contour>
    <contour>
      <point x="505" y="460" type="curve"/>
      <point x="417" y="460" type="line"/>
      <point x="402.203839911" y="430.407679823"/>
      <point x="410.353343135" y="408.624011763"/>
      <point x="284" y="257" type="curve"/>
      <point x="316" y="247" type="line"/>
      <point x="469" y="411"/>
      <point x="502" y="430"/>
    </contour>
    <contour>
      <point x="-20" y="0" type="curve"/>
      <point x="73" y="0" type="line"/>
      <point x="90" y="34"/>
      <point x="85" y="53"/>
      <point x="234" y="231" type="curve"/>
      <point x="201" y="241" type="line"/>
      <point x="27" y="55"/>
      <point x="-17" y="34"/>
    </contour>
  </outline>
</glyph>
<glyph name="y" format="2">
  <advance width="477"/>
  <unicode hex="0079"/>
  <anchor x="314.0" y="510.0" name="top"/>
  <anchor x="313" y="-10" name="bottom"/>
  <outline>
    <contour>
      <point x="10" y="414" type="line"/>
      <point x="95" y="376" type="line"/>
      <point x="60" y="417" type="line"/>
      <point x="196" y="-53" type="line"/>
      <point x="316" y="131" type="line"/>
      <point x="316" y="155" type="line"/>
      <point x="304" y="155" type="line"/>
      <point x="212" y="470" type="line"/>
      <point x="209" y="470" type="line"/>
      <point x="10" y="430" type="line"/>
    </contour>
    <contour>
      <point x="335" y="191" type="curve" smooth="yes"/>
      <point x="197" y="-18" type="line" smooth="yes"/>
      <point x="137" y="-109"/>
      <point x="125" y="-119"/>
      <point x="52" y="-151" type="curve"/>
      <point x="123" y="-134" type="line"/>
      <point x="-1" y="-107" type="line"/>
      <point x="-23" y="-133"/>
      <point x="-33" y="-161"/>
      <point x="-33" y="-183" type="curve" smooth="yes"/>
      <point x="-33" y="-220"/>
      <point x="-11" y="-239"/>
      <point x="23" y="-239" type="curve" smooth="yes"/>
      <point x="71" y="-239"/>
      <point x="117" y="-205"/>
      <point x="175" y="-117" type="curve" smooth="yes"/>
      <point x="406" y="231" type="line" smooth="yes"/>
      <point x="463" y="317"/>
      <point x="475" y="342"/>
      <point x="475" y="382" type="curve" smooth="yes"/>
      <point x="475" y="425"/>
      <point x="439" y="470"/>
      <point x="404" y="470" type="curve" smooth="yes"/>
      <point x="387" y="470"/>
      <point x="379" y="466"/>
      <point x="363" y="442" type="curve" smooth="yes"/>
      <point x="324" y="383" type="line"/>
      <point x="410" y="309" type="line"/>
      <point x="393" y="364" type="line"/>
      <point x="390" y="303"/>
      <point x="370" y="243"/>
    </contour>
  </outline>
</glyph>
<glyph name="z" format="2">
  <advance width="468"/>
  <unicode hex="007A"/>
  <anchor x="270" y="510" name="top"/>
  <anchor x="181" y="0" name="bottom"/>
  <outline>
    <contour>
      <point x="15" y="0" type="line"/>
      <point x="372" y="0" type="line"/>
      <point x="413" y="215" type="line"/>
      <point x="397" y="215" type="line"/>
      <point x="325" y="107" type="line"/>
      <point x="362" y="131" type="line"/>
      <point x="131" y="131" type="line"/>
      <point x="139" y="112" type="line"/>
      <point x="432" y="437" type="line"/>
      <point x="426" y="460" type="line"/>
      <point x="86" y="460" type="line"/>
      <point x="53" y="257" type="line"/>
      <point x="69" y="257" type="line"/>
      <point x="124" y="366" type="line"/>
      <point x="84" y="329" type="line"/>
      <point x="319" y="329" type="line"/>
      <point x="319" y="376" type="line"/>
      <point x="3" y="20" type="line"/>
    </contour>
  </outline>
</glyph>
<glyph name="braceleft" format="1">
  <advance width="285"/>
  <unicode hex="007B"/>
  <outline>
    <contour>
      <point x="198" y="-150" type="line"/>
      <point x="202" y="-127" type="line"/>
      <point x="185" y="-127" type="line" smooth="yes"/>
      <point x="135" y="-127"/>
      <point x="109" y="-107"/>
      <point x="109" y="-58" type="curve" smooth="yes"/>
      <point x="109" y="11"/>
      <point x="191" y="125"/>
      <point x="191" y="197" type="curve" smooth="yes"/>
      <point x="191" y="242"/>
      <point x="178" y="276"/>
      <point x="121" y="295" type="curve"/>
      <point x="204" y="329"/>
      <point x="228" y="387"/>
      <point x="228" y="448" type="curve" smooth="yes"/>
      <point x="228" y="493"/>
      <point x="217" y="537"/>
      <point x="216" y="587" type="curve" smooth="yes"/>
      <point x="214" y="665"/>
      <point x="245" y="717"/>
      <point x="324" y="717" type="curve" smooth="yes"/>
      <point x="342" y="717" type="line"/>
      <point x="346" y="740" type="line"/>
      <point x="320" y="740" type="line" smooth="yes"/>
      <point x="200" y="740"/>
      <point x="147" y="672"/>
      <point x="147" y="571" type="curve" smooth="yes"/>
      <point x="147" y="519"/>
      <point x="160" y="467"/>
      <point x="160" y="420" type="curve" smooth="yes"/>
      <point x="160" y="362"/>
      <point x="137" y="307"/>
      <point x="61" y="307" type="curve" smooth="yes"/>
      <point x="38" y="307" type="line"/>
      <point x="34" y="284" type="line"/>
      <point x="58" y="284" type="line" smooth="yes"/>
      <point x="112" y="284"/>
      <point x="126" y="257"/>
      <point x="126" y="223" type="curve" smooth="yes"/>
      <point x="126" y="138"/>
      <point x="42" y="45"/>
      <point x="42" y="-47" type="curve" smooth="yes"/>
      <point x="42" y="-109"/>
      <point x="81" y="-150"/>
      <point x="172" y="-150" type="curve" smooth="yes"/>
    </contour>
  </outline>
</glyph>
<glyph name="bar" format="1">
  <advance width="250.0"/>
  <unicode hex="007C"/>
  <outline>
    <contour>
      <point x="12" y="-250" type="line"/>
      <point x="62" y="-250" type="line"/>
      <point x="238" y="750" type="line"/>
      <point x="188" y="750" type="line"/>
    </contour>
  </outline>
</glyph>
<glyph name="braceright" format="2">
  <advance width="285"/>
  <unicode hex="007D"/>
  <outline>
    <contour>
      <point x="-33" y="-150" type="line"/>
      <point x="-7" y="-150" type="line" smooth="yes"/>
      <point x="113" y="-150"/>
      <point x="166" y="-82"/>
      <point x="166" y="19" type="curve" smooth="yes"/>
      <point x="166" y="71"/>
      <point x="153" y="123"/>
      <point x="153" y="170" type="curve" smooth="yes"/>
      <point x="153" y="228"/>
      <point x="176" y="283"/>
      <point x="252" y="283" type="curve" smooth="yes"/>
      <point x="275" y="283" type="line"/>
      <point x="279" y="306" type="line"/>
      <point x="255" y="306" type="line" smooth="yes"/>
      <point x="201" y="306"/>
      <point x="187" y="333"/>
      <point x="187" y="367" type="curve" smooth="yes"/>
      <point x="187" y="452"/>
      <point x="271" y="545"/>
      <point x="271" y="637" type="curve" smooth="yes"/>
      <point x="271" y="699"/>
      <point x="232" y="740"/>
      <point x="141" y="740" type="curve" smooth="yes"/>
      <point x="115" y="740" type="line"/>
      <point x="111" y="717" type="line"/>
      <point x="128" y="717" type="line" smooth="yes"/>
      <point x="178" y="717"/>
      <point x="204" y="697"/>
      <point x="204" y="648" type="curve" smooth="yes"/>
      <point x="204" y="579"/>
      <point x="122" y="465"/>
      <point x="122" y="393" type="curve" smooth="yes"/>
      <point x="122" y="348"/>
      <point x="135" y="314"/>
      <point x="192" y="295" type="curve"/>
      <point x="109" y="261"/>
      <point x="85" y="203"/>
      <point x="85" y="142" type="curve" smooth="yes"/>
      <point x="85" y="97"/>
      <point x="96" y="53"/>
      <point x="97" y="3" type="curve" smooth="yes"/>
      <point x="99" y="-75"/>
      <point x="68" y="-127"/>
      <point x="-11" y="-127" type="curve" smooth="yes"/>
      <point x="-29" y="-127" type="line"/>
    </contour>
  </outline>
</glyph>
<glyph name="asciitilde" format="2">
  <advance width="600"/>
  <unicode hex="007E"/>
  <outline>
    <contour>
      <point x="378" y="201" type="curve" smooth="yes"/>
      <point x="455" y="201"/>
      <point x="498" y="253"/>
      <point x="512" y="343" type="curve"/>
      <point x="455" y="343" type="line"/>
      <point x="447" y="287"/>
      <point x="427" y="258"/>
      <point x="385" y="258" type="curve" smooth="yes"/>
      <point x="319" y="258"/>
      <point x="297" y="343"/>
      <point x="201" y="343" type="curve" smooth="yes"/>
      <point x="124" y="343"/>
      <point x="82" y="291"/>
      <point x="68" y="201" type="curve"/>
      <point x="125" y="201" type="line"/>
      <point x="133" y="257"/>
      <point x="153" y="286"/>
      <point x="195" y="286" type="curve" smooth="yes"/>
      <point x="260" y="286"/>
      <point x="282" y="201"/>
    </contour>
  </outline>
</glyph>
<glyph name="exclamdown" format="1">
  <advance width="233"/>
  <unicode hex="00A1"/>
  <outline>
    <contour>
      <point x="-50" y="-195" type="line"/>
      <point x="115" y="-195" type="line"/>
      <point x="125" y="235" type="line"/>
      <point x="90" y="235" type="line"/>
    </contour>
    <contour>
      <point x="125" y="322" type="curve" smooth="yes"/>
      <point x="171" y="322"/>
      <point x="203" y="363"/>
      <point x="203" y="406" type="curve" smooth="yes"/>
      <point x="203" y="443"/>
      <point x="184" y="470"/>
      <point x="141" y="470" type="curve" smooth="yes"/>
      <point x="94" y="470"/>
      <point x="63" y="434"/>
      <point x="63" y="386" type="curve" smooth="yes"/>
      <point x="63" y="349"/>
      <point x="82" y="322"/>
    </contour>
  </outline>
</glyph>
<glyph name="cent" format="2">
  <advance width="600"/>
  <unicode hex="00A2"/>
  <outline>
    <contour>
      <point x="164" y="26" type="line"/>
      <point x="210" y="26" type="line"/>
      <point x="467" y="635" type="line"/>
      <point x="421" y="635" type="line"/>
    </contour>
    <contour>
      <point x="258" y="333" type="curve" smooth="yes"/>
      <point x="258" y="456"/>
      <point x="315" y="525"/>
      <point x="367" y="525" type="curve" smooth="yes"/>
      <point x="383" y="525"/>
      <point x="397" y="521"/>
      <point x="412" y="515" type="curve"/>
      <point x="386" y="548" type="line"/>
      <point x="447" y="423" type="line"/>
      <point x="505" y="456" type="line" smooth="yes"/>
      <point x="514" y="461"/>
      <point x="519" y="471"/>
      <point x="519" y="482" type="curve" smooth="yes"/>
      <point x="519" y="515"/>
      <point x="471" y="570"/>
      <point x="383" y="570" type="curve" smooth="yes"/>
      <point x="231" y="570"/>
      <point x="95" y="429"/>
      <point x="95" y="270" type="curve" smooth="yes"/>
      <point x="95" y="157"/>
      <point x="146" y="90"/>
      <point x="266" y="90" type="curve" smooth="yes"/>
      <point x="369" y="90"/>
      <point x="445" y="173"/>
      <point x="489" y="252" type="curve"/>
      <point x="471" y="270" type="line"/>
      <point x="468" y="270" type="line"/>
      <point x="423" y="237"/>
      <point x="393" y="221"/>
      <point x="353" y="221" type="curve" smooth="yes"/>
      <point x="303" y="221"/>
      <point x="258" y="258"/>
    </contour>
  </outline>
</glyph>
<glyph name="sterling" format="2">
  <advance width="600"/>
  <unicode hex="00A3"/>
  <outline>
    <contour>
      <point x="55" y="312" type="line"/>
      <point x="475" y="312" type="line"/>
      <point x="483" y="356" type="line"/>
      <point x="63" y="356" type="line"/>
    </contour>
    <contour>
      <point x="102" y="140" type="curve" smooth="yes"/>
      <point x="38" y="70" type="line"/>
      <point x="26" y="0" type="line"/>
      <point x="479" y="0" type="line"/>
      <point x="528" y="222" type="line"/>
      <point x="508" y="222" type="line"/>
      <point x="435" y="125" type="line"/>
      <point x="135" y="125" type="line"/>
      <point x="70" y="53" type="line"/>
      <point x="229" y="169" type="line" smooth="yes"/>
      <point x="297" y="218"/>
      <point x="309" y="233"/>
      <point x="315" y="274" type="curve" smooth="yes"/>
      <point x="347" y="510" type="line" smooth="yes"/>
      <point x="358" y="585"/>
      <point x="397" y="625"/>
      <point x="453" y="625" type="curve" smooth="yes"/>
      <point x="457" y="625"/>
      <point x="458" y="625"/>
      <point x="464" y="624" type="curve"/>
      <point x="420" y="634" type="line"/>
      <point x="519" y="512" type="line"/>
      <point x="577" y="564" type="line" smooth="yes"/>
      <point x="585" y="571"/>
      <point x="589" y="581"/>
      <point x="589" y="592" type="curve" smooth="yes"/>
      <point x="589" y="626"/>
      <point x="549" y="670"/>
      <point x="456" y="670" type="curve" smooth="yes"/>
      <point x="306" y="670"/>
      <point x="189" y="574"/>
      <point x="176" y="477" type="curve" smooth="yes"/>
      <point x="146" y="254" type="line" smooth="yes"/>
      <point x="136" y="181"/>
      <point x="131" y="171"/>
    </contour>
  </outline>
</glyph>
<glyph name="currency" format="2">
  <advance width="600"/>
  <unicode hex="00A4"/>
  <outline>
    <contour>
      <point x="429" y="62" type="line"/>
      <point x="472" y="97" type="line"/>
      <point x="415" y="166" type="line"/>
      <point x="447" y="199"/>
      <point x="462" y="243"/>
      <point x="462" y="289" type="curve" smooth="yes"/>
      <point x="462" y="317"/>
      <point x="455" y="343"/>
      <point x="443" y="366" type="curve"/>
      <point x="532" y="445" type="line"/>
      <point x="500" y="484" type="line"/>
      <point x="411" y="404" type="line"/>
      <point x="387" y="423"/>
      <point x="353" y="434"/>
      <point x="317" y="434" type="curve" smooth="yes"/>
      <point x="283" y="434"/>
      <point x="254" y="426"/>
      <point x="229" y="412" type="curve"/>
      <point x="172" y="483" type="line"/>
      <point x="129" y="448" type="line"/>
      <point x="186" y="379" type="line"/>
      <point x="154" y="346"/>
      <point x="139" y="302"/>
      <point x="139" y="256" type="curve" smooth="yes"/>
      <point x="139" y="228"/>
      <point x="146" y="202"/>
      <point x="158" y="179" type="curve"/>
      <point x="69" y="100" type="line"/>
      <point x="101" y="61" type="line"/>
      <point x="190" y="141" type="line"/>
      <point x="214" y="122"/>
      <point x="248" y="111"/>
      <point x="284" y="111" type="curve" smooth="yes"/>
      <point x="318" y="111"/>
      <point x="347" y="119"/>
      <point x="372" y="133" type="curve"/>
    </contour>
    <contour>
      <point x="290" y="159" type="curve" smooth="yes"/>
      <point x="229" y="159"/>
      <point x="192" y="196"/>
      <point x="192" y="260" type="curve" smooth="yes"/>
      <point x="192" y="334"/>
      <point x="239" y="386"/>
      <point x="311" y="386" type="curve" smooth="yes"/>
      <point x="372" y="386"/>
      <point x="409" y="349"/>
      <point x="409" y="285" type="curve" smooth="yes"/>
      <point x="409" y="211"/>
      <point x="362" y="159"/>
    </contour>
  </outline>
</glyph>
<glyph name="yen" format="1">
  <advance width="600"/>
  <unicode hex="00A5"/>
  <outline>
    <contour>
      <point x="84" y="0" type="line"/>
      <point x="410" y="0" type="line"/>
      <point x="413" y="16" type="line"/>
      <point x="340" y="58" type="line"/>
      <point x="408" y="444" type="line"/>
      <point x="360" y="354" type="line"/>
      <point x="589" y="632" type="line"/>
      <point x="513" y="595" type="line"/>
      <point x="646" y="644" type="line"/>
      <point x="648" y="660" type="line"/>
      <point x="443" y="660" type="line"/>
      <point x="441" y="644" type="line"/>
      <point x="498" y="613" type="line"/>
      <point x="498" y="609" type="line"/>
      <point x="359" y="418" type="line"/>
      <point x="396" y="439" type="line"/>
      <point x="307" y="610" type="line"/>
      <point x="308" y="614" type="line"/>
      <point x="375" y="645" type="line"/>
      <point x="377" y="660" type="line"/>
      <point x="67" y="660" type="line"/>
      <point x="65" y="644" type="line"/>
      <point x="156" y="595" type="line"/>
      <point x="112" y="632" type="line"/>
      <point x="262" y="356" type="line"/>
      <point x="242" y="444" type="line"/>
      <point x="174" y="58" type="line"/>
      <point x="87" y="16" type="line"/>
    </contour>
    <contour>
      <point x="71" y="237" type="line"/>
      <point x="507" y="237" type="line"/>
      <point x="515" y="281" type="line"/>
      <point x="79" y="281" type="line"/>
    </contour>
    <contour>
      <point x="97" y="386" type="line"/>
      <point x="533" y="386" type="line"/>
      <point x="541" y="430" type="line"/>
      <point x="105" y="430" type="line"/>
    </contour>
  </outline>
</glyph>
<glyph name="brokenbar" format="2">
  <advance width="250"/>
  <unicode hex="00A6"/>
  <outline>
    <contour>
      <point x="118" y="350" type="line"/>
      <point x="168" y="350" type="line"/>
      <point x="238" y="750" type="line"/>
      <point x="188" y="750" type="line"/>
    </contour>
    <contour>
      <point x="12" y="-250" type="line"/>
      <point x="62" y="-250" type="line"/>
      <point x="132" y="150" type="line"/>
      <point x="82" y="150" type="line"/>
    </contour>
  </outline>
</glyph>
<glyph name="section" format="2">
  <advance width="566"/>
  <unicode hex="00A7"/>
  <outline>
    <contour>
      <point x="404" y="459" type="curve" smooth="yes"/>
      <point x="301" y="494"/>
      <point x="280" y="516"/>
      <point x="280" y="548" type="curve" smooth="yes"/>
      <point x="280" y="586"/>
      <point x="308" y="620"/>
      <point x="363" y="620" type="curve" smooth="yes"/>
      <point x="387" y="620"/>
      <point x="405" y="619"/>
      <point x="420" y="616" type="curve"/>
      <point x="343" y="651" type="line"/>
      <point x="486" y="524" type="line"/>
      <point x="529" y="571" type="line" smooth="yes"/>
      <point x="536" y="579"/>
      <point x="539" y="587"/>
      <point x="539" y="596" type="curve" smooth="yes"/>
      <point x="539" y="631"/>
      <point x="486" y="670"/>
      <point x="390" y="670" type="curve" smooth="yes"/>
      <point x="252" y="670"/>
      <point x="147" y="566"/>
      <point x="147" y="475" type="curve" smooth="yes"/>
      <point x="147" y="417"/>
      <point x="177" y="379"/>
      <point x="278" y="344" type="curve" smooth="yes"/>
      <point x="379" y="309"/>
      <point x="398" y="288"/>
      <point x="398" y="252" type="curve" smooth="yes"/>
      <point x="398" y="220"/>
      <point x="372" y="189"/>
      <point x="336" y="178" type="curve"/>
      <point x="329" y="134" type="line"/>
      <point x="445" y="149"/>
      <point x="539" y="232"/>
      <point x="539" y="322" type="curve" smooth="yes"/>
      <point x="539" y="379"/>
      <point x="507" y="424"/>
    </contour>
    <contour>
      <point x="164" y="86" type="curve" smooth="yes"/>
      <point x="271" y="51"/>
      <point x="288" y="30"/>
      <point x="288" y="-1" type="curve" smooth="yes"/>
      <point x="288" y="-43"/>
      <point x="252" y="-72"/>
      <point x="198" y="-72" type="curve" smooth="yes"/>
      <point x="171" y="-72"/>
      <point x="163" y="-69"/>
      <point x="152" y="-66" type="curve"/>
      <point x="208" y="-90" type="line"/>
      <point x="77" y="21" type="line"/>
      <point x="38" y="-28" type="line" smooth="yes"/>
      <point x="32" y="-36"/>
      <point x="29" y="-44"/>
      <point x="29" y="-53" type="curve" smooth="yes"/>
      <point x="29" y="-86"/>
      <point x="84" y="-122"/>
      <point x="175" y="-122" type="curve" smooth="yes"/>
      <point x="313" y="-122"/>
      <point x="427" y="-24"/>
      <point x="427" y="70" type="curve" smooth="yes"/>
      <point x="427" y="128"/>
      <point x="394" y="169"/>
      <point x="291" y="203" type="curve" smooth="yes"/>
      <point x="188" y="237"/>
      <point x="167" y="262"/>
      <point x="167" y="297" type="curve" smooth="yes"/>
      <point x="167" y="331"/>
      <point x="201" y="367"/>
      <point x="240" y="381" type="curve"/>
      <point x="246" y="414" type="line"/>
      <point x="126" y="400"/>
      <point x="26" y="311"/>
      <point x="26" y="222" type="curve" smooth="yes"/>
      <point x="26" y="163"/>
      <point x="57" y="121"/>
    </contour>
  </outline>
</glyph>
<glyph name="copyright" format="1">
  <advance width="806"/>
  <unicode hex="00A9"/>
  <outline>
    <contour>
      <point x="362" y="-10" type="curve" smooth="yes"/>
      <point x="593" y="-10"/>
      <point x="745" y="163"/>
      <point x="745" y="373" type="curve" smooth="yes"/>
      <point x="745" y="543"/>
      <point x="621" y="670"/>
      <point x="445" y="670" type="curve" smooth="yes"/>
      <point x="213" y="670"/>
      <point x="61" y="497"/>
      <point x="61" y="286" type="curve" smooth="yes"/>
      <point x="61" y="117"/>
      <point x="185" y="-10"/>
    </contour>
    <contour>
      <point x="367" y="25" type="curve" smooth="yes"/>
      <point x="210" y="25"/>
      <point x="103" y="139"/>
      <point x="103" y="289" type="curve" smooth="yes"/>
      <point x="103" y="487"/>
      <point x="245" y="633"/>
      <point x="439" y="633" type="curve" smooth="yes"/>
      <point x="595" y="633"/>
      <point x="703" y="520"/>
      <point x="703" y="370" type="curve" smooth="yes"/>
      <point x="703" y="173"/>
      <point x="560" y="25"/>
    </contour>
    <contour>
      <point x="378" y="129" type="curve" smooth="yes"/>
      <point x="442" y="129"/>
      <point x="479" y="142"/>
      <point x="523" y="164" type="curve"/>
      <point x="549" y="266" type="line"/>
      <point x="523" y="266" type="line"/>
      <point x="416" y="149" type="line"/>
      <point x="494" y="210" type="line"/>
      <point x="470" y="196"/>
      <point x="447" y="175"/>
      <point x="405" y="175" type="curve" smooth="yes"/>
      <point x="348" y="175"/>
      <point x="317" y="221"/>
      <point x="317" y="301" type="curve" smooth="yes"/>
      <point x="317" y="413"/>
      <point x="379" y="496"/>
      <point x="454" y="496" type="curve" smooth="yes"/>
      <point x="483" y="496"/>
      <point x="500" y="484"/>
      <point x="532" y="459" type="curve"/>
      <point x="493" y="502" type="line"/>
      <point x="539" y="394" type="line"/>
      <point x="565" y="394" type="line"/>
      <point x="582" y="509" type="line"/>
      <point x="548" y="528"/>
      <point x="520" y="540"/>
      <point x="458" y="540" type="curve" smooth="yes"/>
      <point x="305" y="540"/>
      <point x="195" y="426"/>
      <point x="195" y="304" type="curve" smooth="yes"/>
      <point x="195" y="196"/>
      <point x="260" y="129"/>
    </contour>
  </outline>
</glyph>
<glyph name="ordfeminine" format="1">
  <advance width="400"/>
  <unicode hex="00AA"/>
  <outline>
    <contour>
      <point x="145" y="417" type="curve" smooth="yes"/>
      <point x="181" y="417"/>
      <point x="208" y="436"/>
      <point x="234" y="474" type="curve"/>
      <point x="253" y="474" type="line"/>
      <point x="253" y="535" type="line"/>
      <point x="240" y="512"/>
      <point x="225" y="478"/>
      <point x="199" y="478" type="curve" smooth="yes"/>
      <point x="188" y="478"/>
      <point x="183" y="491"/>
      <point x="183" y="512" type="curve" smooth="yes"/>
      <point x="183" y="567"/>
      <point x="205" y="643"/>
      <point x="248" y="643" type="curve" smooth="yes"/>
      <point x="260" y="643"/>
      <point x="267" y="638"/>
      <point x="271" y="626" type="curve"/>
      <point x="267" y="649" type="line"/>
      <point x="239" y="490" type="line" smooth="yes"/>
      <point x="233" y="458"/>
      <point x="240" y="417"/>
      <point x="290" y="417" type="curve" smooth="yes"/>
      <point x="324" y="417"/>
      <point x="356" y="436"/>
      <point x="378" y="494" type="curve"/>
      <point x="365" y="499" type="line"/>
      <point x="353" y="471"/>
      <point x="344" y="462"/>
      <point x="334" y="462" type="curve" smooth="yes"/>
      <point x="324" y="462"/>
      <point x="320" y="471"/>
      <point x="324" y="492" type="curve" smooth="yes"/>
      <point x="357" y="670" type="line"/>
      <point x="344" y="670" type="line"/>
      <point x="278" y="645" type="line"/>
      <point x="315" y="652" type="line"/>
      <point x="306" y="663"/>
      <point x="282" y="670"/>
      <point x="259" y="670" type="curve" smooth="yes"/>
      <point x="163" y="670"/>
      <point x="96" y="580"/>
      <point x="96" y="491" type="curve" smooth="yes"/>
      <point x="96" y="442"/>
      <point x="115" y="417"/>
    </contour>
    <contour>
      <point x="70" y="292" type="line"/>
      <point x="323" y="292" type="line"/>
      <point x="332" y="342" type="line"/>
      <point x="79" y="342" type="line"/>
    </contour>
  </outline>
</glyph>
<glyph name="logicalnot" format="1">
  <advance width="600"/>
  <unicode hex="00AC"/>
  <outline>
    <contour>
      <point x="406" y="62" type="line"/>
      <point x="468" y="62" type="line"/>
      <point x="510" y="300" type="line"/>
      <point x="90" y="300" type="line"/>
      <point x="80" y="244" type="line"/>
      <point x="438" y="244" type="line"/>
    </contour>
  </outline>
</glyph>
<glyph name="registered" format="2">
  <advance width="500"/>
  <unicode hex="00AE"/>
  <outline>
    <contour>
      <point x="243" y="220" type="curve" smooth="yes"/>
      <point x="396" y="220"/>
      <point x="496" y="335"/>
      <point x="496" y="474" type="curve" smooth="yes"/>
      <point x="496" y="586"/>
      <point x="414" y="670"/>
      <point x="298" y="670" type="curve" smooth="yes"/>
      <point x="145" y="670"/>
      <point x="44" y="556"/>
      <point x="44" y="416" type="curve" smooth="yes"/>
      <point x="44" y="304"/>
      <point x="126" y="220"/>
    </contour>
    <contour>
      <point x="247" y="251" type="curve" smooth="yes"/>
      <point x="148" y="251"/>
      <point x="80" y="324"/>
      <point x="80" y="419" type="curve" smooth="yes"/>
      <point x="80" y="545"/>
      <point x="170" y="638"/>
      <point x="294" y="638" type="curve" smooth="yes"/>
      <point x="392" y="638"/>
      <point x="461" y="566"/>
      <point x="461" y="471" type="curve" smooth="yes"/>
      <point x="461" y="345"/>
      <point x="370" y="251"/>
    </contour>
    <contour>
      <point x="139" y="319" type="line"/>
      <point x="260" y="319" type="line"/>
      <point x="262" y="326" type="line"/>
      <point x="235" y="342" type="line"/>
      <point x="276" y="574" type="line"/>
      <point x="184" y="574" type="line"/>
      <point x="183" y="568" type="line"/>
      <point x="212" y="552" type="line"/>
      <point x="174" y="342" type="line"/>
      <point x="141" y="326" type="line"/>
    </contour>
    <contour>
      <point x="381" y="517" type="curve" smooth="yes"/>
      <point x="381" y="550"/>
      <point x="356" y="574"/>
      <point x="303" y="574" type="curve" smooth="yes"/>
      <point x="231" y="574" type="line"/>
      <point x="227" y="551" type="line"/>
      <point x="279" y="551" type="line" smooth="yes"/>
      <point x="305" y="551"/>
      <point x="319" y="538"/>
      <point x="319" y="516" type="curve" smooth="yes"/>
      <point x="319" y="478"/>
      <point x="296" y="459"/>
      <point x="259" y="459" type="curve" smooth="yes"/>
      <point x="214" y="459" type="line"/>
      <point x="210" y="436" type="line"/>
      <point x="289" y="436" type="line"/>
      <point x="289" y="445" type="line"/>
      <point x="348" y="451"/>
      <point x="381" y="472"/>
    </contour>
    <contour>
      <point x="292" y="319" type="line"/>
      <point x="377" y="319" type="line"/>
      <point x="379" y="326" type="line"/>
      <point x="355" y="339" type="line"/>
      <point x="319" y="455" type="line"/>
      <point x="261" y="455" type="line"/>
    </contour>
  </outline>
</glyph>
<glyph name="degree" format="1">
  <advance width="500"/>
  <unicode hex="00B0"/>
  <outline>
    <contour>
      <point x="280" y="410" type="curve" smooth="yes"/>
      <point x="355" y="410"/>
      <point x="410" y="470"/>
      <point x="410" y="540" type="curve" smooth="yes"/>
      <point x="410" y="610"/>
      <point x="355" y="670"/>
      <point x="280" y="670" type="curve" smooth="yes"/>
      <point x="205" y="670"/>
      <point x="150" y="610"/>
      <point x="150" y="540" type="curve" smooth="yes"/>
      <point x="150" y="470"/>
      <point x="205" y="410"/>
    </contour>
    <contour>
      <point x="280" y="456" type="curve" smooth="yes"/>
      <point x="237" y="456"/>
      <point x="203" y="488"/>
      <point x="203" y="540" type="curve" smooth="yes"/>
      <point x="203" y="592"/>
      <point x="237" y="624"/>
      <point x="280" y="624" type="curve" smooth="yes"/>
      <point x="323" y="624"/>
      <point x="357" y="592"/>
      <point x="357" y="540" type="curve" smooth="yes"/>
      <point x="357" y="488"/>
      <point x="323" y="456"/>
    </contour>
  </outline>
</glyph>
<glyph name="plusminus" format="1">
  <advance width="600"/>
  <unicode hex="00B1"/>
  <outline>
    <contour>
      <point x="470" y="59" type="line"/>
      <point x="480" y="115" type="line"/>
      <point x="60" y="115" type="line"/>
      <point x="50" y="59" type="line"/>
    </contour>
    <contour>
      <point x="510" y="284" type="line"/>
      <point x="520" y="340" type="line"/>
      <point x="100" y="340" type="line"/>
      <point x="90" y="284" type="line"/>
    </contour>
    <contour>
      <point x="304" y="482" type="line"/>
      <point x="246" y="152" type="line"/>
      <point x="308" y="152" type="line"/>
      <point x="366" y="482" type="line"/>
    </contour>
  </outline>
</glyph>
<glyph name="paragraph" format="1">
  <advance width="533"/>
  <unicode hex="00B6"/>
  <outline>
    <contour>
      <point x="200" y="-110" type="line"/>
      <point x="259" y="-110" type="line"/>
      <point x="395" y="660" type="line"/>
      <point x="280" y="660" type="line" smooth="yes"/>
      <point x="159" y="660"/>
      <point x="80" y="591"/>
      <point x="80" y="489" type="curve" smooth="yes"/>
      <point x="80" y="413"/>
      <point x="145" y="359"/>
      <point x="243" y="359" type="curve" smooth="yes"/>
      <point x="283" y="359" type="line"/>
    </contour>
    <contour>
      <point x="313" y="-110" type="line"/>
      <point x="372" y="-110" type="line"/>
      <point x="498" y="602" type="line"/>
      <point x="585" y="644" type="line"/>
      <point x="588" y="660" type="line"/>
      <point x="449" y="660" type="line"/>
    </contour>
  </outline>
</glyph>
<glyph name="periodcentered" format="2">
  <advance width="250"/>
  <unicode hex="00B7"/>
  <outline>
    <contour>
      <point x="117" y="198" type="curve" smooth="yes"/>
      <point x="164" y="198"/>
      <point x="195" y="239"/>
      <point x="195" y="282" type="curve" smooth="yes"/>
      <point x="195" y="319"/>
      <point x="176" y="346"/>
      <point x="133" y="346" type="curve" smooth="yes"/>
      <point x="87" y="346"/>
      <point x="55" y="305"/>
      <point x="55" y="262" type="curve" smooth="yes"/>
      <point x="55" y="225"/>
      <point x="74" y="198"/>
    </contour>
  </outline>
</glyph>
<glyph name="ordmasculine" format="2">
  <advance width="400"/>
  <unicode hex="00BA"/>
  <outline>
    <contour>
      <point x="226" y="417" type="curve" smooth="yes"/>
      <point x="315" y="417"/>
      <point x="370" y="482"/>
      <point x="370" y="559" type="curve" smooth="yes"/>
      <point x="370" y="624"/>
      <point x="331" y="670"/>
      <point x="255" y="670" type="curve" smooth="yes"/>
      <point x="167" y="670"/>
      <point x="110" y="608"/>
      <point x="110" y="529" type="curve" smooth="yes"/>
      <point x="110" y="463"/>
      <point x="149" y="417"/>
    </contour>
    <contour>
      <point x="229" y="442" type="curve" smooth="yes"/>
      <point x="207" y="442"/>
      <point x="201" y="474"/>
      <point x="201" y="511" type="curve" smooth="yes"/>
      <point x="201" y="564"/>
      <point x="215" y="646"/>
      <point x="253" y="646" type="curve" smooth="yes"/>
      <point x="274" y="646"/>
      <point x="279" y="615"/>
      <point x="279" y="580" type="curve" smooth="yes"/>
      <point x="279" y="526"/>
      <point x="265" y="442"/>
    </contour>
    <contour>
      <point x="70" y="292" type="line"/>
      <point x="323" y="292" type="line"/>
      <point x="332" y="342" type="line"/>
      <point x="79" y="342" type="line"/>
    </contour>
  </outline>
</glyph>
<glyph name="questiondown" format="1">
  <advance width="393"/>
  <unicode hex="00BF"/>
  <outline>
    <contour>
      <point x="221" y="-204" type="curve" smooth="yes"/>
      <point x="269" y="-204"/>
      <point x="282" y="-193"/>
      <point x="282" y="-178" type="curve" smooth="yes"/>
      <point x="282" y="-173"/>
      <point x="280" y="-166"/>
      <point x="277" y="-159" type="curve" smooth="yes"/>
      <point x="244" y="-77" type="line"/>
      <point x="229" y="-71" type="line"/>
      <point x="191" y="-79" type="line" smooth="yes"/>
      <point x="177" y="-82"/>
      <point x="142" y="-84"/>
      <point x="130" y="-84" type="curve" smooth="yes"/>
      <point x="85" y="-84"/>
      <point x="32" y="-80"/>
      <point x="32" y="-50" type="curve" smooth="yes"/>
      <point x="32" y="4"/>
      <point x="262" y="-13"/>
      <point x="262" y="141" type="curve" smooth="yes"/>
      <point x="262" y="181"/>
      <point x="240" y="212"/>
      <point x="221" y="236" type="curve"/>
      <point x="186" y="236" type="line"/>
      <point x="191" y="226"/>
      <point x="195" y="216"/>
      <point x="195" y="201" type="curve" smooth="yes"/>
      <point x="195" y="94"/>
      <point x="-19" y="149"/>
      <point x="-19" y="-20" type="curve" smooth="yes"/>
      <point x="-19" y="-124"/>
      <point x="106" y="-204"/>
    </contour>
    <contour>
      <point x="211" y="323" type="curve" smooth="yes"/>
      <point x="257" y="323"/>
      <point x="289" y="363"/>
      <point x="289" y="407" type="curve" smooth="yes"/>
      <point x="289" y="444"/>
      <point x="270" y="471"/>
      <point x="227" y="471" type="curve" smooth="yes"/>
      <point x="180" y="471"/>
      <point x="149" y="430"/>
      <point x="149" y="387" type="curve" smooth="yes"/>
      <point x="149" y="350"/>
      <point x="168" y="323"/>
    </contour>
  </outline>
</glyph>
<glyph name="AE" format="1">
  <advance width="963"/>
  <unicode hex="00C6"/>
  <outline>
    <contour>
      <point x="-45" y="0" type="line"/>
      <point x="149" y="0" type="line"/>
      <point x="153" y="16" type="line"/>
      <point x="68" y="58" type="line"/>
      <point x="74" y="28" type="line"/>
      <point x="512" y="601" type="line"/>
      <point x="495" y="601" type="line"/>
      <point x="399" y="58" type="line"/>
      <point x="312" y="16" type="line"/>
      <point x="309" y="0" type="line"/>
      <point x="560" y="0" type="line"/>
      <point x="676" y="660" type="line"/>
      <point x="488" y="660" type="line"/>
      <point x="4" y="28" type="line"/>
      <point x="73" y="75" type="line"/>
      <point x="-42" y="16" type="line"/>
    </contour>
    <contour>
      <point x="198" y="227" type="line"/>
      <point x="490" y="227" type="line"/>
      <point x="501" y="282" type="line"/>
      <point x="209" y="282" type="line"/>
    </contour>
    <contour>
      <point x="903" y="486" type="line"/>
      <point x="918" y="486" type="line"/>
      <point x="948" y="660" type="line"/>
      <point x="584" y="660" type="line"/>
      <point x="574" y="605" type="line"/>
      <point x="850" y="605" type="line"/>
    </contour>
    <contour>
      <point x="782" y="227" type="line"/>
      <point x="798" y="227" type="line"/>
      <point x="839" y="456" type="line"/>
      <point x="823" y="456" type="line"/>
      <point x="745" y="368" type="line"/>
      <point x="540" y="368" type="line"/>
      <point x="530" y="313" type="line"/>
      <point x="735" y="313" type="line"/>
    </contour>
    <contour>
      <point x="858" y="0" type="line"/>
      <point x="897" y="219" type="line"/>
      <point x="881" y="219" type="line"/>
      <point x="770" y="55" type="line"/>
      <point x="500" y="55" type="line"/>
      <point x="493" y="0" type="line"/>
    </contour>
    <contour>
      <point x="604" y="710" type="move" name="top"/>
    </contour>
  </outline>
</glyph>
<glyph name="AE" format="2">
  <advance width="963"/>
  <unicode hex="00C6"/>
  <anchor x="604" y="710" name="top"/>
  <outline>
    <contour>
      <point x="-45" y="0" type="line"/>
      <point x="149" y="0" type="line"/>
      <point x="153" y="16" type="line"/>
      <point x="68" y="58" type="line"/>
      <point x="74" y="28" type="line"/>
      <point x="512" y="601" type="line"/>
      <point x="495" y="601" type="line"/>
      <point x="399" y="58" type="line"/>
      <point x="312" y="16" type="line"/>
      <point x="309" y="0" type="line"/>
      <point x="560" y="0" type="line"/>
      <point x="676" y="660" type="line"/>
      <point x="488" y="660" type="line"/>
      <point x="4" y="28" type="line"/>
      <point x="73" y="75" type="line"/>
      <point x="-42" y="16" type="line"/>
    </contour>
    <contour>
      <point x="198" y="227" type="line"/>
      <point x="490" y="227" type="line"/>
      <point x="501" y="282" type="line"/>
      <point x="209" y="282" type="line"/>
    </contour>
    <contour>
      <point x="903" y="486" type="line"/>
      <point x="918" y="486" type="line"/>
      <point x="948" y="660" type="line"/>
      <point x="584" y="660" type="line"/>
      <point x="574" y="605" type="line"/>
      <point x="850" y="605" type="line"/>
    </contour>
    <contour>
      <point x="782" y="227" type="line"/>
      <point x="798" y="227" type="line"/>
      <point x="839" y="456" type="line"/>
      <point x="823" y="456" type="line"/>
      <point x="745" y="368" type="line"/>
      <point x="540" y="368" type="line"/>
      <point x="530" y="313" type="line"/>
      <point x="735" y="313" type="line"/>
    </contour>
    <contour>
      <point x="858" y="0" type="line"/>
      <point x="897" y="219" type="line"/>
      <point x="881" y="219" type="line"/>
      <point x="770" y="55" type="line"/>
      <point x="500" y="55" type="line"/>
      <point x="493" y="0" type="line"/>
    </contour>
  </outline>
</glyph>
<glyph name="Ccedilla" format="2">
  <advance width="662"/>
  <unicode hex="00C7"/>
  <outline>
    <contour>
      <point x="329" y="-10" type="curve" smooth="yes"/>
      <point x="408" y="-10"/>
      <point x="495" y="10"/>
      <point x="546" y="44" type="curve"/>
      <point x="588" y="219" type="line"/>
      <point x="570" y="219" type="line"/>
      <point x="442" y="64" type="line"/>
      <point x="411" y="48"/>
      <point x="381" y="43"/>
      <point x="352" y="43" type="curve" smooth="yes"/>
      <point x="266" y="43"/>
      <point x="217" y="119"/>
      <point x="217" y="234" type="curve" smooth="yes"/>
      <point x="217" y="451"/>
      <point x="314" y="622"/>
      <point x="437" y="622" type="curve" smooth="yes"/>
      <point x="468" y="622"/>
      <point x="486" y="618"/>
      <point x="503" y="607" type="curve"/>
      <point x="583" y="428" type="line"/>
      <point x="601" y="428" type="line"/>
      <point x="618" y="622" type="line"/>
      <point x="574" y="649"/>
      <point x="533" y="670"/>
      <point x="452" y="670" type="curve" smooth="yes"/>
      <point x="220" y="670"/>
      <point x="40" y="473"/>
      <point x="40" y="260" type="curve" smooth="yes"/>
      <point x="40" y="104"/>
      <point x="152" y="-10"/>
    </contour>
    <contour>
      <point x="299" y="-240" type="curve" smooth="yes"/>
      <point x="370" y="-240"/>
      <point x="420" y="-197"/>
      <point x="420" y="-137" type="curve" smooth="yes"/>
      <point x="420" y="-90"/>
      <point x="388" y="-53"/>
      <point x="305" y="-38" type="curve"/>
      <point x="316" y="-61" type="line"/>
      <point x="365" y="27" type="line"/>
      <point x="331" y="27" type="line"/>
      <point x="252" y="-107" type="line"/>
      <point x="318" y="-120"/>
      <point x="339" y="-143"/>
      <point x="339" y="-167" type="curve" smooth="yes"/>
      <point x="339" y="-193"/>
      <point x="317" y="-208"/>
      <point x="283" y="-208" type="curve" smooth="yes"/>
      <point x="267" y="-208"/>
      <point x="246" y="-205"/>
      <point x="234" y="-199" type="curve"/>
      <point x="230" y="-199" type="line"/>
      <point x="226" y="-221" type="line"/>
      <point x="243" y="-232"/>
      <point x="266" y="-240"/>
    </contour>
  </outline>
</glyph>
<glyph name="multiply" format="1">
  <advance width="600"/>
  <unicode hex="00D7"/>
  <outline>
    <contour>
      <point x="120" y="84" type="line"/>
      <point x="512" y="417" type="line"/>
      <point x="476" y="462" type="line"/>
      <point x="85" y="129" type="line"/>
    </contour>
    <contour>
      <point x="139" y="421" type="line"/>
      <point x="411" y="84" type="line"/>
      <point x="458" y="125" type="line"/>
      <point x="186" y="462" type="line"/>
    </contour>
  </outline>
</glyph>
<glyph name="Oslash" format="1">
  <advance width="779"/>
  <unicode hex="00D8"/>
  <outline>
    <contour>
      <point x="339" y="-10" type="curve" smooth="yes"/>
      <point x="575" y="-10"/>
      <point x="739" y="166"/>
      <point x="739" y="390" type="curve" smooth="yes"/>
      <point x="739" y="555"/>
      <point x="633" y="670"/>
      <point x="440" y="670" type="curve" smooth="yes"/>
      <point x="216" y="670"/>
      <point x="40" y="494"/>
      <point x="40" y="271" type="curve" smooth="yes"/>
      <point x="40" y="105"/>
      <point x="145" y="-10"/>
    </contour>
    <contour>
      <point x="349" y="42" type="curve" smooth="yes"/>
      <point x="263" y="42"/>
      <point x="221" y="125"/>
      <point x="221" y="245" type="curve" smooth="yes"/>
      <point x="221" y="445"/>
      <point x="313" y="617"/>
      <point x="431" y="617" type="curve" smooth="yes"/>
      <point x="526" y="617"/>
      <point x="558" y="535"/>
      <point x="558" y="416" type="curve" smooth="yes"/>
      <point x="558" y="214"/>
      <point x="475" y="42"/>
    </contour>
    <contour>
      <point x="-12" y="-10" type="line"/>
      <point x="64" y="-10" type="line"/>
      <point x="791" y="670" type="line"/>
      <point x="715" y="670" type="line"/>
    </contour>
    <contour>
      <point x="455" y="710" type="move" name="top"/>
    </contour>
  </outline>
</glyph>
<glyph name="Thorn" format="2">
  <advance width="626"/>
  <unicode hex="00DE"/>
  <outline>
    <contour>
      <point x="201" y="471" type="line"/>
      <point x="320" y="471" type="line" smooth="yes"/>
      <point x="397" y="471"/>
      <point x="439" y="432"/>
      <point x="439" y="365" type="curve" smooth="yes"/>
      <point x="439" y="278"/>
      <point x="395" y="207"/>
      <point x="294" y="207" type="curve" smooth="yes"/>
      <point x="151" y="207" type="line"/>
      <point x="141" y="162" type="line"/>
      <point x="281" y="162" type="line" smooth="yes"/>
      <point x="514" y="162"/>
      <point x="619" y="255"/>
      <point x="619" y="370" type="curve" smooth="yes"/>
      <point x="619" y="472"/>
      <point x="540" y="526"/>
      <point x="361" y="526" type="curve" smooth="yes"/>
      <point x="214" y="526" type="line"/>
    </contour>
    <contour>
      <point x="416" y="660" type="line"/>
      <point x="86" y="660" type="line"/>
      <point x="83" y="644" type="line"/>
      <point x="156" y="602" type="line"/>
      <point x="60" y="58" type="line"/>
      <point x="-27" y="16" type="line"/>
      <point x="-30" y="0" type="line"/>
      <point x="301" y="0" type="line"/>
      <point x="304" y="16" type="line"/>
      <point x="231" y="58" type="line"/>
      <point x="326" y="602" type="line"/>
      <point x="413" y="644" type="line"/>
    </contour>
  </outline>
</glyph>
<glyph name="Thorn" format="1">
  <advance width="626"/>
  <unicode hex="00DE"/>
  <outline>
    <contour>
      <point x="201" y="471" type="line"/>
      <point x="320" y="471" type="line" smooth="yes"/>
      <point x="397" y="471"/>
      <point x="439" y="432"/>
      <point x="439" y="365" type="curve" smooth="yes"/>
      <point x="439" y="278"/>
      <point x="395" y="207"/>
      <point x="294" y="207" type="curve" smooth="yes"/>
      <point x="151" y="207" type="line"/>
      <point x="141" y="162" type="line"/>
      <point x="281" y="162" type="line" smooth="yes"/>
      <point x="514" y="162"/>
      <point x="619" y="255"/>
      <point x="619" y="370" type="curve" smooth="yes"/>
      <point x="619" y="472"/>
      <point x="540" y="526"/>
      <point x="361" y="526" type="curve" smooth="yes"/>
      <point x="214" y="526" type="line"/>
    </contour>
    <contour>
      <point x="416" y="660" type="line"/>
      <point x="86" y="660" type="line"/>
      <point x="83" y="644" type="line"/>
      <point x="156" y="602" type="line"/>
      <point x="60" y="58" type="line"/>
      <point x="-27" y="16" type="line"/>
      <point x="-30" y="0" type="line"/>
      <point x="301" y="0" type="line"/>
      <point x="304" y="16" type="line"/>
      <point x="231" y="58" type="line"/>
      <point x="326" y="602" type="line"/>
      <point x="413" y="644" type="line"/>
    </contour>
  </outline>
</glyph>
<glyph name="germandbls" format="1">
  <advance width="682.0"/>
  <unicode hex="00DF"/>
  <outline>
    <contour>
      <point x="88" y="413" type="line"/>
      <point x="193" y="413" type="line"/>
      <point x="201" y="460" type="line"/>
      <point x="88" y="460" type="line"/>
    </contour>
    <contour>
      <point x="474" y="41" type="curve" smooth="yes"/>
      <point x="443" y="41"/>
      <point x="423" y="65"/>
      <point x="399" y="95" type="curve" smooth="yes"/>
      <point x="382" y="116" type="line"/>
      <point x="376" y="116" type="line"/>
      <point x="329" y="79" type="line" smooth="yes"/>
      <point x="321" y="73"/>
      <point x="318" y="65"/>
      <point x="318" y="57" type="curve" smooth="yes"/>
      <point x="318" y="44"/>
      <point x="329" y="29"/>
      <point x="348" y="17" type="curve" smooth="yes"/>
      <point x="369" y="2"/>
      <point x="400" y="-10"/>
      <point x="444" y="-10" type="curve" smooth="yes"/>
      <point x="578" y="-10"/>
      <point x="657" y="73"/>
      <point x="657" y="166" type="curve" smooth="yes"/>
      <point x="657" y="205"/>
      <point x="649" y="238"/>
      <point x="603" y="279" type="curve" smooth="yes"/>
      <point x="559" y="318"/>
      <point x="515" y="341"/>
      <point x="515" y="393" type="curve" smooth="yes"/>
      <point x="515" y="499"/>
      <point x="673" y="515"/>
      <point x="673" y="628" type="curve" smooth="yes"/>
      <point x="673.0" y="696.0"/>
      <point x="618.807228916" y="750.0"/>
      <point x="500" y="750" type="curve" smooth="yes"/>
      <point x="324.820121951" y="750.0"/>
      <point x="200.970851498" y="613.929553775"/>
      <point x="179" y="478" type="curve" smooth="yes"/>
      <point x="88" y="-85" type="line" smooth="yes"/>
      <point x="74" y="-170"/>
      <point x="68" y="-183"/>
      <point x="53" y="-183" type="curve" smooth="yes"/>
      <point x="40" y="-183"/>
      <point x="32" y="-179"/>
      <point x="22" y="-169" type="curve" smooth="yes"/>
      <point x="-13" y="-135" type="line"/>
      <point x="-19" y="-135" type="line"/>
      <point x="-57" y="-196" type="line" smooth="yes"/>
      <point x="-61" y="-202"/>
      <point x="-62" y="-207"/>
      <point x="-62" y="-212" type="curve" smooth="yes"/>
      <point x="-62" y="-226"/>
      <point x="-31" y="-240"/>
      <point x="4" y="-240" type="curve" smooth="yes"/>
      <point x="85" y="-240"/>
      <point x="242" y="-100"/>
      <point x="260" y="-2" type="curve" smooth="yes"/>
      <point x="355" y="536" type="line" smooth="yes"/>
      <point x="372.802673796" y="636.819352653"/>
      <point x="407" y="699"/>
      <point x="478" y="699" type="curve" smooth="yes"/>
      <point x="530.416666667" y="699.0"/>
      <point x="552" y="666"/>
      <point x="552" y="619" type="curve" smooth="yes"/>
      <point x="552" y="478"/>
      <point x="386.0" y="443.442675159"/>
      <point x="386" y="304" type="curve" smooth="yes"/>
      <point x="386" y="256"/>
      <point x="410" y="231"/>
      <point x="437" y="208" type="curve" smooth="yes"/>
      <point x="491" y="163"/>
      <point x="539" y="151"/>
      <point x="539" y="100" type="curve" smooth="yes"/>
      <point x="539" y="61"/>
      <point x="516" y="41"/>
    </contour>
  </outline>
</glyph>
<glyph name="ae" format="1">
  <advance width="718"/>
  <unicode hex="00E6"/>
  <outline>
    <contour>
      <point x="126" y="-10" type="curve" smooth="yes"/>
      <point x="195" y="-10"/>
      <point x="241" y="27"/>
      <point x="315" y="127" type="curve"/>
      <point x="308" y="132" type="line"/>
      <point x="319" y="44"/>
      <point x="371" y="-10"/>
      <point x="471" y="-10" type="curve" smooth="yes"/>
      <point x="577" y="-10"/>
      <point x="656" y="72"/>
      <point x="700" y="152" type="curve"/>
      <point x="682" y="170" type="line"/>
      <point x="679" y="170" type="line"/>
      <point x="634" y="137"/>
      <point x="604" y="121"/>
      <point x="564" y="121" type="curve" smooth="yes"/>
      <point x="515" y="121"/>
      <point x="469" y="163"/>
      <point x="469" y="227" type="curve" smooth="yes"/>
      <point x="469" y="342"/>
      <point x="521" y="425"/>
      <point x="563" y="425" type="curve" smooth="yes"/>
      <point x="588" y="425"/>
      <point x="593" y="409"/>
      <point x="593" y="394" type="curve" smooth="yes"/>
      <point x="593" y="351"/>
      <point x="552" y="303"/>
      <point x="425" y="268" type="curve"/>
      <point x="437" y="236" type="line"/>
      <point x="654" y="290"/>
      <point x="708" y="332"/>
      <point x="708" y="388" type="curve" smooth="yes"/>
      <point x="708" y="434"/>
      <point x="670" y="470"/>
      <point x="600" y="470" type="curve" smooth="yes"/>
      <point x="535" y="470"/>
      <point x="477" y="448"/>
      <point x="430" y="413" type="curve"/>
      <point x="482" y="413" type="line"/>
      <point x="454" y="452"/>
      <point x="405" y="470"/>
      <point x="348" y="470" type="curve" smooth="yes"/>
      <point x="204" y="470"/>
      <point x="30" y="324"/>
      <point x="30" y="115" type="curve" smooth="yes"/>
      <point x="30" y="36"/>
      <point x="70" y="-10"/>
    </contour>
    <contour>
      <point x="231" y="99" type="curve" smooth="yes"/>
      <point x="209" y="99"/>
      <point x="200" y="122"/>
      <point x="200" y="178" type="curve" smooth="yes"/>
      <point x="200.0" y="307.0"/>
      <point x="240" y="420"/>
      <point x="324" y="420" type="curve" smooth="yes"/>
      <point x="361.5375" y="420.0"/>
      <point x="381" y="397"/>
      <point x="401" y="365" type="curve"/>
      <point x="403" y="390" type="line"/>
      <point x="342" y="332"/>
      <point x="306" y="250"/>
      <point x="306" y="171" type="curve" smooth="yes"/>
      <point x="306" y="162"/>
      <point x="306" y="154"/>
      <point x="307" y="146" type="curve"/>
      <point x="308" y="160" type="line"/>
      <point x="280" y="123"/>
      <point x="258" y="99"/>
    </contour>
    <contour>
      <point x="319" y="135" type="line"/>
      <point x="294" y="114" type="line"/>
      <point x="315" y="114" type="line"/>
    </contour>
    <contour>
      <point x="452" y="510" type="move" name="top"/>
    </contour>
  </outline>
</glyph>
<glyph name="ccedilla" format="1">
  <advance width="449"/>
  <unicode hex="00E7"/>
  <outline>
    <contour>
      <point x="196" y="-10" type="curve" smooth="yes"/>
      <point x="299" y="-10"/>
      <point x="375" y="73"/>
      <point x="419" y="152" type="curve"/>
      <point x="401" y="170" type="line"/>
      <point x="398" y="170" type="line"/>
      <point x="353" y="137"/>
      <point x="323" y="121"/>
      <point x="283" y="121" type="curve" smooth="yes"/>
      <point x="234" y="121"/>
      <point x="188" y="163"/>
      <point x="188" y="227" type="curve" smooth="yes"/>
      <point x="188" y="338"/>
      <point x="240" y="425"/>
      <point x="289" y="425" type="curve" smooth="yes"/>
      <point x="323" y="425"/>
      <point x="330" y="398"/>
      <point x="345" y="367" type="curve" smooth="yes"/>
      <point x="367" y="322" type="line"/>
      <point x="373" y="322" type="line"/>
      <point x="429" y="367" type="line" smooth="yes"/>
      <point x="440" y="376"/>
      <point x="444" y="386"/>
      <point x="444" y="396" type="curve" smooth="yes"/>
      <point x="444" y="403"/>
      <point x="443" y="408"/>
      <point x="436" y="421" type="curve" smooth="yes"/>
      <point x="416" y="451"/>
      <point x="373" y="470"/>
      <point x="313" y="470" type="curve" smooth="yes"/>
      <point x="161" y="470"/>
      <point x="25" y="329"/>
      <point x="25" y="170" type="curve" smooth="yes"/>
      <point x="25" y="57"/>
      <point x="76" y="-10"/>
    </contour>
    <contour>
      <point x="164" y="-240" type="curve" smooth="yes"/>
      <point x="235" y="-240"/>
      <point x="285" y="-197"/>
      <point x="285" y="-137" type="curve" smooth="yes"/>
      <point x="285" y="-90"/>
      <point x="253" y="-53"/>
      <point x="170" y="-38" type="curve"/>
      <point x="181" y="-61" type="line"/>
      <point x="230" y="27" type="line"/>
      <point x="196" y="27" type="line"/>
      <point x="117" y="-107" type="line"/>
      <point x="183" y="-120"/>
      <point x="204" y="-143"/>
      <point x="204" y="-167" type="curve" smooth="yes"/>
      <point x="204" y="-193"/>
      <point x="182" y="-208"/>
      <point x="148" y="-208" type="curve" smooth="yes"/>
      <point x="132" y="-208"/>
      <point x="111" y="-205"/>
      <point x="99" y="-199" type="curve"/>
      <point x="95" y="-199" type="line"/>
      <point x="91" y="-221" type="line"/>
      <point x="108" y="-232"/>
      <point x="131" y="-240"/>
    </contour>
  </outline>
</glyph>
<glyph name="eth" format="1">
  <advance width="506"/>
  <unicode hex="00F0"/>
  <outline>
    <contour>
      <point x="222" y="-10" type="curve" smooth="yes"/>
      <point x="383" y="-10"/>
      <point x="502" y="134"/>
      <point x="502" y="330" type="curve" smooth="yes"/>
      <point x="502" y="533"/>
      <point x="359" y="700"/>
      <point x="132" y="749" type="curve"/>
      <point x="124" y="722" type="line"/>
      <point x="262.2015465534116" y="667.5263977088742"/>
      <point x="335.0" y="566.7301587301588"/>
      <point x="335" y="387" type="curve" smooth="yes"/>
      <point x="335" y="185"/>
      <point x="284" y="43"/>
      <point x="232" y="43" type="curve" smooth="yes"/>
      <point x="201" y="43"/>
      <point x="184" y="77"/>
      <point x="184" y="145" type="curve" smooth="yes"/>
      <point x="184" y="326"/>
      <point x="233" y="418"/>
      <point x="293" y="418" type="curve" smooth="yes"/>
      <point x="335.508474576" y="418.0"/>
      <point x="345" y="383"/>
      <point x="359" y="342" type="curve"/>
      <point x="399" y="439" type="line"/>
      <point x="368" y="454"/>
      <point x="342" y="470"/>
      <point x="286" y="470" type="curve" smooth="yes"/>
      <point x="134" y="470"/>
      <point x="23" y="331"/>
      <point x="23" y="190" type="curve" smooth="yes"/>
      <point x="23" y="74"/>
      <point x="99" y="-10"/>
    </contour>
    <contour>
      <point x="149" y="523" type="line"/>
      <point x="227" y="523" type="line"/>
      <point x="512" y="740" type="line"/>
      <point x="434" y="740" type="line"/>
    </contour>
  </outline>
</glyph>
<glyph name="divide" format="1">
  <advance width="600"/>
  <unicode hex="00F7"/>
  <outline>
    <contour>
      <point x="235" y="134" type="line"/>
      <point x="222" y="62" type="line"/>
      <point x="294" y="62" type="line"/>
      <point x="307" y="134" type="line"/>
    </contour>
    <contour>
      <point x="500" y="244" type="line"/>
      <point x="510" y="300" type="line"/>
      <point x="90" y="300" type="line"/>
      <point x="80" y="244" type="line"/>
    </contour>
    <contour>
      <point x="296" y="482" type="line"/>
      <point x="283" y="410" type="line"/>
      <point x="355" y="410" type="line"/>
      <point x="368" y="482" type="line"/>
    </contour>
  </outline>
</glyph>
<glyph name="oslash" format="1">
  <advance width="506"/>
  <unicode hex="00F8"/>
  <outline>
    <contour>
      <point x="218" y="-10" type="curve" smooth="yes"/>
      <point x="377" y="-10"/>
      <point x="481" y="128"/>
      <point x="481" y="263" type="curve" smooth="yes"/>
      <point x="481" y="379"/>
      <point x="415" y="470"/>
      <point x="275" y="470" type="curve" smooth="yes"/>
      <point x="136" y="470"/>
      <point x="25" y="339"/>
      <point x="25" y="197" type="curve" smooth="yes"/>
      <point x="25" y="83"/>
      <point x="89" y="-10"/>
    </contour>
    <contour>
      <point x="233" y="43" type="curve" smooth="yes"/>
      <point x="198" y="43"/>
      <point x="185" y="94"/>
      <point x="185" y="166" type="curve" smooth="yes"/>
      <point x="185" y="299"/>
      <point x="226" y="418"/>
      <point x="274" y="418" type="curve" smooth="yes"/>
      <point x="305" y="418"/>
      <point x="321" y="381"/>
      <point x="321" y="299" type="curve" smooth="yes"/>
      <point x="321" y="167"/>
      <point x="281" y="43"/>
    </contour>
    <contour>
      <point x="-6" y="0" type="line"/>
      <point x="63" y="0" type="line"/>
      <point x="512" y="460" type="line"/>
      <point x="443" y="460" type="line"/>
    </contour>
    <contour>
      <point x="303.0" y="510.0" type="move" name="top"/>
    </contour>
  </outline>
</glyph>
<glyph name="thorn" format="2">
  <advance width="548"/>
  <unicode hex="00FE"/>
  <outline>
    <contour>
      <point x="-64" y="-230" type="line"/>
      <point x="247" y="-230" type="line"/>
      <point x="247" y="-214" type="line"/>
      <point x="161" y="-181" type="line"/>
      <point x="198" y="27" type="line"/>
      <point x="110" y="41" type="line"/>
      <point x="141" y="8"/>
      <point x="186" y="-10"/>
      <point x="250" y="-10" type="curve" smooth="yes"/>
      <point x="394" y="-10"/>
      <point x="518" y="135"/>
      <point x="518" y="321" type="curve" smooth="yes"/>
      <point x="518" y="414"/>
      <point x="473" y="470"/>
      <point x="409" y="470" type="curve" smooth="yes"/>
      <point x="347" y="470"/>
      <point x="324" y="449"/>
      <point x="265" y="377" type="curve"/>
      <point x="239" y="377" type="line"/>
      <point x="239" y="307" type="line"/>
      <point x="261" y="336"/>
      <point x="287" y="361"/>
      <point x="316" y="361" type="curve" smooth="yes"/>
      <point x="343" y="361"/>
      <point x="353" y="330"/>
      <point x="353" y="291" type="curve" smooth="yes"/>
      <point x="353" y="140"/>
      <point x="302" y="34"/>
      <point x="244" y="34" type="curve" smooth="yes"/>
      <point x="219" y="34"/>
      <point x="205" y="53"/>
      <point x="201" y="83" type="curve"/>
      <point x="201" y="46" type="line"/>
      <point x="323" y="750" type="line"/>
      <point x="320" y="750" type="line"/>
      <point x="76" y="710" type="line"/>
      <point x="76" y="694" type="line"/>
      <point x="145" y="661" type="line"/>
      <point x="-3" y="-182" type="line"/>
      <point x="-64" y="-214" type="line"/>
    </contour>
  </outline>
</glyph>
<glyph name="Aogonek" format="2">
  <advance width="719"/>
  <unicode hex="0104"/>
  <outline>
    <contour>
      <point x="-45" y="0" type="line"/>
      <point x="149" y="0" type="line"/>
      <point x="153" y="16" type="line"/>
      <point x="68" y="58" type="line"/>
      <point x="70" y="28" type="line"/>
      <point x="355" y="539" type="line"/>
      <point x="315" y="539" type="line"/>
      <point x="416" y="28" type="line"/>
      <point x="433" y="62" type="line"/>
      <point x="327" y="16" type="line"/>
      <point x="324" y="0" type="line"/>
      <point x="648" y="0" type="line"/>
      <point x="651" y="16" type="line"/>
      <point x="561" y="74" type="line"/>
      <point x="599" y="28" type="line"/>
      <point x="467" y="665" type="line"/>
      <point x="364" y="665" type="line"/>
      <point x="4" y="28" type="line"/>
      <point x="73" y="80" type="line"/>
      <point x="-42" y="16" type="line"/>
    </contour>
    <contour>
      <point x="139" y="207" type="line"/>
      <point x="490" y="207" type="line"/>
      <point x="501" y="262" type="line"/>
      <point x="150" y="262" type="line"/>
    </contour>
    <contour>
      <point x="475" y="-240" type="curve" smooth="yes"/>
      <point x="519" y="-240"/>
      <point x="550" y="-220"/>
      <point x="570" y="-189" type="curve"/>
      <point x="576" y="-167" type="line"/>
      <point x="572" y="-167" type="line"/>
      <point x="562" y="-177"/>
      <point x="544" y="-183"/>
      <point x="530" y="-183" type="curve" smooth="yes"/>
      <point x="495" y="-183"/>
      <point x="477" y="-164"/>
      <point x="477" y="-130" type="curve" smooth="yes"/>
      <point x="477" y="-76"/>
      <point x="504" y="-19"/>
      <point x="535" y="27" type="curve"/>
      <point x="512" y="27" type="line"/>
      <point x="450" y="-25"/>
      <point x="384" y="-89"/>
      <point x="384" y="-160" type="curve" smooth="yes"/>
      <point x="384" y="-209"/>
      <point x="418" y="-240"/>
    </contour>
  </outline>
</glyph>
<glyph name="Aogonek" format="1">
  <advance width="719.0"/>
  <unicode hex="0104"/>
  <outline>
    <contour>
      <point x="-45" y="0" type="line"/>
      <point x="149" y="0" type="line"/>
      <point x="153" y="16" type="line"/>
      <point x="68" y="58" type="line"/>
      <point x="70" y="28" type="line"/>
      <point x="355" y="539" type="line"/>
      <point x="315" y="539" type="line"/>
      <point x="416" y="28" type="line"/>
      <point x="433" y="62" type="line"/>
      <point x="327" y="16" type="line"/>
      <point x="324" y="0" type="line"/>
      <point x="648" y="0" type="line"/>
      <point x="651" y="16" type="line"/>
      <point x="561" y="74" type="line"/>
      <point x="599" y="28" type="line"/>
      <point x="467" y="665" type="line"/>
      <point x="364" y="665" type="line"/>
      <point x="4" y="28" type="line"/>
      <point x="73" y="80" type="line"/>
      <point x="-42" y="16" type="line"/>
    </contour>
    <contour>
      <point x="139" y="207" type="line"/>
      <point x="490" y="207" type="line"/>
      <point x="501" y="262" type="line"/>
      <point x="150" y="262" type="line"/>
    </contour>
    <contour>
      <point x="475" y="-240" type="curve" smooth="yes"/>
      <point x="519" y="-240"/>
      <point x="550" y="-220"/>
      <point x="570" y="-189" type="curve"/>
      <point x="576" y="-167" type="line"/>
      <point x="572" y="-167" type="line"/>
      <point x="562" y="-177"/>
      <point x="544" y="-183"/>
      <point x="530" y="-183" type="curve" smooth="yes"/>
      <point x="495" y="-183"/>
      <point x="477" y="-164"/>
      <point x="477" y="-130" type="curve" smooth="yes"/>
      <point x="477" y="-76"/>
      <point x="504" y="-19"/>
      <point x="535" y="27" type="curve"/>
      <point x="512" y="27" type="line"/>
      <point x="450" y="-25"/>
      <point x="384" y="-89"/>
      <point x="384" y="-160" type="curve" smooth="yes"/>
      <point x="384" y="-209"/>
      <point x="418" y="-240"/>
    </contour>
  </outline>
</glyph>
<glyph name="aogonek" format="2">
  <advance width="562"/>
  <unicode hex="0105"/>
  <outline>
    <contour>
      <point x="126.0" y="-10.0" type="curve" smooth="yes"/>
      <point x="193.0" y="-10.0"/>
      <point x="232.0" y="20.0"/>
      <point x="302.0" y="111.0" type="curve"/>
      <point x="308.0" y="160.0" type="line"/>
      <point x="280.0" y="123.0"/>
      <point x="258.0" y="99.0"/>
      <point x="231.0" y="99.0" type="curve" smooth="yes"/>
      <point x="209.0" y="99.0"/>
      <point x="200.0" y="122.0"/>
      <point x="200.0" y="178.0" type="curve" smooth="yes"/>
      <point x="200.0" y="307.0"/>
      <point x="245.0" y="420.0"/>
      <point x="308.0" y="420.0" type="curve" smooth="yes"/>
      <point x="327.0" y="420.0"/>
      <point x="342.0" y="413.0"/>
      <point x="352.0" y="402.0" type="curve"/>
      <point x="344.0" y="414.0" type="line"/>
      <point x="299.0" y="150.0" type="line" smooth="yes"/>
      <point x="281.0" y="43.0"/>
      <point x="321" y="-10"/>
      <point x="399" y="-10" type="curve" smooth="yes"/>
      <point x="408" y="-10"/>
      <point x="417" y="-9"/>
      <point x="425" y="-7" type="curve"/>
      <point x="457" y="27" type="line"/>
      <point x="389" y="-33"/>
      <point x="329" y="-88"/>
      <point x="329" y="-160" type="curve" smooth="yes"/>
      <point x="329" y="-209"/>
      <point x="363" y="-240"/>
      <point x="420" y="-240" type="curve" smooth="yes"/>
      <point x="464" y="-240"/>
      <point x="495" y="-220"/>
      <point x="515" y="-189" type="curve"/>
      <point x="521" y="-167" type="line"/>
      <point x="517" y="-167" type="line"/>
      <point x="507" y="-177"/>
      <point x="489" y="-183"/>
      <point x="475" y="-183" type="curve" smooth="yes"/>
      <point x="440" y="-183"/>
      <point x="422" y="-164"/>
      <point x="422" y="-130" type="curve" smooth="yes"/>
      <point x="422.0" y="-76.0"/>
      <point x="448.878849654" y="-17.7749368463"/>
      <point x="481" y="27" type="curve"/>
      <point x="508" y="59"/>
      <point x="538.845138342" y="100.576168095"/>
      <point x="558.0" y="153.0" type="curve"/>
      <point x="536.0" y="160.0" type="line"/>
      <point x="512.0" y="106.0"/>
      <point x="493.0" y="89.0"/>
      <point x="475.0" y="89.0" type="curve" smooth="yes"/>
      <point x="459.0" y="89.0"/>
      <point x="453.0" y="107.0"/>
      <point x="457.0" y="131.0" type="curve" smooth="yes"/>
      <point x="514.0" y="460.0" type="line"/>
      <point x="498.0" y="460.0" type="line"/>
      <point x="406.0" y="433.0" type="line"/>
      <point x="442.0" y="436.0" type="line"/>
      <point x="422.0" y="458.0"/>
      <point x="390.0" y="470.0"/>
      <point x="348.0" y="470.0" type="curve" smooth="yes"/>
      <point x="204.0" y="470.0"/>
      <point x="30.0" y="324.0"/>
      <point x="30.0" y="115.0" type="curve" smooth="yes"/>
      <point x="30.0" y="36.0"/>
      <point x="70.0" y="-10.0"/>
    </contour>
    <contour>
      <point x="309" y="123" type="line"/>
      <point x="284" y="102" type="line"/>
      <point x="305" y="102" type="line"/>
    </contour>
  </outline>
</glyph>
<glyph name="Dcroat" format="1">
  <advance width="757"/>
  <unicode hex="0110"/>
  <outline>
    <contour>
      <point x="-30" y="0" type="line"/>
      <point x="217" y="0" type="line"/>
      <point x="334" y="660" type="line"/>
      <point x="86" y="660" type="line"/>
      <point x="83" y="644" type="line"/>
      <point x="152" y="604" type="line"/>
      <point x="56" y="56" type="line"/>
      <point x="-27" y="16" type="line"/>
    </contour>
    <contour>
      <point x="285" y="0" type="line" smooth="yes"/>
      <point x="523" y="0"/>
      <point x="717" y="160"/>
      <point x="717" y="375" type="curve" smooth="yes"/>
      <point x="717" y="547"/>
      <point x="595" y="660"/>
      <point x="375" y="660" type="curve" smooth="yes"/>
      <point x="292" y="660" type="line"/>
      <point x="283" y="607" type="line"/>
      <point x="348" y="607" type="line" smooth="yes"/>
      <point x="467" y="607"/>
      <point x="541" y="523"/>
      <point x="541" y="387" type="curve" smooth="yes"/>
      <point x="541" y="186"/>
      <point x="431" y="48"/>
      <point x="298" y="48" type="curve" smooth="yes"/>
      <point x="172" y="48" type="line"/>
      <point x="159" y="0" type="line"/>
    </contour>
    <contour>
      <point x="25" y="315" type="line"/>
      <point x="394" y="315" type="line"/>
      <point x="403" y="367" type="line"/>
      <point x="34" y="367" type="line"/>
    </contour>
  </outline>
</glyph>
<glyph name="dcroat" format="2">
  <advance width="565"/>
  <unicode hex="0111"/>
  <outline>
    <contour>
      <point x="242" y="538" type="line"/>
      <point x="596" y="538" type="line"/>
      <point x="606" y="585" type="line"/>
      <point x="252" y="585" type="line"/>
    </contour>
    <contour>
      <point x="126" y="-10" type="curve" smooth="yes"/>
      <point x="189" y="-10"/>
      <point x="227" y="16"/>
      <point x="289" y="94" type="curve"/>
      <point x="308" y="94" type="line"/>
      <point x="308" y="160" type="line"/>
      <point x="280" y="123"/>
      <point x="258" y="99"/>
      <point x="231" y="99" type="curve" smooth="yes"/>
      <point x="209" y="99"/>
      <point x="200" y="122"/>
      <point x="200" y="178" type="curve" smooth="yes"/>
      <point x="200" y="307"/>
      <point x="245" y="421"/>
      <point x="308" y="421" type="curve" smooth="yes"/>
      <point x="335" y="421"/>
      <point x="348" y="407"/>
      <point x="354" y="401" type="curve"/>
      <point x="344" y="414" type="line"/>
      <point x="299" y="150" type="line" smooth="yes"/>
      <point x="281" y="43"/>
      <point x="321" y="-10"/>
      <point x="399" y="-10" type="curve" smooth="yes"/>
      <point x="474" y="-10"/>
      <point x="522" y="55"/>
      <point x="558" y="153" type="curve"/>
      <point x="536" y="160" type="line"/>
      <point x="512" y="106"/>
      <point x="493" y="89"/>
      <point x="475" y="89" type="curve" smooth="yes"/>
      <point x="459" y="89"/>
      <point x="453" y="107"/>
      <point x="457" y="131" type="curve" smooth="yes"/>
      <point x="565" y="750" type="line"/>
      <point x="562" y="750" type="line"/>
      <point x="309" y="710" type="line"/>
      <point x="309" y="694" type="line"/>
      <point x="387" y="662" type="line"/>
      <point x="348" y="436" type="line"/>
      <point x="442" y="436" type="line"/>
      <point x="422" y="458"/>
      <point x="390" y="470"/>
      <point x="348" y="470" type="curve" smooth="yes"/>
      <point x="204" y="470"/>
      <point x="30" y="324"/>
      <point x="30" y="115" type="curve" smooth="yes"/>
      <point x="30" y="36"/>
      <point x="70" y="-10"/>
    </contour>
  </outline>
</glyph>
<glyph name="Eogonek" format="1">
  <advance width="624.0"/>
  <unicode hex="0118"/>
  <outline>
    <contour>
      <point x="-30" y="0" type="line"/>
      <point x="221" y="0" type="line"/>
      <point x="337" y="660" type="line"/>
      <point x="86" y="660" type="line"/>
      <point x="83" y="644" type="line"/>
      <point x="156" y="602" type="line"/>
      <point x="60" y="58" type="line"/>
      <point x="-27" y="16" type="line"/>
    </contour>
    <contour>
      <point x="564" y="486" type="line"/>
      <point x="579" y="486" type="line"/>
      <point x="609" y="660" type="line"/>
      <point x="245" y="660" type="line"/>
      <point x="235" y="605" type="line"/>
      <point x="511" y="605" type="line"/>
    </contour>
    <contour>
      <point x="444" y="232" type="line"/>
      <point x="460" y="232" type="line"/>
      <point x="499" y="451" type="line"/>
      <point x="483" y="451" type="line"/>
      <point x="405" y="363" type="line"/>
      <point x="210" y="363" type="line"/>
      <point x="202" y="318" type="line"/>
      <point x="397" y="318" type="line"/>
    </contour>
    <contour>
      <point x="519" y="0" type="line"/>
      <point x="558" y="219" type="line"/>
      <point x="542" y="219" type="line"/>
      <point x="431" y="55" type="line"/>
      <point x="161" y="55" type="line"/>
      <point x="154" y="0" type="line"/>
    </contour>
    <contour>
      <point x="393" y="-240" type="curve" smooth="yes"/>
      <point x="437" y="-240"/>
      <point x="468" y="-220"/>
      <point x="488" y="-189" type="curve"/>
      <point x="494" y="-167" type="line"/>
      <point x="490" y="-167" type="line"/>
      <point x="480" y="-177"/>
      <point x="462" y="-183"/>
      <point x="448" y="-183" type="curve" smooth="yes"/>
      <point x="413" y="-183"/>
      <point x="395" y="-164"/>
      <point x="395" y="-130" type="curve" smooth="yes"/>
      <point x="395" y="-76"/>
      <point x="422" y="-19"/>
      <point x="453" y="27" type="curve"/>
      <point x="430" y="27" type="line"/>
      <point x="368" y="-25"/>
      <point x="302" y="-89"/>
      <point x="302" y="-160" type="curve" smooth="yes"/>
      <point x="302" y="-209"/>
      <point x="336" y="-240"/>
    </contour>
  </outline>
</glyph>
<glyph name="eogonek" format="1">
  <advance width="437"/>
  <unicode hex="0119"/>
  <outline>
    <contour>
      <point x="190" y="-10" type="curve" smooth="yes"/>
      <point x="216" y="-10"/>
      <point x="240" y="-5"/>
      <point x="263" y="3" type="curve"/>
      <point x="283" y="27" type="line"/>
      <point x="221" y="-30"/>
      <point x="158.0" y="-89.0"/>
      <point x="158" y="-160" type="curve" smooth="yes"/>
      <point x="158" y="-209"/>
      <point x="192" y="-240"/>
      <point x="249" y="-240" type="curve" smooth="yes"/>
      <point x="293" y="-240"/>
      <point x="324" y="-220"/>
      <point x="344" y="-189" type="curve"/>
      <point x="350" y="-167" type="line"/>
      <point x="346" y="-167" type="line"/>
      <point x="336" y="-177"/>
      <point x="318" y="-183"/>
      <point x="304" y="-183" type="curve" smooth="yes"/>
      <point x="269" y="-183"/>
      <point x="251" y="-164"/>
      <point x="251" y="-130" type="curve" smooth="yes"/>
      <point x="251.0" y="-77.3619631902"/>
      <point x="279" y="-14"/>
      <point x="312" y="26" type="curve"/>
      <point x="349" y="64"/>
      <point x="394.469800071" y="107.205721869"/>
      <point x="419" y="152" type="curve"/>
      <point x="401" y="170" type="line"/>
      <point x="398" y="170" type="line"/>
      <point x="353" y="137"/>
      <point x="323" y="121"/>
      <point x="283" y="121" type="curve" smooth="yes"/>
      <point x="234" y="121"/>
      <point x="188" y="163"/>
      <point x="188" y="227" type="curve" smooth="yes"/>
      <point x="188" y="342"/>
      <point x="240" y="425"/>
      <point x="282" y="425" type="curve" smooth="yes"/>
      <point x="307" y="425"/>
      <point x="312" y="409"/>
      <point x="312" y="394" type="curve" smooth="yes"/>
      <point x="312" y="351"/>
      <point x="271" y="303"/>
      <point x="144" y="268" type="curve"/>
      <point x="156" y="236" type="line"/>
      <point x="373" y="290"/>
      <point x="427" y="332"/>
      <point x="427" y="388" type="curve" smooth="yes"/>
      <point x="427" y="434"/>
      <point x="389" y="470"/>
      <point x="319" y="470" type="curve" smooth="yes"/>
      <point x="145" y="470"/>
      <point x="25" y="315"/>
      <point x="25" y="171" type="curve" smooth="yes"/>
      <point x="25" y="60"/>
      <point x="76" y="-10"/>
    </contour>
  </outline>
</glyph>
<glyph name="Hbar" format="2">
  <advance width="769"/>
  <unicode hex="0126"/>
  <outline>
    <contour>
      <point x="-30" y="0" type="line"/>
      <point x="291" y="0" type="line"/>
      <point x="294" y="16" type="line"/>
      <point x="231" y="58" type="line"/>
      <point x="327" y="602" type="line"/>
      <point x="404" y="644" type="line"/>
      <point x="407" y="660" type="line"/>
      <point x="86" y="660" type="line"/>
      <point x="83" y="644" type="line"/>
      <point x="156" y="602" type="line"/>
      <point x="60" y="58" type="line"/>
      <point x="-27" y="16" type="line"/>
    </contour>
    <contour>
      <point x="192" y="313" type="line"/>
      <point x="579" y="313" type="line"/>
      <point x="590" y="368" type="line"/>
      <point x="203" y="368" type="line"/>
    </contour>
    <contour>
      <point x="363" y="0" type="line"/>
      <point x="683" y="0" type="line"/>
      <point x="686" y="16" type="line"/>
      <point x="615" y="58" type="line"/>
      <point x="711" y="602" type="line"/>
      <point x="796" y="644" type="line"/>
      <point x="799" y="660" type="line"/>
      <point x="479" y="660" type="line"/>
      <point x="476" y="644" type="line"/>
      <point x="540" y="602" type="line"/>
      <point x="444" y="58" type="line"/>
      <point x="366" y="16" type="line"/>
    </contour>
    <contour>
      <point x="52" y="469" type="line"/>
      <point x="763" y="469" type="line"/>
      <point x="774" y="521" type="line"/>
      <point x="63" y="521" type="line"/>
    </contour>
  </outline>
</glyph>
<glyph name="Hbar" format="1">
  <advance width="769"/>
  <unicode hex="0126"/>
  <outline>
    <contour>
      <point x="-30" y="0" type="line"/>
      <point x="291" y="0" type="line"/>
      <point x="294" y="16" type="line"/>
      <point x="231" y="58" type="line"/>
      <point x="327" y="602" type="line"/>
      <point x="404" y="644" type="line"/>
      <point x="407" y="660" type="line"/>
      <point x="86" y="660" type="line"/>
      <point x="83" y="644" type="line"/>
      <point x="156" y="602" type="line"/>
      <point x="60" y="58" type="line"/>
      <point x="-27" y="16" type="line"/>
    </contour>
    <contour>
      <point x="192" y="313" type="line"/>
      <point x="579" y="313" type="line"/>
      <point x="590" y="368" type="line"/>
      <point x="203" y="368" type="line"/>
    </contour>
    <contour>
      <point x="363" y="0" type="line"/>
      <point x="683" y="0" type="line"/>
      <point x="686" y="16" type="line"/>
      <point x="615" y="58" type="line"/>
      <point x="711" y="602" type="line"/>
      <point x="796" y="644" type="line"/>
      <point x="799" y="660" type="line"/>
      <point x="479" y="660" type="line"/>
      <point x="476" y="644" type="line"/>
      <point x="540" y="602" type="line"/>
      <point x="444" y="58" type="line"/>
      <point x="366" y="16" type="line"/>
    </contour>
    <contour>
      <point x="52" y="469" type="line"/>
      <point x="763" y="469" type="line"/>
      <point x="774" y="521" type="line"/>
      <point x="63" y="521" type="line"/>
    </contour>
  </outline>
</glyph>
<glyph name="hbar" format="1">
  <advance width="574.0"/>
  <unicode hex="0127"/>
  <outline>
    <contour>
      <point x="20" y="0" type="line"/>
      <point x="183" y="0" type="line"/>
      <point x="313" y="750" type="line"/>
      <point x="310" y="750" type="line"/>
      <point x="66" y="710" type="line"/>
      <point x="66" y="694" type="line"/>
      <point x="135" y="661" type="line"/>
    </contour>
    <contour>
      <point x="37" y="525" type="line"/>
      <point x="418" y="525" type="line"/>
      <point x="427" y="572" type="line"/>
      <point x="46" y="572" type="line"/>
    </contour>
    <contour>
      <point x="411" y="-10" type="curve" smooth="yes"/>
      <point x="486" y="-10"/>
      <point x="534" y="55"/>
      <point x="570" y="153" type="curve"/>
      <point x="548" y="160" type="line"/>
      <point x="524" y="106"/>
      <point x="505" y="89"/>
      <point x="487" y="89" type="curve" smooth="yes"/>
      <point x="471" y="89"/>
      <point x="465" y="107"/>
      <point x="469" y="131" type="curve" smooth="yes"/>
      <point x="502" y="322" type="line" smooth="yes"/>
      <point x="518" y="413"/>
      <point x="475" y="470"/>
      <point x="403" y="470" type="curve" smooth="yes"/>
      <point x="343" y="470"/>
      <point x="314" y="446"/>
      <point x="255" y="381" type="curve"/>
      <point x="228" y="381" type="line"/>
      <point x="228" y="317" type="line"/>
      <point x="252" y="346"/>
      <point x="279" y="371"/>
      <point x="308" y="371" type="curve" smooth="yes"/>
      <point x="338" y="371"/>
      <point x="345" y="346"/>
      <point x="340" y="317" type="curve" smooth="yes"/>
      <point x="311" y="150" type="line" smooth="yes"/>
      <point x="292" y="43"/>
      <point x="333" y="-10"/>
    </contour>
  </outline>
</glyph>
<glyph name="Iogonek" format="2">
  <advance width="387"/>
  <unicode hex="012E"/>
  <outline>
    <contour>
      <point x="-30" y="0" type="line"/>
      <point x="301" y="0" type="line"/>
      <point x="304" y="16" type="line"/>
      <point x="231" y="58" type="line"/>
      <point x="327" y="602" type="line"/>
      <point x="414" y="644" type="line"/>
      <point x="417" y="660" type="line"/>
      <point x="86" y="660" type="line"/>
      <point x="83" y="644" type="line"/>
      <point x="156" y="602" type="line"/>
      <point x="60" y="58" type="line"/>
      <point x="-27" y="16" type="line"/>
    </contour>
    <contour>
      <point x="110" y="-240" type="curve" smooth="yes"/>
      <point x="154" y="-240"/>
      <point x="185" y="-220"/>
      <point x="205" y="-189" type="curve"/>
      <point x="211" y="-167" type="line"/>
      <point x="207" y="-167" type="line"/>
      <point x="197" y="-177"/>
      <point x="179" y="-183"/>
      <point x="165" y="-183" type="curve" smooth="yes"/>
      <point x="130" y="-183"/>
      <point x="112" y="-164"/>
      <point x="112" y="-130" type="curve" smooth="yes"/>
      <point x="112" y="-76"/>
      <point x="139" y="-19"/>
      <point x="170" y="27" type="curve"/>
      <point x="147" y="27" type="line"/>
      <point x="85" y="-25"/>
      <point x="19" y="-89"/>
      <point x="19" y="-160" type="curve" smooth="yes"/>
      <point x="19" y="-209"/>
      <point x="53" y="-240"/>
    </contour>
  </outline>
</glyph>
<glyph name="Iogonek" format="1">
  <advance width="387"/>
  <unicode hex="012E"/>
  <outline>
    <contour>
      <point x="-30" y="0" type="line"/>
      <point x="301" y="0" type="line"/>
      <point x="304" y="16" type="line"/>
      <point x="231" y="58" type="line"/>
      <point x="327" y="602" type="line"/>
      <point x="414" y="644" type="line"/>
      <point x="417" y="660" type="line"/>
      <point x="86" y="660" type="line"/>
      <point x="83" y="644" type="line"/>
      <point x="156" y="602" type="line"/>
      <point x="60" y="58" type="line"/>
      <point x="-27" y="16" type="line"/>
    </contour>
    <contour>
      <point x="110" y="-240" type="curve" smooth="yes"/>
      <point x="154" y="-240"/>
      <point x="185" y="-220"/>
      <point x="205" y="-189" type="curve"/>
      <point x="211" y="-167" type="line"/>
      <point x="207" y="-167" type="line"/>
      <point x="197" y="-177"/>
      <point x="179" y="-183"/>
      <point x="165" y="-183" type="curve" smooth="yes"/>
      <point x="130" y="-183"/>
      <point x="112" y="-164"/>
      <point x="112" y="-130" type="curve" smooth="yes"/>
      <point x="112" y="-76"/>
      <point x="139" y="-19"/>
      <point x="170" y="27" type="curve"/>
      <point x="147" y="27" type="line"/>
      <point x="85" y="-25"/>
      <point x="19" y="-89"/>
      <point x="19" y="-160" type="curve" smooth="yes"/>
      <point x="19" y="-209"/>
      <point x="53" y="-240"/>
    </contour>
  </outline>
</glyph>
<glyph name="iogonek" format="1">
  <advance width="310.0"/>
  <unicode hex="012F"/>
  <outline>
    <contour>
      <point x="147" y="-10" type="curve" smooth="yes"/>
      <point x="222" y="-10"/>
      <point x="270" y="55"/>
      <point x="306" y="153" type="curve"/>
      <point x="284" y="160" type="line"/>
      <point x="260" y="106"/>
      <point x="241" y="89"/>
      <point x="223" y="89" type="curve" smooth="yes"/>
      <point x="207" y="89"/>
      <point x="201" y="107"/>
      <point x="205" y="131" type="curve" smooth="yes"/>
      <point x="265" y="470" type="line"/>
      <point x="262" y="470" type="line"/>
      <point x="30" y="430" type="line"/>
      <point x="30" y="414" type="line"/>
      <point x="88" y="381" type="line"/>
      <point x="47" y="150" type="line" smooth="yes"/>
      <point x="28" y="43"/>
      <point x="69" y="-10"/>
    </contour>
    <contour>
      <point x="211" y="552" type="curve" smooth="yes"/>
      <point x="260" y="552"/>
      <point x="296" y="587"/>
      <point x="296" y="637" type="curve" smooth="yes"/>
      <point x="296" y="687"/>
      <point x="260" y="723"/>
      <point x="211" y="723" type="curve" smooth="yes"/>
      <point x="162" y="723"/>
      <point x="125" y="687"/>
      <point x="125" y="637" type="curve" smooth="yes"/>
      <point x="125" y="587"/>
      <point x="162" y="552"/>
    </contour>
    <contour>
      <point x="123" y="-240" type="curve" smooth="yes"/>
      <point x="167" y="-240"/>
      <point x="198" y="-220"/>
      <point x="218" y="-189" type="curve"/>
      <point x="224" y="-167" type="line"/>
      <point x="220" y="-167" type="line"/>
      <point x="210" y="-177"/>
      <point x="192" y="-183"/>
      <point x="178" y="-183" type="curve" smooth="yes"/>
      <point x="143" y="-183"/>
      <point x="125" y="-164"/>
      <point x="125" y="-130" type="curve" smooth="yes"/>
      <point x="125" y="-76"/>
      <point x="152" y="-19"/>
      <point x="183" y="27" type="curve"/>
      <point x="160" y="27" type="line"/>
      <point x="98" y="-25"/>
      <point x="32" y="-89"/>
      <point x="32" y="-160" type="curve" smooth="yes"/>
      <point x="32" y="-209"/>
      <point x="66" y="-240"/>
    </contour>
  </outline>
</glyph>
<glyph name="idotless" format="2">
  <advance width="310"/>
  <unicode hex="0131"/>
  <anchor x="193" y="510" name="top"/>
  <anchor x="200" y="0" name="right"/>
  <anchor x="137" y="0" name="bottom"/>
  <outline>
    <contour>
      <point x="147" y="-10" type="curve" smooth="yes"/>
      <point x="222" y="-10"/>
      <point x="270" y="55"/>
      <point x="306" y="153" type="curve"/>
      <point x="284" y="160" type="line"/>
      <point x="260" y="106"/>
      <point x="241" y="89"/>
      <point x="223" y="89" type="curve" smooth="yes"/>
      <point x="207" y="89"/>
      <point x="201" y="107"/>
      <point x="205" y="131" type="curve" smooth="yes"/>
      <point x="265" y="470" type="line"/>
      <point x="262" y="470" type="line"/>
      <point x="30" y="430" type="line"/>
      <point x="30" y="414" type="line"/>
      <point x="88" y="381" type="line"/>
      <point x="47" y="150" type="line" smooth="yes"/>
      <point x="28" y="43"/>
      <point x="69" y="-10"/>
    </contour>
  </outline>
</glyph>
<glyph name="kgreenlandic" format="2">
  <advance width="549"/>
  <unicode hex="0138"/>
  <outline>
    <contour>
      <point x="20" y="0" type="line"/>
      <point x="183" y="0" type="line"/>
      <point x="264" y="470" type="line"/>
      <point x="261" y="470" type="line"/>
      <point x="17" y="430" type="line"/>
      <point x="17" y="414" type="line"/>
      <point x="86" y="381" type="line"/>
    </contour>
    <contour>
      <point x="401" y="-10" type="curve" smooth="yes"/>
      <point x="468" y="-10"/>
      <point x="513" y="36"/>
      <point x="536" y="152" type="curve"/>
      <point x="514" y="157" type="line"/>
      <point x="502" y="105"/>
      <point x="487" y="89"/>
      <point x="469" y="89" type="curve" smooth="yes"/>
      <point x="451" y="89"/>
      <point x="442" y="109"/>
      <point x="431" y="135" type="curve" smooth="yes"/>
      <point x="341" y="346" type="line"/>
      <point x="298" y="306" type="line"/>
      <point x="398" y="367" type="line" smooth="yes"/>
      <point x="408" y="373"/>
      <point x="418" y="378"/>
      <point x="430" y="382" type="curve"/>
      <point x="401" y="382" type="line"/>
      <point x="490" y="349" type="line"/>
      <point x="520" y="424" type="line" smooth="yes"/>
      <point x="524" y="434"/>
      <point x="525" y="438"/>
      <point x="525" y="441" type="curve" smooth="yes"/>
      <point x="525" y="454"/>
      <point x="510" y="470"/>
      <point x="479" y="470" type="curve" smooth="yes"/>
      <point x="437" y="470"/>
      <point x="367" y="417"/>
      <point x="224" y="267" type="curve"/>
      <point x="224" y="262" type="line"/>
      <point x="289" y="83" type="line" smooth="yes"/>
      <point x="308" y="31"/>
      <point x="335" y="-10"/>
    </contour>
  </outline>
</glyph>
<glyph name="Lslash" format="1">
  <advance width="570"/>
  <unicode hex="0141"/>
  <outline>
    <contour>
      <point x="-30" y="0" type="line"/>
      <point x="489" y="0" type="line"/>
      <point x="535" y="245" type="line"/>
      <point x="519" y="245" type="line"/>
      <point x="395" y="55" type="line"/>
      <point x="230" y="55" type="line"/>
      <point x="327" y="602" type="line"/>
      <point x="424" y="644" type="line"/>
      <point x="427" y="660" type="line"/>
      <point x="86" y="660" type="line"/>
      <point x="83" y="644" type="line"/>
      <point x="156" y="602" type="line"/>
      <point x="60" y="58" type="line"/>
      <point x="-27" y="16" type="line"/>
    </contour>
    <contour>
      <point x="3" y="179" type="line"/>
      <point x="152" y="263" type="line"/>
      <point x="235" y="294" type="line"/>
      <point x="433" y="402" type="line"/>
      <point x="445" y="470" type="line"/>
      <point x="246" y="361" type="line"/>
      <point x="166" y="331" type="line"/>
      <point x="14" y="247" type="line"/>
    </contour>
  </outline>
</glyph>
<glyph name="lslash" format="2">
  <advance width="308"/>
  <unicode hex="0142"/>
  <outline>
    <contour>
      <point x="145" y="-10" type="curve" smooth="yes"/>
      <point x="220" y="-10"/>
      <point x="268" y="55"/>
      <point x="304" y="153" type="curve"/>
      <point x="282" y="160" type="line"/>
      <point x="258" y="106"/>
      <point x="239" y="89"/>
      <point x="221" y="89" type="curve" smooth="yes"/>
      <point x="205" y="89"/>
      <point x="199" y="107"/>
      <point x="203" y="131" type="curve" smooth="yes"/>
      <point x="313" y="750" type="line"/>
      <point x="310" y="750" type="line"/>
      <point x="66" y="710" type="line"/>
      <point x="66" y="694" type="line"/>
      <point x="135" y="661" type="line"/>
      <point x="45" y="150" type="line" smooth="yes"/>
      <point x="26" y="43"/>
      <point x="67" y="-10"/>
    </contour>
    <contour>
      <point x="0" y="207" type="line"/>
      <point x="107" y="279" type="line"/>
      <point x="196" y="317" type="line"/>
      <point x="324" y="405" type="line"/>
      <point x="337" y="467" type="line"/>
      <point x="207" y="380" type="line"/>
      <point x="119" y="342" type="line"/>
      <point x="12" y="269" type="line"/>
    </contour>
  </outline>
</glyph>
<glyph name="Eng" format="2">
  <advance width="740"/>
  <unicode hex="014A"/>
  <outline>
    <contour>
      <point x="-25" y="0" type="line"/>
      <point x="238" y="0" type="line"/>
      <point x="241" y="16" type="line"/>
      <point x="137" y="58" type="line"/>
      <point x="214" y="495" type="line"/>
      <point x="186" y="495" type="line"/>
      <point x="529" y="-38" type="line"/>
      <point x="519" y="22" type="line"/>
      <point x="514" y="-6" type="line" smooth="yes"/>
      <point x="501" y="-80"/>
      <point x="487" y="-121"/>
      <point x="452" y="-147" type="curve"/>
      <point x="501" y="-125" type="line"/>
      <point x="322" y="-125" type="line"/>
      <point x="314" y="-172" type="line" smooth="yes"/>
      <point x="312" y="-183"/>
      <point x="311" y="-192"/>
      <point x="311" y="-197" type="curve" smooth="yes"/>
      <point x="311" y="-225"/>
      <point x="332" y="-240"/>
      <point x="383" y="-240" type="curve" smooth="yes"/>
      <point x="484" y="-240"/>
      <point x="556" y="-176"/>
      <point x="587" y="0" type="curve" smooth="yes"/>
      <point x="693" y="602" type="line"/>
      <point x="778" y="644" type="line"/>
      <point x="781" y="660" type="line"/>
      <point x="520" y="660" type="line"/>
      <point x="517" y="644" type="line"/>
      <point x="621" y="602" type="line"/>
      <point x="546" y="176" type="line"/>
      <point x="592" y="176" type="line"/>
      <point x="286" y="660" type="line"/>
      <point x="91" y="660" type="line"/>
      <point x="88" y="644" type="line"/>
      <point x="161" y="602" type="line"/>
      <point x="65" y="58" type="line"/>
      <point x="-22" y="16" type="line"/>
    </contour>
  </outline>
</glyph>
